M48
; DRILL file KiCad 10.0.3 date 2026-09-09T00:04:59
; FORMAT={-:-/ absolute / metric / decimal}
; #@! TF.CreationDate,2026-09-09T00:04:59+05:30
; #@! TF.GenerationSoftware,Kicad,Pcbnew,10.0.3
; #@! TF.FileFunction,Plated,1,2,PTH
FMAT,2
METRIC
; #@! TA.AperFunction,Plated,PTH,ViaDrill
T1C0.300
; #@! TA.AperFunction,Plated,PTH,ComponentDrill
T2C0.500
; #@! TA.AperFunction,Plated,PTH,ComponentDrill
T3C0.800
; #@! TA.AperFunction,Plated,PTH,ComponentDrill
T4C1.000
; #@! TA.AperFunction,Plated,PTH,ComponentDrill
T5C1.100
; #@! TA.AperFunction,Plated,PTH,ComponentDrill
T6C1.200
; #@! TA.AperFunction,Plated,PTH,ComponentDrill
T7C1.300
%
G90
G05
T1
X117.2Y-108.8
X125.062Y-89.662
X125.7Y-108.8
X127.9Y-112.5
X130.3Y-94.6
X130.3Y-97.1
X131.7Y-89.3
X139.6Y-104.4
X140.5Y-92.0
X142.6Y-99.6
X152.575Y-103.125
X152.6Y-101.8
X153.1Y-106.4
X153.4Y-102.5
X153.7Y-103.7
X174.9Y-106.3
X174.9Y-115.8
T2
X147.0Y-86.0
T3
X103.5Y-65.0
X111.0Y-66.4
X159.8Y-101.32
X159.8Y-106.2
X175.0Y-84.5
X175.0Y-86.5
T4
X138.34Y-117.6
X140.88Y-117.6
X143.42Y-117.6
X145.96Y-117.6
X148.5Y-117.6
X151.04Y-117.6
X153.58Y-117.6
X156.12Y-117.6
X158.66Y-117.6
X161.2Y-117.6
X176.8Y-98.86
X176.8Y-101.4
X176.9Y-91.2
X176.9Y-93.74
T5
X121.4Y-51.7
X121.4Y-66.7
T6
X103.14Y-74.0
X105.0Y-85.5
X105.0Y-95.5
X106.5Y-53.5
X106.5Y-58.5
X107.75Y-108.0
X107.75Y-113.0
X117.7Y-85.5
X117.7Y-95.5
X126.0Y-74.0
T7
X133.0Y-62.3
X133.0Y-70.1
X175.5Y-54.9
X175.5Y-77.5
M30
