%TF.GenerationSoftware,KiCad,Pcbnew,10.0.3*%
%TF.CreationDate,2026-09-09T00:05:28+05:30*%
%TF.ProjectId,ATM90E26_EVAL,41544d39-3045-4323-965f-4556414c2e6b,rev?*%
%TF.SameCoordinates,Original*%
%TF.FileFunction,Legend,Top*%
%TF.FilePolarity,Positive*%
%FSLAX46Y46*%
G04 Gerber Fmt 4.6, Leading zero omitted, Abs format (unit mm)*
G04 Created by KiCad (PCBNEW 10.0.3) date 2026-09-09 00:05:28*
%MOMM*%
%LPD*%
G01*
G04 APERTURE LIST*
%ADD10C,0.150000*%
%ADD11C,0.120000*%
G04 APERTURE END LIST*
D10*
X173766666Y-91954819D02*
X173766666Y-92669104D01*
X173766666Y-92669104D02*
X173719047Y-92811961D01*
X173719047Y-92811961D02*
X173623809Y-92907200D01*
X173623809Y-92907200D02*
X173480952Y-92954819D01*
X173480952Y-92954819D02*
X173385714Y-92954819D01*
X174147619Y-91954819D02*
X174766666Y-91954819D01*
X174766666Y-91954819D02*
X174433333Y-92335771D01*
X174433333Y-92335771D02*
X174576190Y-92335771D01*
X174576190Y-92335771D02*
X174671428Y-92383390D01*
X174671428Y-92383390D02*
X174719047Y-92431009D01*
X174719047Y-92431009D02*
X174766666Y-92526247D01*
X174766666Y-92526247D02*
X174766666Y-92764342D01*
X174766666Y-92764342D02*
X174719047Y-92859580D01*
X174719047Y-92859580D02*
X174671428Y-92907200D01*
X174671428Y-92907200D02*
X174576190Y-92954819D01*
X174576190Y-92954819D02*
X174290476Y-92954819D01*
X174290476Y-92954819D02*
X174195238Y-92907200D01*
X174195238Y-92907200D02*
X174147619Y-92859580D01*
X173713095Y-106759819D02*
X173713095Y-107569342D01*
X173713095Y-107569342D02*
X173760714Y-107664580D01*
X173760714Y-107664580D02*
X173808333Y-107712200D01*
X173808333Y-107712200D02*
X173903571Y-107759819D01*
X173903571Y-107759819D02*
X174094047Y-107759819D01*
X174094047Y-107759819D02*
X174189285Y-107712200D01*
X174189285Y-107712200D02*
X174236904Y-107664580D01*
X174236904Y-107664580D02*
X174284523Y-107569342D01*
X174284523Y-107569342D02*
X174284523Y-106759819D01*
X175189285Y-107093152D02*
X175189285Y-107759819D01*
X174951190Y-106712200D02*
X174713095Y-107426485D01*
X174713095Y-107426485D02*
X175332142Y-107426485D01*
X179154819Y-117430357D02*
X178678628Y-117763690D01*
X179154819Y-118001785D02*
X178154819Y-118001785D01*
X178154819Y-118001785D02*
X178154819Y-117620833D01*
X178154819Y-117620833D02*
X178202438Y-117525595D01*
X178202438Y-117525595D02*
X178250057Y-117477976D01*
X178250057Y-117477976D02*
X178345295Y-117430357D01*
X178345295Y-117430357D02*
X178488152Y-117430357D01*
X178488152Y-117430357D02*
X178583390Y-117477976D01*
X178583390Y-117477976D02*
X178631009Y-117525595D01*
X178631009Y-117525595D02*
X178678628Y-117620833D01*
X178678628Y-117620833D02*
X178678628Y-118001785D01*
X179154819Y-116477976D02*
X179154819Y-117049404D01*
X179154819Y-116763690D02*
X178154819Y-116763690D01*
X178154819Y-116763690D02*
X178297676Y-116858928D01*
X178297676Y-116858928D02*
X178392914Y-116954166D01*
X178392914Y-116954166D02*
X178440533Y-117049404D01*
X178154819Y-116144642D02*
X178154819Y-115525595D01*
X178154819Y-115525595D02*
X178535771Y-115858928D01*
X178535771Y-115858928D02*
X178535771Y-115716071D01*
X178535771Y-115716071D02*
X178583390Y-115620833D01*
X178583390Y-115620833D02*
X178631009Y-115573214D01*
X178631009Y-115573214D02*
X178726247Y-115525595D01*
X178726247Y-115525595D02*
X178964342Y-115525595D01*
X178964342Y-115525595D02*
X179059580Y-115573214D01*
X179059580Y-115573214D02*
X179107200Y-115620833D01*
X179107200Y-115620833D02*
X179154819Y-115716071D01*
X179154819Y-115716071D02*
X179154819Y-116001785D01*
X179154819Y-116001785D02*
X179107200Y-116097023D01*
X179107200Y-116097023D02*
X179059580Y-116144642D01*
X175604819Y-117430357D02*
X175128628Y-117763690D01*
X175604819Y-118001785D02*
X174604819Y-118001785D01*
X174604819Y-118001785D02*
X174604819Y-117620833D01*
X174604819Y-117620833D02*
X174652438Y-117525595D01*
X174652438Y-117525595D02*
X174700057Y-117477976D01*
X174700057Y-117477976D02*
X174795295Y-117430357D01*
X174795295Y-117430357D02*
X174938152Y-117430357D01*
X174938152Y-117430357D02*
X175033390Y-117477976D01*
X175033390Y-117477976D02*
X175081009Y-117525595D01*
X175081009Y-117525595D02*
X175128628Y-117620833D01*
X175128628Y-117620833D02*
X175128628Y-118001785D01*
X175604819Y-116477976D02*
X175604819Y-117049404D01*
X175604819Y-116763690D02*
X174604819Y-116763690D01*
X174604819Y-116763690D02*
X174747676Y-116858928D01*
X174747676Y-116858928D02*
X174842914Y-116954166D01*
X174842914Y-116954166D02*
X174890533Y-117049404D01*
X174700057Y-116097023D02*
X174652438Y-116049404D01*
X174652438Y-116049404D02*
X174604819Y-115954166D01*
X174604819Y-115954166D02*
X174604819Y-115716071D01*
X174604819Y-115716071D02*
X174652438Y-115620833D01*
X174652438Y-115620833D02*
X174700057Y-115573214D01*
X174700057Y-115573214D02*
X174795295Y-115525595D01*
X174795295Y-115525595D02*
X174890533Y-115525595D01*
X174890533Y-115525595D02*
X175033390Y-115573214D01*
X175033390Y-115573214D02*
X175604819Y-116144642D01*
X175604819Y-116144642D02*
X175604819Y-115525595D01*
X176182142Y-104729580D02*
X176134523Y-104777200D01*
X176134523Y-104777200D02*
X175991666Y-104824819D01*
X175991666Y-104824819D02*
X175896428Y-104824819D01*
X175896428Y-104824819D02*
X175753571Y-104777200D01*
X175753571Y-104777200D02*
X175658333Y-104681961D01*
X175658333Y-104681961D02*
X175610714Y-104586723D01*
X175610714Y-104586723D02*
X175563095Y-104396247D01*
X175563095Y-104396247D02*
X175563095Y-104253390D01*
X175563095Y-104253390D02*
X175610714Y-104062914D01*
X175610714Y-104062914D02*
X175658333Y-103967676D01*
X175658333Y-103967676D02*
X175753571Y-103872438D01*
X175753571Y-103872438D02*
X175896428Y-103824819D01*
X175896428Y-103824819D02*
X175991666Y-103824819D01*
X175991666Y-103824819D02*
X176134523Y-103872438D01*
X176134523Y-103872438D02*
X176182142Y-103920057D01*
X177134523Y-104824819D02*
X176563095Y-104824819D01*
X176848809Y-104824819D02*
X176848809Y-103824819D01*
X176848809Y-103824819D02*
X176753571Y-103967676D01*
X176753571Y-103967676D02*
X176658333Y-104062914D01*
X176658333Y-104062914D02*
X176563095Y-104110533D01*
X177467857Y-103824819D02*
X178134523Y-103824819D01*
X178134523Y-103824819D02*
X177705952Y-104824819D01*
X156258628Y-104236190D02*
X156734819Y-104236190D01*
X155734819Y-104569523D02*
X156258628Y-104236190D01*
X156258628Y-104236190D02*
X155734819Y-103902857D01*
X156734819Y-103045714D02*
X156734819Y-103617142D01*
X156734819Y-103331428D02*
X155734819Y-103331428D01*
X155734819Y-103331428D02*
X155877676Y-103426666D01*
X155877676Y-103426666D02*
X155972914Y-103521904D01*
X155972914Y-103521904D02*
X156020533Y-103617142D01*
X128459580Y-59366666D02*
X128507200Y-59414285D01*
X128507200Y-59414285D02*
X128554819Y-59557142D01*
X128554819Y-59557142D02*
X128554819Y-59652380D01*
X128554819Y-59652380D02*
X128507200Y-59795237D01*
X128507200Y-59795237D02*
X128411961Y-59890475D01*
X128411961Y-59890475D02*
X128316723Y-59938094D01*
X128316723Y-59938094D02*
X128126247Y-59985713D01*
X128126247Y-59985713D02*
X127983390Y-59985713D01*
X127983390Y-59985713D02*
X127792914Y-59938094D01*
X127792914Y-59938094D02*
X127697676Y-59890475D01*
X127697676Y-59890475D02*
X127602438Y-59795237D01*
X127602438Y-59795237D02*
X127554819Y-59652380D01*
X127554819Y-59652380D02*
X127554819Y-59557142D01*
X127554819Y-59557142D02*
X127602438Y-59414285D01*
X127602438Y-59414285D02*
X127650057Y-59366666D01*
X127888152Y-58509523D02*
X128554819Y-58509523D01*
X127507200Y-58747618D02*
X128221485Y-58985713D01*
X128221485Y-58985713D02*
X128221485Y-58366666D01*
X145438095Y-98804819D02*
X145438095Y-99614342D01*
X145438095Y-99614342D02*
X145485714Y-99709580D01*
X145485714Y-99709580D02*
X145533333Y-99757200D01*
X145533333Y-99757200D02*
X145628571Y-99804819D01*
X145628571Y-99804819D02*
X145819047Y-99804819D01*
X145819047Y-99804819D02*
X145914285Y-99757200D01*
X145914285Y-99757200D02*
X145961904Y-99709580D01*
X145961904Y-99709580D02*
X146009523Y-99614342D01*
X146009523Y-99614342D02*
X146009523Y-98804819D01*
X146438095Y-98900057D02*
X146485714Y-98852438D01*
X146485714Y-98852438D02*
X146580952Y-98804819D01*
X146580952Y-98804819D02*
X146819047Y-98804819D01*
X146819047Y-98804819D02*
X146914285Y-98852438D01*
X146914285Y-98852438D02*
X146961904Y-98900057D01*
X146961904Y-98900057D02*
X147009523Y-98995295D01*
X147009523Y-98995295D02*
X147009523Y-99090533D01*
X147009523Y-99090533D02*
X146961904Y-99233390D01*
X146961904Y-99233390D02*
X146390476Y-99804819D01*
X146390476Y-99804819D02*
X147009523Y-99804819D01*
X123589580Y-113591666D02*
X123637200Y-113639285D01*
X123637200Y-113639285D02*
X123684819Y-113782142D01*
X123684819Y-113782142D02*
X123684819Y-113877380D01*
X123684819Y-113877380D02*
X123637200Y-114020237D01*
X123637200Y-114020237D02*
X123541961Y-114115475D01*
X123541961Y-114115475D02*
X123446723Y-114163094D01*
X123446723Y-114163094D02*
X123256247Y-114210713D01*
X123256247Y-114210713D02*
X123113390Y-114210713D01*
X123113390Y-114210713D02*
X122922914Y-114163094D01*
X122922914Y-114163094D02*
X122827676Y-114115475D01*
X122827676Y-114115475D02*
X122732438Y-114020237D01*
X122732438Y-114020237D02*
X122684819Y-113877380D01*
X122684819Y-113877380D02*
X122684819Y-113782142D01*
X122684819Y-113782142D02*
X122732438Y-113639285D01*
X122732438Y-113639285D02*
X122780057Y-113591666D01*
X122684819Y-112734523D02*
X122684819Y-112924999D01*
X122684819Y-112924999D02*
X122732438Y-113020237D01*
X122732438Y-113020237D02*
X122780057Y-113067856D01*
X122780057Y-113067856D02*
X122922914Y-113163094D01*
X122922914Y-113163094D02*
X123113390Y-113210713D01*
X123113390Y-113210713D02*
X123494342Y-113210713D01*
X123494342Y-113210713D02*
X123589580Y-113163094D01*
X123589580Y-113163094D02*
X123637200Y-113115475D01*
X123637200Y-113115475D02*
X123684819Y-113020237D01*
X123684819Y-113020237D02*
X123684819Y-112829761D01*
X123684819Y-112829761D02*
X123637200Y-112734523D01*
X123637200Y-112734523D02*
X123589580Y-112686904D01*
X123589580Y-112686904D02*
X123494342Y-112639285D01*
X123494342Y-112639285D02*
X123256247Y-112639285D01*
X123256247Y-112639285D02*
X123161009Y-112686904D01*
X123161009Y-112686904D02*
X123113390Y-112734523D01*
X123113390Y-112734523D02*
X123065771Y-112829761D01*
X123065771Y-112829761D02*
X123065771Y-113020237D01*
X123065771Y-113020237D02*
X123113390Y-113115475D01*
X123113390Y-113115475D02*
X123161009Y-113163094D01*
X123161009Y-113163094D02*
X123256247Y-113210713D01*
X114403333Y-68834819D02*
X114070000Y-68358628D01*
X113831905Y-68834819D02*
X113831905Y-67834819D01*
X113831905Y-67834819D02*
X114212857Y-67834819D01*
X114212857Y-67834819D02*
X114308095Y-67882438D01*
X114308095Y-67882438D02*
X114355714Y-67930057D01*
X114355714Y-67930057D02*
X114403333Y-68025295D01*
X114403333Y-68025295D02*
X114403333Y-68168152D01*
X114403333Y-68168152D02*
X114355714Y-68263390D01*
X114355714Y-68263390D02*
X114308095Y-68311009D01*
X114308095Y-68311009D02*
X114212857Y-68358628D01*
X114212857Y-68358628D02*
X113831905Y-68358628D01*
X115355714Y-68834819D02*
X114784286Y-68834819D01*
X115070000Y-68834819D02*
X115070000Y-67834819D01*
X115070000Y-67834819D02*
X114974762Y-67977676D01*
X114974762Y-67977676D02*
X114879524Y-68072914D01*
X114879524Y-68072914D02*
X114784286Y-68120533D01*
X131704819Y-102254166D02*
X131228628Y-102587499D01*
X131704819Y-102825594D02*
X130704819Y-102825594D01*
X130704819Y-102825594D02*
X130704819Y-102444642D01*
X130704819Y-102444642D02*
X130752438Y-102349404D01*
X130752438Y-102349404D02*
X130800057Y-102301785D01*
X130800057Y-102301785D02*
X130895295Y-102254166D01*
X130895295Y-102254166D02*
X131038152Y-102254166D01*
X131038152Y-102254166D02*
X131133390Y-102301785D01*
X131133390Y-102301785D02*
X131181009Y-102349404D01*
X131181009Y-102349404D02*
X131228628Y-102444642D01*
X131228628Y-102444642D02*
X131228628Y-102825594D01*
X130704819Y-101397023D02*
X130704819Y-101587499D01*
X130704819Y-101587499D02*
X130752438Y-101682737D01*
X130752438Y-101682737D02*
X130800057Y-101730356D01*
X130800057Y-101730356D02*
X130942914Y-101825594D01*
X130942914Y-101825594D02*
X131133390Y-101873213D01*
X131133390Y-101873213D02*
X131514342Y-101873213D01*
X131514342Y-101873213D02*
X131609580Y-101825594D01*
X131609580Y-101825594D02*
X131657200Y-101777975D01*
X131657200Y-101777975D02*
X131704819Y-101682737D01*
X131704819Y-101682737D02*
X131704819Y-101492261D01*
X131704819Y-101492261D02*
X131657200Y-101397023D01*
X131657200Y-101397023D02*
X131609580Y-101349404D01*
X131609580Y-101349404D02*
X131514342Y-101301785D01*
X131514342Y-101301785D02*
X131276247Y-101301785D01*
X131276247Y-101301785D02*
X131181009Y-101349404D01*
X131181009Y-101349404D02*
X131133390Y-101397023D01*
X131133390Y-101397023D02*
X131085771Y-101492261D01*
X131085771Y-101492261D02*
X131085771Y-101682737D01*
X131085771Y-101682737D02*
X131133390Y-101777975D01*
X131133390Y-101777975D02*
X131181009Y-101825594D01*
X131181009Y-101825594D02*
X131276247Y-101873213D01*
X131589580Y-109791666D02*
X131637200Y-109839285D01*
X131637200Y-109839285D02*
X131684819Y-109982142D01*
X131684819Y-109982142D02*
X131684819Y-110077380D01*
X131684819Y-110077380D02*
X131637200Y-110220237D01*
X131637200Y-110220237D02*
X131541961Y-110315475D01*
X131541961Y-110315475D02*
X131446723Y-110363094D01*
X131446723Y-110363094D02*
X131256247Y-110410713D01*
X131256247Y-110410713D02*
X131113390Y-110410713D01*
X131113390Y-110410713D02*
X130922914Y-110363094D01*
X130922914Y-110363094D02*
X130827676Y-110315475D01*
X130827676Y-110315475D02*
X130732438Y-110220237D01*
X130732438Y-110220237D02*
X130684819Y-110077380D01*
X130684819Y-110077380D02*
X130684819Y-109982142D01*
X130684819Y-109982142D02*
X130732438Y-109839285D01*
X130732438Y-109839285D02*
X130780057Y-109791666D01*
X130684819Y-109458332D02*
X130684819Y-108839285D01*
X130684819Y-108839285D02*
X131065771Y-109172618D01*
X131065771Y-109172618D02*
X131065771Y-109029761D01*
X131065771Y-109029761D02*
X131113390Y-108934523D01*
X131113390Y-108934523D02*
X131161009Y-108886904D01*
X131161009Y-108886904D02*
X131256247Y-108839285D01*
X131256247Y-108839285D02*
X131494342Y-108839285D01*
X131494342Y-108839285D02*
X131589580Y-108886904D01*
X131589580Y-108886904D02*
X131637200Y-108934523D01*
X131637200Y-108934523D02*
X131684819Y-109029761D01*
X131684819Y-109029761D02*
X131684819Y-109315475D01*
X131684819Y-109315475D02*
X131637200Y-109410713D01*
X131637200Y-109410713D02*
X131589580Y-109458332D01*
X120745833Y-105854819D02*
X120412500Y-105378628D01*
X120174405Y-105854819D02*
X120174405Y-104854819D01*
X120174405Y-104854819D02*
X120555357Y-104854819D01*
X120555357Y-104854819D02*
X120650595Y-104902438D01*
X120650595Y-104902438D02*
X120698214Y-104950057D01*
X120698214Y-104950057D02*
X120745833Y-105045295D01*
X120745833Y-105045295D02*
X120745833Y-105188152D01*
X120745833Y-105188152D02*
X120698214Y-105283390D01*
X120698214Y-105283390D02*
X120650595Y-105331009D01*
X120650595Y-105331009D02*
X120555357Y-105378628D01*
X120555357Y-105378628D02*
X120174405Y-105378628D01*
X121602976Y-105188152D02*
X121602976Y-105854819D01*
X121364881Y-104807200D02*
X121126786Y-105521485D01*
X121126786Y-105521485D02*
X121745833Y-105521485D01*
X152789580Y-87367857D02*
X152837200Y-87415476D01*
X152837200Y-87415476D02*
X152884819Y-87558333D01*
X152884819Y-87558333D02*
X152884819Y-87653571D01*
X152884819Y-87653571D02*
X152837200Y-87796428D01*
X152837200Y-87796428D02*
X152741961Y-87891666D01*
X152741961Y-87891666D02*
X152646723Y-87939285D01*
X152646723Y-87939285D02*
X152456247Y-87986904D01*
X152456247Y-87986904D02*
X152313390Y-87986904D01*
X152313390Y-87986904D02*
X152122914Y-87939285D01*
X152122914Y-87939285D02*
X152027676Y-87891666D01*
X152027676Y-87891666D02*
X151932438Y-87796428D01*
X151932438Y-87796428D02*
X151884819Y-87653571D01*
X151884819Y-87653571D02*
X151884819Y-87558333D01*
X151884819Y-87558333D02*
X151932438Y-87415476D01*
X151932438Y-87415476D02*
X151980057Y-87367857D01*
X152884819Y-86415476D02*
X152884819Y-86986904D01*
X152884819Y-86701190D02*
X151884819Y-86701190D01*
X151884819Y-86701190D02*
X152027676Y-86796428D01*
X152027676Y-86796428D02*
X152122914Y-86891666D01*
X152122914Y-86891666D02*
X152170533Y-86986904D01*
X151884819Y-85558333D02*
X151884819Y-85748809D01*
X151884819Y-85748809D02*
X151932438Y-85844047D01*
X151932438Y-85844047D02*
X151980057Y-85891666D01*
X151980057Y-85891666D02*
X152122914Y-85986904D01*
X152122914Y-85986904D02*
X152313390Y-86034523D01*
X152313390Y-86034523D02*
X152694342Y-86034523D01*
X152694342Y-86034523D02*
X152789580Y-85986904D01*
X152789580Y-85986904D02*
X152837200Y-85939285D01*
X152837200Y-85939285D02*
X152884819Y-85844047D01*
X152884819Y-85844047D02*
X152884819Y-85653571D01*
X152884819Y-85653571D02*
X152837200Y-85558333D01*
X152837200Y-85558333D02*
X152789580Y-85510714D01*
X152789580Y-85510714D02*
X152694342Y-85463095D01*
X152694342Y-85463095D02*
X152456247Y-85463095D01*
X152456247Y-85463095D02*
X152361009Y-85510714D01*
X152361009Y-85510714D02*
X152313390Y-85558333D01*
X152313390Y-85558333D02*
X152265771Y-85653571D01*
X152265771Y-85653571D02*
X152265771Y-85844047D01*
X152265771Y-85844047D02*
X152313390Y-85939285D01*
X152313390Y-85939285D02*
X152361009Y-85986904D01*
X152361009Y-85986904D02*
X152456247Y-86034523D01*
X106654761Y-63204819D02*
X106321428Y-62728628D01*
X106083333Y-63204819D02*
X106083333Y-62204819D01*
X106083333Y-62204819D02*
X106464285Y-62204819D01*
X106464285Y-62204819D02*
X106559523Y-62252438D01*
X106559523Y-62252438D02*
X106607142Y-62300057D01*
X106607142Y-62300057D02*
X106654761Y-62395295D01*
X106654761Y-62395295D02*
X106654761Y-62538152D01*
X106654761Y-62538152D02*
X106607142Y-62633390D01*
X106607142Y-62633390D02*
X106559523Y-62681009D01*
X106559523Y-62681009D02*
X106464285Y-62728628D01*
X106464285Y-62728628D02*
X106083333Y-62728628D01*
X106940476Y-62204819D02*
X107273809Y-63204819D01*
X107273809Y-63204819D02*
X107607142Y-62204819D01*
X108464285Y-63204819D02*
X107892857Y-63204819D01*
X108178571Y-63204819D02*
X108178571Y-62204819D01*
X108178571Y-62204819D02*
X108083333Y-62347676D01*
X108083333Y-62347676D02*
X107988095Y-62442914D01*
X107988095Y-62442914D02*
X107892857Y-62490533D01*
X165454819Y-89111904D02*
X166264342Y-89111904D01*
X166264342Y-89111904D02*
X166359580Y-89064285D01*
X166359580Y-89064285D02*
X166407200Y-89016666D01*
X166407200Y-89016666D02*
X166454819Y-88921428D01*
X166454819Y-88921428D02*
X166454819Y-88730952D01*
X166454819Y-88730952D02*
X166407200Y-88635714D01*
X166407200Y-88635714D02*
X166359580Y-88588095D01*
X166359580Y-88588095D02*
X166264342Y-88540476D01*
X166264342Y-88540476D02*
X165454819Y-88540476D01*
X165454819Y-88159523D02*
X165454819Y-87540476D01*
X165454819Y-87540476D02*
X165835771Y-87873809D01*
X165835771Y-87873809D02*
X165835771Y-87730952D01*
X165835771Y-87730952D02*
X165883390Y-87635714D01*
X165883390Y-87635714D02*
X165931009Y-87588095D01*
X165931009Y-87588095D02*
X166026247Y-87540476D01*
X166026247Y-87540476D02*
X166264342Y-87540476D01*
X166264342Y-87540476D02*
X166359580Y-87588095D01*
X166359580Y-87588095D02*
X166407200Y-87635714D01*
X166407200Y-87635714D02*
X166454819Y-87730952D01*
X166454819Y-87730952D02*
X166454819Y-88016666D01*
X166454819Y-88016666D02*
X166407200Y-88111904D01*
X166407200Y-88111904D02*
X166359580Y-88159523D01*
X141769642Y-94104819D02*
X141436309Y-93628628D01*
X141198214Y-94104819D02*
X141198214Y-93104819D01*
X141198214Y-93104819D02*
X141579166Y-93104819D01*
X141579166Y-93104819D02*
X141674404Y-93152438D01*
X141674404Y-93152438D02*
X141722023Y-93200057D01*
X141722023Y-93200057D02*
X141769642Y-93295295D01*
X141769642Y-93295295D02*
X141769642Y-93438152D01*
X141769642Y-93438152D02*
X141722023Y-93533390D01*
X141722023Y-93533390D02*
X141674404Y-93581009D01*
X141674404Y-93581009D02*
X141579166Y-93628628D01*
X141579166Y-93628628D02*
X141198214Y-93628628D01*
X142722023Y-94104819D02*
X142150595Y-94104819D01*
X142436309Y-94104819D02*
X142436309Y-93104819D01*
X142436309Y-93104819D02*
X142341071Y-93247676D01*
X142341071Y-93247676D02*
X142245833Y-93342914D01*
X142245833Y-93342914D02*
X142150595Y-93390533D01*
X143674404Y-94104819D02*
X143102976Y-94104819D01*
X143388690Y-94104819D02*
X143388690Y-93104819D01*
X143388690Y-93104819D02*
X143293452Y-93247676D01*
X143293452Y-93247676D02*
X143198214Y-93342914D01*
X143198214Y-93342914D02*
X143102976Y-93390533D01*
X116054819Y-106829166D02*
X115578628Y-107162499D01*
X116054819Y-107400594D02*
X115054819Y-107400594D01*
X115054819Y-107400594D02*
X115054819Y-107019642D01*
X115054819Y-107019642D02*
X115102438Y-106924404D01*
X115102438Y-106924404D02*
X115150057Y-106876785D01*
X115150057Y-106876785D02*
X115245295Y-106829166D01*
X115245295Y-106829166D02*
X115388152Y-106829166D01*
X115388152Y-106829166D02*
X115483390Y-106876785D01*
X115483390Y-106876785D02*
X115531009Y-106924404D01*
X115531009Y-106924404D02*
X115578628Y-107019642D01*
X115578628Y-107019642D02*
X115578628Y-107400594D01*
X115150057Y-106448213D02*
X115102438Y-106400594D01*
X115102438Y-106400594D02*
X115054819Y-106305356D01*
X115054819Y-106305356D02*
X115054819Y-106067261D01*
X115054819Y-106067261D02*
X115102438Y-105972023D01*
X115102438Y-105972023D02*
X115150057Y-105924404D01*
X115150057Y-105924404D02*
X115245295Y-105876785D01*
X115245295Y-105876785D02*
X115340533Y-105876785D01*
X115340533Y-105876785D02*
X115483390Y-105924404D01*
X115483390Y-105924404D02*
X116054819Y-106495832D01*
X116054819Y-106495832D02*
X116054819Y-105876785D01*
X129179580Y-88691666D02*
X129227200Y-88739285D01*
X129227200Y-88739285D02*
X129274819Y-88882142D01*
X129274819Y-88882142D02*
X129274819Y-88977380D01*
X129274819Y-88977380D02*
X129227200Y-89120237D01*
X129227200Y-89120237D02*
X129131961Y-89215475D01*
X129131961Y-89215475D02*
X129036723Y-89263094D01*
X129036723Y-89263094D02*
X128846247Y-89310713D01*
X128846247Y-89310713D02*
X128703390Y-89310713D01*
X128703390Y-89310713D02*
X128512914Y-89263094D01*
X128512914Y-89263094D02*
X128417676Y-89215475D01*
X128417676Y-89215475D02*
X128322438Y-89120237D01*
X128322438Y-89120237D02*
X128274819Y-88977380D01*
X128274819Y-88977380D02*
X128274819Y-88882142D01*
X128274819Y-88882142D02*
X128322438Y-88739285D01*
X128322438Y-88739285D02*
X128370057Y-88691666D01*
X128703390Y-88120237D02*
X128655771Y-88215475D01*
X128655771Y-88215475D02*
X128608152Y-88263094D01*
X128608152Y-88263094D02*
X128512914Y-88310713D01*
X128512914Y-88310713D02*
X128465295Y-88310713D01*
X128465295Y-88310713D02*
X128370057Y-88263094D01*
X128370057Y-88263094D02*
X128322438Y-88215475D01*
X128322438Y-88215475D02*
X128274819Y-88120237D01*
X128274819Y-88120237D02*
X128274819Y-87929761D01*
X128274819Y-87929761D02*
X128322438Y-87834523D01*
X128322438Y-87834523D02*
X128370057Y-87786904D01*
X128370057Y-87786904D02*
X128465295Y-87739285D01*
X128465295Y-87739285D02*
X128512914Y-87739285D01*
X128512914Y-87739285D02*
X128608152Y-87786904D01*
X128608152Y-87786904D02*
X128655771Y-87834523D01*
X128655771Y-87834523D02*
X128703390Y-87929761D01*
X128703390Y-87929761D02*
X128703390Y-88120237D01*
X128703390Y-88120237D02*
X128751009Y-88215475D01*
X128751009Y-88215475D02*
X128798628Y-88263094D01*
X128798628Y-88263094D02*
X128893866Y-88310713D01*
X128893866Y-88310713D02*
X129084342Y-88310713D01*
X129084342Y-88310713D02*
X129179580Y-88263094D01*
X129179580Y-88263094D02*
X129227200Y-88215475D01*
X129227200Y-88215475D02*
X129274819Y-88120237D01*
X129274819Y-88120237D02*
X129274819Y-87929761D01*
X129274819Y-87929761D02*
X129227200Y-87834523D01*
X129227200Y-87834523D02*
X129179580Y-87786904D01*
X129179580Y-87786904D02*
X129084342Y-87739285D01*
X129084342Y-87739285D02*
X128893866Y-87739285D01*
X128893866Y-87739285D02*
X128798628Y-87786904D01*
X128798628Y-87786904D02*
X128751009Y-87834523D01*
X128751009Y-87834523D02*
X128703390Y-87929761D01*
X145738095Y-84006819D02*
X146309523Y-84006819D01*
X146023809Y-85006819D02*
X146023809Y-84006819D01*
X146642857Y-85006819D02*
X146642857Y-84006819D01*
X146642857Y-84006819D02*
X147023809Y-84006819D01*
X147023809Y-84006819D02*
X147119047Y-84054438D01*
X147119047Y-84054438D02*
X147166666Y-84102057D01*
X147166666Y-84102057D02*
X147214285Y-84197295D01*
X147214285Y-84197295D02*
X147214285Y-84340152D01*
X147214285Y-84340152D02*
X147166666Y-84435390D01*
X147166666Y-84435390D02*
X147119047Y-84483009D01*
X147119047Y-84483009D02*
X147023809Y-84530628D01*
X147023809Y-84530628D02*
X146642857Y-84530628D01*
X148166666Y-85006819D02*
X147595238Y-85006819D01*
X147880952Y-85006819D02*
X147880952Y-84006819D01*
X147880952Y-84006819D02*
X147785714Y-84149676D01*
X147785714Y-84149676D02*
X147690476Y-84244914D01*
X147690476Y-84244914D02*
X147595238Y-84292533D01*
X171609580Y-86142857D02*
X171657200Y-86190476D01*
X171657200Y-86190476D02*
X171704819Y-86333333D01*
X171704819Y-86333333D02*
X171704819Y-86428571D01*
X171704819Y-86428571D02*
X171657200Y-86571428D01*
X171657200Y-86571428D02*
X171561961Y-86666666D01*
X171561961Y-86666666D02*
X171466723Y-86714285D01*
X171466723Y-86714285D02*
X171276247Y-86761904D01*
X171276247Y-86761904D02*
X171133390Y-86761904D01*
X171133390Y-86761904D02*
X170942914Y-86714285D01*
X170942914Y-86714285D02*
X170847676Y-86666666D01*
X170847676Y-86666666D02*
X170752438Y-86571428D01*
X170752438Y-86571428D02*
X170704819Y-86428571D01*
X170704819Y-86428571D02*
X170704819Y-86333333D01*
X170704819Y-86333333D02*
X170752438Y-86190476D01*
X170752438Y-86190476D02*
X170800057Y-86142857D01*
X171704819Y-85190476D02*
X171704819Y-85761904D01*
X171704819Y-85476190D02*
X170704819Y-85476190D01*
X170704819Y-85476190D02*
X170847676Y-85571428D01*
X170847676Y-85571428D02*
X170942914Y-85666666D01*
X170942914Y-85666666D02*
X170990533Y-85761904D01*
X170704819Y-84571428D02*
X170704819Y-84476190D01*
X170704819Y-84476190D02*
X170752438Y-84380952D01*
X170752438Y-84380952D02*
X170800057Y-84333333D01*
X170800057Y-84333333D02*
X170895295Y-84285714D01*
X170895295Y-84285714D02*
X171085771Y-84238095D01*
X171085771Y-84238095D02*
X171323866Y-84238095D01*
X171323866Y-84238095D02*
X171514342Y-84285714D01*
X171514342Y-84285714D02*
X171609580Y-84333333D01*
X171609580Y-84333333D02*
X171657200Y-84380952D01*
X171657200Y-84380952D02*
X171704819Y-84476190D01*
X171704819Y-84476190D02*
X171704819Y-84571428D01*
X171704819Y-84571428D02*
X171657200Y-84666666D01*
X171657200Y-84666666D02*
X171609580Y-84714285D01*
X171609580Y-84714285D02*
X171514342Y-84761904D01*
X171514342Y-84761904D02*
X171323866Y-84809523D01*
X171323866Y-84809523D02*
X171085771Y-84809523D01*
X171085771Y-84809523D02*
X170895295Y-84761904D01*
X170895295Y-84761904D02*
X170800057Y-84714285D01*
X170800057Y-84714285D02*
X170752438Y-84666666D01*
X170752438Y-84666666D02*
X170704819Y-84571428D01*
X148933333Y-92359580D02*
X148885714Y-92407200D01*
X148885714Y-92407200D02*
X148742857Y-92454819D01*
X148742857Y-92454819D02*
X148647619Y-92454819D01*
X148647619Y-92454819D02*
X148504762Y-92407200D01*
X148504762Y-92407200D02*
X148409524Y-92311961D01*
X148409524Y-92311961D02*
X148361905Y-92216723D01*
X148361905Y-92216723D02*
X148314286Y-92026247D01*
X148314286Y-92026247D02*
X148314286Y-91883390D01*
X148314286Y-91883390D02*
X148361905Y-91692914D01*
X148361905Y-91692914D02*
X148409524Y-91597676D01*
X148409524Y-91597676D02*
X148504762Y-91502438D01*
X148504762Y-91502438D02*
X148647619Y-91454819D01*
X148647619Y-91454819D02*
X148742857Y-91454819D01*
X148742857Y-91454819D02*
X148885714Y-91502438D01*
X148885714Y-91502438D02*
X148933333Y-91550057D01*
X149409524Y-92454819D02*
X149600000Y-92454819D01*
X149600000Y-92454819D02*
X149695238Y-92407200D01*
X149695238Y-92407200D02*
X149742857Y-92359580D01*
X149742857Y-92359580D02*
X149838095Y-92216723D01*
X149838095Y-92216723D02*
X149885714Y-92026247D01*
X149885714Y-92026247D02*
X149885714Y-91645295D01*
X149885714Y-91645295D02*
X149838095Y-91550057D01*
X149838095Y-91550057D02*
X149790476Y-91502438D01*
X149790476Y-91502438D02*
X149695238Y-91454819D01*
X149695238Y-91454819D02*
X149504762Y-91454819D01*
X149504762Y-91454819D02*
X149409524Y-91502438D01*
X149409524Y-91502438D02*
X149361905Y-91550057D01*
X149361905Y-91550057D02*
X149314286Y-91645295D01*
X149314286Y-91645295D02*
X149314286Y-91883390D01*
X149314286Y-91883390D02*
X149361905Y-91978628D01*
X149361905Y-91978628D02*
X149409524Y-92026247D01*
X149409524Y-92026247D02*
X149504762Y-92073866D01*
X149504762Y-92073866D02*
X149695238Y-92073866D01*
X149695238Y-92073866D02*
X149790476Y-92026247D01*
X149790476Y-92026247D02*
X149838095Y-91978628D01*
X149838095Y-91978628D02*
X149885714Y-91883390D01*
X168429580Y-85917857D02*
X168477200Y-85965476D01*
X168477200Y-85965476D02*
X168524819Y-86108333D01*
X168524819Y-86108333D02*
X168524819Y-86203571D01*
X168524819Y-86203571D02*
X168477200Y-86346428D01*
X168477200Y-86346428D02*
X168381961Y-86441666D01*
X168381961Y-86441666D02*
X168286723Y-86489285D01*
X168286723Y-86489285D02*
X168096247Y-86536904D01*
X168096247Y-86536904D02*
X167953390Y-86536904D01*
X167953390Y-86536904D02*
X167762914Y-86489285D01*
X167762914Y-86489285D02*
X167667676Y-86441666D01*
X167667676Y-86441666D02*
X167572438Y-86346428D01*
X167572438Y-86346428D02*
X167524819Y-86203571D01*
X167524819Y-86203571D02*
X167524819Y-86108333D01*
X167524819Y-86108333D02*
X167572438Y-85965476D01*
X167572438Y-85965476D02*
X167620057Y-85917857D01*
X168524819Y-84965476D02*
X168524819Y-85536904D01*
X168524819Y-85251190D02*
X167524819Y-85251190D01*
X167524819Y-85251190D02*
X167667676Y-85346428D01*
X167667676Y-85346428D02*
X167762914Y-85441666D01*
X167762914Y-85441666D02*
X167810533Y-85536904D01*
X167620057Y-84584523D02*
X167572438Y-84536904D01*
X167572438Y-84536904D02*
X167524819Y-84441666D01*
X167524819Y-84441666D02*
X167524819Y-84203571D01*
X167524819Y-84203571D02*
X167572438Y-84108333D01*
X167572438Y-84108333D02*
X167620057Y-84060714D01*
X167620057Y-84060714D02*
X167715295Y-84013095D01*
X167715295Y-84013095D02*
X167810533Y-84013095D01*
X167810533Y-84013095D02*
X167953390Y-84060714D01*
X167953390Y-84060714D02*
X168524819Y-84632142D01*
X168524819Y-84632142D02*
X168524819Y-84013095D01*
X135414819Y-117933333D02*
X136129104Y-117933333D01*
X136129104Y-117933333D02*
X136271961Y-117980952D01*
X136271961Y-117980952D02*
X136367200Y-118076190D01*
X136367200Y-118076190D02*
X136414819Y-118219047D01*
X136414819Y-118219047D02*
X136414819Y-118314285D01*
X135414819Y-116980952D02*
X135414819Y-117457142D01*
X135414819Y-117457142D02*
X135891009Y-117504761D01*
X135891009Y-117504761D02*
X135843390Y-117457142D01*
X135843390Y-117457142D02*
X135795771Y-117361904D01*
X135795771Y-117361904D02*
X135795771Y-117123809D01*
X135795771Y-117123809D02*
X135843390Y-117028571D01*
X135843390Y-117028571D02*
X135891009Y-116980952D01*
X135891009Y-116980952D02*
X135986247Y-116933333D01*
X135986247Y-116933333D02*
X136224342Y-116933333D01*
X136224342Y-116933333D02*
X136319580Y-116980952D01*
X136319580Y-116980952D02*
X136367200Y-117028571D01*
X136367200Y-117028571D02*
X136414819Y-117123809D01*
X136414819Y-117123809D02*
X136414819Y-117361904D01*
X136414819Y-117361904D02*
X136367200Y-117457142D01*
X136367200Y-117457142D02*
X136319580Y-117504761D01*
X148657142Y-94159580D02*
X148609523Y-94207200D01*
X148609523Y-94207200D02*
X148466666Y-94254819D01*
X148466666Y-94254819D02*
X148371428Y-94254819D01*
X148371428Y-94254819D02*
X148228571Y-94207200D01*
X148228571Y-94207200D02*
X148133333Y-94111961D01*
X148133333Y-94111961D02*
X148085714Y-94016723D01*
X148085714Y-94016723D02*
X148038095Y-93826247D01*
X148038095Y-93826247D02*
X148038095Y-93683390D01*
X148038095Y-93683390D02*
X148085714Y-93492914D01*
X148085714Y-93492914D02*
X148133333Y-93397676D01*
X148133333Y-93397676D02*
X148228571Y-93302438D01*
X148228571Y-93302438D02*
X148371428Y-93254819D01*
X148371428Y-93254819D02*
X148466666Y-93254819D01*
X148466666Y-93254819D02*
X148609523Y-93302438D01*
X148609523Y-93302438D02*
X148657142Y-93350057D01*
X149609523Y-94254819D02*
X149038095Y-94254819D01*
X149323809Y-94254819D02*
X149323809Y-93254819D01*
X149323809Y-93254819D02*
X149228571Y-93397676D01*
X149228571Y-93397676D02*
X149133333Y-93492914D01*
X149133333Y-93492914D02*
X149038095Y-93540533D01*
X150561904Y-94254819D02*
X149990476Y-94254819D01*
X150276190Y-94254819D02*
X150276190Y-93254819D01*
X150276190Y-93254819D02*
X150180952Y-93397676D01*
X150180952Y-93397676D02*
X150085714Y-93492914D01*
X150085714Y-93492914D02*
X149990476Y-93540533D01*
X122454819Y-93666666D02*
X121978628Y-93999999D01*
X122454819Y-94238094D02*
X121454819Y-94238094D01*
X121454819Y-94238094D02*
X121454819Y-93857142D01*
X121454819Y-93857142D02*
X121502438Y-93761904D01*
X121502438Y-93761904D02*
X121550057Y-93714285D01*
X121550057Y-93714285D02*
X121645295Y-93666666D01*
X121645295Y-93666666D02*
X121788152Y-93666666D01*
X121788152Y-93666666D02*
X121883390Y-93714285D01*
X121883390Y-93714285D02*
X121931009Y-93761904D01*
X121931009Y-93761904D02*
X121978628Y-93857142D01*
X121978628Y-93857142D02*
X121978628Y-94238094D01*
X121454819Y-93333332D02*
X121454819Y-92666666D01*
X121454819Y-92666666D02*
X122454819Y-93095237D01*
X126670833Y-98604819D02*
X126337500Y-98128628D01*
X126099405Y-98604819D02*
X126099405Y-97604819D01*
X126099405Y-97604819D02*
X126480357Y-97604819D01*
X126480357Y-97604819D02*
X126575595Y-97652438D01*
X126575595Y-97652438D02*
X126623214Y-97700057D01*
X126623214Y-97700057D02*
X126670833Y-97795295D01*
X126670833Y-97795295D02*
X126670833Y-97938152D01*
X126670833Y-97938152D02*
X126623214Y-98033390D01*
X126623214Y-98033390D02*
X126575595Y-98081009D01*
X126575595Y-98081009D02*
X126480357Y-98128628D01*
X126480357Y-98128628D02*
X126099405Y-98128628D01*
X127147024Y-98604819D02*
X127337500Y-98604819D01*
X127337500Y-98604819D02*
X127432738Y-98557200D01*
X127432738Y-98557200D02*
X127480357Y-98509580D01*
X127480357Y-98509580D02*
X127575595Y-98366723D01*
X127575595Y-98366723D02*
X127623214Y-98176247D01*
X127623214Y-98176247D02*
X127623214Y-97795295D01*
X127623214Y-97795295D02*
X127575595Y-97700057D01*
X127575595Y-97700057D02*
X127527976Y-97652438D01*
X127527976Y-97652438D02*
X127432738Y-97604819D01*
X127432738Y-97604819D02*
X127242262Y-97604819D01*
X127242262Y-97604819D02*
X127147024Y-97652438D01*
X127147024Y-97652438D02*
X127099405Y-97700057D01*
X127099405Y-97700057D02*
X127051786Y-97795295D01*
X127051786Y-97795295D02*
X127051786Y-98033390D01*
X127051786Y-98033390D02*
X127099405Y-98128628D01*
X127099405Y-98128628D02*
X127147024Y-98176247D01*
X127147024Y-98176247D02*
X127242262Y-98223866D01*
X127242262Y-98223866D02*
X127432738Y-98223866D01*
X127432738Y-98223866D02*
X127527976Y-98176247D01*
X127527976Y-98176247D02*
X127575595Y-98128628D01*
X127575595Y-98128628D02*
X127623214Y-98033390D01*
X102754819Y-62733333D02*
X103469104Y-62733333D01*
X103469104Y-62733333D02*
X103611961Y-62780952D01*
X103611961Y-62780952D02*
X103707200Y-62876190D01*
X103707200Y-62876190D02*
X103754819Y-63019047D01*
X103754819Y-63019047D02*
X103754819Y-63114285D01*
X103754819Y-61733333D02*
X103754819Y-62304761D01*
X103754819Y-62019047D02*
X102754819Y-62019047D01*
X102754819Y-62019047D02*
X102897676Y-62114285D01*
X102897676Y-62114285D02*
X102992914Y-62209523D01*
X102992914Y-62209523D02*
X103040533Y-62304761D01*
X176466666Y-95934819D02*
X176466666Y-96649104D01*
X176466666Y-96649104D02*
X176419047Y-96791961D01*
X176419047Y-96791961D02*
X176323809Y-96887200D01*
X176323809Y-96887200D02*
X176180952Y-96934819D01*
X176180952Y-96934819D02*
X176085714Y-96934819D01*
X177371428Y-96268152D02*
X177371428Y-96934819D01*
X177133333Y-95887200D02*
X176895238Y-96601485D01*
X176895238Y-96601485D02*
X177514285Y-96601485D01*
X126019642Y-88104819D02*
X125686309Y-87628628D01*
X125448214Y-88104819D02*
X125448214Y-87104819D01*
X125448214Y-87104819D02*
X125829166Y-87104819D01*
X125829166Y-87104819D02*
X125924404Y-87152438D01*
X125924404Y-87152438D02*
X125972023Y-87200057D01*
X125972023Y-87200057D02*
X126019642Y-87295295D01*
X126019642Y-87295295D02*
X126019642Y-87438152D01*
X126019642Y-87438152D02*
X125972023Y-87533390D01*
X125972023Y-87533390D02*
X125924404Y-87581009D01*
X125924404Y-87581009D02*
X125829166Y-87628628D01*
X125829166Y-87628628D02*
X125448214Y-87628628D01*
X126972023Y-88104819D02*
X126400595Y-88104819D01*
X126686309Y-88104819D02*
X126686309Y-87104819D01*
X126686309Y-87104819D02*
X126591071Y-87247676D01*
X126591071Y-87247676D02*
X126495833Y-87342914D01*
X126495833Y-87342914D02*
X126400595Y-87390533D01*
X127591071Y-87104819D02*
X127686309Y-87104819D01*
X127686309Y-87104819D02*
X127781547Y-87152438D01*
X127781547Y-87152438D02*
X127829166Y-87200057D01*
X127829166Y-87200057D02*
X127876785Y-87295295D01*
X127876785Y-87295295D02*
X127924404Y-87485771D01*
X127924404Y-87485771D02*
X127924404Y-87723866D01*
X127924404Y-87723866D02*
X127876785Y-87914342D01*
X127876785Y-87914342D02*
X127829166Y-88009580D01*
X127829166Y-88009580D02*
X127781547Y-88057200D01*
X127781547Y-88057200D02*
X127686309Y-88104819D01*
X127686309Y-88104819D02*
X127591071Y-88104819D01*
X127591071Y-88104819D02*
X127495833Y-88057200D01*
X127495833Y-88057200D02*
X127448214Y-88009580D01*
X127448214Y-88009580D02*
X127400595Y-87914342D01*
X127400595Y-87914342D02*
X127352976Y-87723866D01*
X127352976Y-87723866D02*
X127352976Y-87485771D01*
X127352976Y-87485771D02*
X127400595Y-87295295D01*
X127400595Y-87295295D02*
X127448214Y-87200057D01*
X127448214Y-87200057D02*
X127495833Y-87152438D01*
X127495833Y-87152438D02*
X127591071Y-87104819D01*
X129179580Y-93391666D02*
X129227200Y-93439285D01*
X129227200Y-93439285D02*
X129274819Y-93582142D01*
X129274819Y-93582142D02*
X129274819Y-93677380D01*
X129274819Y-93677380D02*
X129227200Y-93820237D01*
X129227200Y-93820237D02*
X129131961Y-93915475D01*
X129131961Y-93915475D02*
X129036723Y-93963094D01*
X129036723Y-93963094D02*
X128846247Y-94010713D01*
X128846247Y-94010713D02*
X128703390Y-94010713D01*
X128703390Y-94010713D02*
X128512914Y-93963094D01*
X128512914Y-93963094D02*
X128417676Y-93915475D01*
X128417676Y-93915475D02*
X128322438Y-93820237D01*
X128322438Y-93820237D02*
X128274819Y-93677380D01*
X128274819Y-93677380D02*
X128274819Y-93582142D01*
X128274819Y-93582142D02*
X128322438Y-93439285D01*
X128322438Y-93439285D02*
X128370057Y-93391666D01*
X128274819Y-93058332D02*
X128274819Y-92391666D01*
X128274819Y-92391666D02*
X129274819Y-92820237D01*
X129438095Y-82254819D02*
X129438095Y-83064342D01*
X129438095Y-83064342D02*
X129485714Y-83159580D01*
X129485714Y-83159580D02*
X129533333Y-83207200D01*
X129533333Y-83207200D02*
X129628571Y-83254819D01*
X129628571Y-83254819D02*
X129819047Y-83254819D01*
X129819047Y-83254819D02*
X129914285Y-83207200D01*
X129914285Y-83207200D02*
X129961904Y-83159580D01*
X129961904Y-83159580D02*
X130009523Y-83064342D01*
X130009523Y-83064342D02*
X130009523Y-82254819D01*
X131009523Y-83254819D02*
X130438095Y-83254819D01*
X130723809Y-83254819D02*
X130723809Y-82254819D01*
X130723809Y-82254819D02*
X130628571Y-82397676D01*
X130628571Y-82397676D02*
X130533333Y-82492914D01*
X130533333Y-82492914D02*
X130438095Y-82540533D01*
X122454819Y-88916666D02*
X121978628Y-89249999D01*
X122454819Y-89488094D02*
X121454819Y-89488094D01*
X121454819Y-89488094D02*
X121454819Y-89107142D01*
X121454819Y-89107142D02*
X121502438Y-89011904D01*
X121502438Y-89011904D02*
X121550057Y-88964285D01*
X121550057Y-88964285D02*
X121645295Y-88916666D01*
X121645295Y-88916666D02*
X121788152Y-88916666D01*
X121788152Y-88916666D02*
X121883390Y-88964285D01*
X121883390Y-88964285D02*
X121931009Y-89011904D01*
X121931009Y-89011904D02*
X121978628Y-89107142D01*
X121978628Y-89107142D02*
X121978628Y-89488094D01*
X121883390Y-88345237D02*
X121835771Y-88440475D01*
X121835771Y-88440475D02*
X121788152Y-88488094D01*
X121788152Y-88488094D02*
X121692914Y-88535713D01*
X121692914Y-88535713D02*
X121645295Y-88535713D01*
X121645295Y-88535713D02*
X121550057Y-88488094D01*
X121550057Y-88488094D02*
X121502438Y-88440475D01*
X121502438Y-88440475D02*
X121454819Y-88345237D01*
X121454819Y-88345237D02*
X121454819Y-88154761D01*
X121454819Y-88154761D02*
X121502438Y-88059523D01*
X121502438Y-88059523D02*
X121550057Y-88011904D01*
X121550057Y-88011904D02*
X121645295Y-87964285D01*
X121645295Y-87964285D02*
X121692914Y-87964285D01*
X121692914Y-87964285D02*
X121788152Y-88011904D01*
X121788152Y-88011904D02*
X121835771Y-88059523D01*
X121835771Y-88059523D02*
X121883390Y-88154761D01*
X121883390Y-88154761D02*
X121883390Y-88345237D01*
X121883390Y-88345237D02*
X121931009Y-88440475D01*
X121931009Y-88440475D02*
X121978628Y-88488094D01*
X121978628Y-88488094D02*
X122073866Y-88535713D01*
X122073866Y-88535713D02*
X122264342Y-88535713D01*
X122264342Y-88535713D02*
X122359580Y-88488094D01*
X122359580Y-88488094D02*
X122407200Y-88440475D01*
X122407200Y-88440475D02*
X122454819Y-88345237D01*
X122454819Y-88345237D02*
X122454819Y-88154761D01*
X122454819Y-88154761D02*
X122407200Y-88059523D01*
X122407200Y-88059523D02*
X122359580Y-88011904D01*
X122359580Y-88011904D02*
X122264342Y-87964285D01*
X122264342Y-87964285D02*
X122073866Y-87964285D01*
X122073866Y-87964285D02*
X121978628Y-88011904D01*
X121978628Y-88011904D02*
X121931009Y-88059523D01*
X121931009Y-88059523D02*
X121883390Y-88154761D01*
X116054819Y-114079166D02*
X115578628Y-114412499D01*
X116054819Y-114650594D02*
X115054819Y-114650594D01*
X115054819Y-114650594D02*
X115054819Y-114269642D01*
X115054819Y-114269642D02*
X115102438Y-114174404D01*
X115102438Y-114174404D02*
X115150057Y-114126785D01*
X115150057Y-114126785D02*
X115245295Y-114079166D01*
X115245295Y-114079166D02*
X115388152Y-114079166D01*
X115388152Y-114079166D02*
X115483390Y-114126785D01*
X115483390Y-114126785D02*
X115531009Y-114174404D01*
X115531009Y-114174404D02*
X115578628Y-114269642D01*
X115578628Y-114269642D02*
X115578628Y-114650594D01*
X115054819Y-113745832D02*
X115054819Y-113126785D01*
X115054819Y-113126785D02*
X115435771Y-113460118D01*
X115435771Y-113460118D02*
X115435771Y-113317261D01*
X115435771Y-113317261D02*
X115483390Y-113222023D01*
X115483390Y-113222023D02*
X115531009Y-113174404D01*
X115531009Y-113174404D02*
X115626247Y-113126785D01*
X115626247Y-113126785D02*
X115864342Y-113126785D01*
X115864342Y-113126785D02*
X115959580Y-113174404D01*
X115959580Y-113174404D02*
X116007200Y-113222023D01*
X116007200Y-113222023D02*
X116054819Y-113317261D01*
X116054819Y-113317261D02*
X116054819Y-113602975D01*
X116054819Y-113602975D02*
X116007200Y-113698213D01*
X116007200Y-113698213D02*
X115959580Y-113745832D01*
X165382142Y-99929580D02*
X165334523Y-99977200D01*
X165334523Y-99977200D02*
X165191666Y-100024819D01*
X165191666Y-100024819D02*
X165096428Y-100024819D01*
X165096428Y-100024819D02*
X164953571Y-99977200D01*
X164953571Y-99977200D02*
X164858333Y-99881961D01*
X164858333Y-99881961D02*
X164810714Y-99786723D01*
X164810714Y-99786723D02*
X164763095Y-99596247D01*
X164763095Y-99596247D02*
X164763095Y-99453390D01*
X164763095Y-99453390D02*
X164810714Y-99262914D01*
X164810714Y-99262914D02*
X164858333Y-99167676D01*
X164858333Y-99167676D02*
X164953571Y-99072438D01*
X164953571Y-99072438D02*
X165096428Y-99024819D01*
X165096428Y-99024819D02*
X165191666Y-99024819D01*
X165191666Y-99024819D02*
X165334523Y-99072438D01*
X165334523Y-99072438D02*
X165382142Y-99120057D01*
X166334523Y-100024819D02*
X165763095Y-100024819D01*
X166048809Y-100024819D02*
X166048809Y-99024819D01*
X166048809Y-99024819D02*
X165953571Y-99167676D01*
X165953571Y-99167676D02*
X165858333Y-99262914D01*
X165858333Y-99262914D02*
X165763095Y-99310533D01*
X166667857Y-99024819D02*
X167286904Y-99024819D01*
X167286904Y-99024819D02*
X166953571Y-99405771D01*
X166953571Y-99405771D02*
X167096428Y-99405771D01*
X167096428Y-99405771D02*
X167191666Y-99453390D01*
X167191666Y-99453390D02*
X167239285Y-99501009D01*
X167239285Y-99501009D02*
X167286904Y-99596247D01*
X167286904Y-99596247D02*
X167286904Y-99834342D01*
X167286904Y-99834342D02*
X167239285Y-99929580D01*
X167239285Y-99929580D02*
X167191666Y-99977200D01*
X167191666Y-99977200D02*
X167096428Y-100024819D01*
X167096428Y-100024819D02*
X166810714Y-100024819D01*
X166810714Y-100024819D02*
X166715476Y-99977200D01*
X166715476Y-99977200D02*
X166667857Y-99929580D01*
X120454819Y-92261904D02*
X120454819Y-91690476D01*
X121454819Y-91976190D02*
X120454819Y-91976190D01*
X121454819Y-90785714D02*
X120978628Y-91119047D01*
X121454819Y-91357142D02*
X120454819Y-91357142D01*
X120454819Y-91357142D02*
X120454819Y-90976190D01*
X120454819Y-90976190D02*
X120502438Y-90880952D01*
X120502438Y-90880952D02*
X120550057Y-90833333D01*
X120550057Y-90833333D02*
X120645295Y-90785714D01*
X120645295Y-90785714D02*
X120788152Y-90785714D01*
X120788152Y-90785714D02*
X120883390Y-90833333D01*
X120883390Y-90833333D02*
X120931009Y-90880952D01*
X120931009Y-90880952D02*
X120978628Y-90976190D01*
X120978628Y-90976190D02*
X120978628Y-91357142D01*
X121454819Y-89833333D02*
X121454819Y-90404761D01*
X121454819Y-90119047D02*
X120454819Y-90119047D01*
X120454819Y-90119047D02*
X120597676Y-90214285D01*
X120597676Y-90214285D02*
X120692914Y-90309523D01*
X120692914Y-90309523D02*
X120740533Y-90404761D01*
X120670833Y-119104819D02*
X120337500Y-118628628D01*
X120099405Y-119104819D02*
X120099405Y-118104819D01*
X120099405Y-118104819D02*
X120480357Y-118104819D01*
X120480357Y-118104819D02*
X120575595Y-118152438D01*
X120575595Y-118152438D02*
X120623214Y-118200057D01*
X120623214Y-118200057D02*
X120670833Y-118295295D01*
X120670833Y-118295295D02*
X120670833Y-118438152D01*
X120670833Y-118438152D02*
X120623214Y-118533390D01*
X120623214Y-118533390D02*
X120575595Y-118581009D01*
X120575595Y-118581009D02*
X120480357Y-118628628D01*
X120480357Y-118628628D02*
X120099405Y-118628628D01*
X121575595Y-118104819D02*
X121099405Y-118104819D01*
X121099405Y-118104819D02*
X121051786Y-118581009D01*
X121051786Y-118581009D02*
X121099405Y-118533390D01*
X121099405Y-118533390D02*
X121194643Y-118485771D01*
X121194643Y-118485771D02*
X121432738Y-118485771D01*
X121432738Y-118485771D02*
X121527976Y-118533390D01*
X121527976Y-118533390D02*
X121575595Y-118581009D01*
X121575595Y-118581009D02*
X121623214Y-118676247D01*
X121623214Y-118676247D02*
X121623214Y-118914342D01*
X121623214Y-118914342D02*
X121575595Y-119009580D01*
X121575595Y-119009580D02*
X121527976Y-119057200D01*
X121527976Y-119057200D02*
X121432738Y-119104819D01*
X121432738Y-119104819D02*
X121194643Y-119104819D01*
X121194643Y-119104819D02*
X121099405Y-119057200D01*
X121099405Y-119057200D02*
X121051786Y-119009580D01*
X134839580Y-110016666D02*
X134887200Y-110064285D01*
X134887200Y-110064285D02*
X134934819Y-110207142D01*
X134934819Y-110207142D02*
X134934819Y-110302380D01*
X134934819Y-110302380D02*
X134887200Y-110445237D01*
X134887200Y-110445237D02*
X134791961Y-110540475D01*
X134791961Y-110540475D02*
X134696723Y-110588094D01*
X134696723Y-110588094D02*
X134506247Y-110635713D01*
X134506247Y-110635713D02*
X134363390Y-110635713D01*
X134363390Y-110635713D02*
X134172914Y-110588094D01*
X134172914Y-110588094D02*
X134077676Y-110540475D01*
X134077676Y-110540475D02*
X133982438Y-110445237D01*
X133982438Y-110445237D02*
X133934819Y-110302380D01*
X133934819Y-110302380D02*
X133934819Y-110207142D01*
X133934819Y-110207142D02*
X133982438Y-110064285D01*
X133982438Y-110064285D02*
X134030057Y-110016666D01*
X134934819Y-109064285D02*
X134934819Y-109635713D01*
X134934819Y-109349999D02*
X133934819Y-109349999D01*
X133934819Y-109349999D02*
X134077676Y-109445237D01*
X134077676Y-109445237D02*
X134172914Y-109540475D01*
X134172914Y-109540475D02*
X134220533Y-109635713D01*
X134839580Y-102216666D02*
X134887200Y-102264285D01*
X134887200Y-102264285D02*
X134934819Y-102407142D01*
X134934819Y-102407142D02*
X134934819Y-102502380D01*
X134934819Y-102502380D02*
X134887200Y-102645237D01*
X134887200Y-102645237D02*
X134791961Y-102740475D01*
X134791961Y-102740475D02*
X134696723Y-102788094D01*
X134696723Y-102788094D02*
X134506247Y-102835713D01*
X134506247Y-102835713D02*
X134363390Y-102835713D01*
X134363390Y-102835713D02*
X134172914Y-102788094D01*
X134172914Y-102788094D02*
X134077676Y-102740475D01*
X134077676Y-102740475D02*
X133982438Y-102645237D01*
X133982438Y-102645237D02*
X133934819Y-102502380D01*
X133934819Y-102502380D02*
X133934819Y-102407142D01*
X133934819Y-102407142D02*
X133982438Y-102264285D01*
X133982438Y-102264285D02*
X134030057Y-102216666D01*
X134030057Y-101835713D02*
X133982438Y-101788094D01*
X133982438Y-101788094D02*
X133934819Y-101692856D01*
X133934819Y-101692856D02*
X133934819Y-101454761D01*
X133934819Y-101454761D02*
X133982438Y-101359523D01*
X133982438Y-101359523D02*
X134030057Y-101311904D01*
X134030057Y-101311904D02*
X134125295Y-101264285D01*
X134125295Y-101264285D02*
X134220533Y-101264285D01*
X134220533Y-101264285D02*
X134363390Y-101311904D01*
X134363390Y-101311904D02*
X134934819Y-101883332D01*
X134934819Y-101883332D02*
X134934819Y-101264285D01*
X123589580Y-107591666D02*
X123637200Y-107639285D01*
X123637200Y-107639285D02*
X123684819Y-107782142D01*
X123684819Y-107782142D02*
X123684819Y-107877380D01*
X123684819Y-107877380D02*
X123637200Y-108020237D01*
X123637200Y-108020237D02*
X123541961Y-108115475D01*
X123541961Y-108115475D02*
X123446723Y-108163094D01*
X123446723Y-108163094D02*
X123256247Y-108210713D01*
X123256247Y-108210713D02*
X123113390Y-108210713D01*
X123113390Y-108210713D02*
X122922914Y-108163094D01*
X122922914Y-108163094D02*
X122827676Y-108115475D01*
X122827676Y-108115475D02*
X122732438Y-108020237D01*
X122732438Y-108020237D02*
X122684819Y-107877380D01*
X122684819Y-107877380D02*
X122684819Y-107782142D01*
X122684819Y-107782142D02*
X122732438Y-107639285D01*
X122732438Y-107639285D02*
X122780057Y-107591666D01*
X122684819Y-106686904D02*
X122684819Y-107163094D01*
X122684819Y-107163094D02*
X123161009Y-107210713D01*
X123161009Y-107210713D02*
X123113390Y-107163094D01*
X123113390Y-107163094D02*
X123065771Y-107067856D01*
X123065771Y-107067856D02*
X123065771Y-106829761D01*
X123065771Y-106829761D02*
X123113390Y-106734523D01*
X123113390Y-106734523D02*
X123161009Y-106686904D01*
X123161009Y-106686904D02*
X123256247Y-106639285D01*
X123256247Y-106639285D02*
X123494342Y-106639285D01*
X123494342Y-106639285D02*
X123589580Y-106686904D01*
X123589580Y-106686904D02*
X123637200Y-106734523D01*
X123637200Y-106734523D02*
X123684819Y-106829761D01*
X123684819Y-106829761D02*
X123684819Y-107067856D01*
X123684819Y-107067856D02*
X123637200Y-107163094D01*
X123637200Y-107163094D02*
X123589580Y-107210713D01*
X165382142Y-107989580D02*
X165334523Y-108037200D01*
X165334523Y-108037200D02*
X165191666Y-108084819D01*
X165191666Y-108084819D02*
X165096428Y-108084819D01*
X165096428Y-108084819D02*
X164953571Y-108037200D01*
X164953571Y-108037200D02*
X164858333Y-107941961D01*
X164858333Y-107941961D02*
X164810714Y-107846723D01*
X164810714Y-107846723D02*
X164763095Y-107656247D01*
X164763095Y-107656247D02*
X164763095Y-107513390D01*
X164763095Y-107513390D02*
X164810714Y-107322914D01*
X164810714Y-107322914D02*
X164858333Y-107227676D01*
X164858333Y-107227676D02*
X164953571Y-107132438D01*
X164953571Y-107132438D02*
X165096428Y-107084819D01*
X165096428Y-107084819D02*
X165191666Y-107084819D01*
X165191666Y-107084819D02*
X165334523Y-107132438D01*
X165334523Y-107132438D02*
X165382142Y-107180057D01*
X166334523Y-108084819D02*
X165763095Y-108084819D01*
X166048809Y-108084819D02*
X166048809Y-107084819D01*
X166048809Y-107084819D02*
X165953571Y-107227676D01*
X165953571Y-107227676D02*
X165858333Y-107322914D01*
X165858333Y-107322914D02*
X165763095Y-107370533D01*
X167191666Y-107418152D02*
X167191666Y-108084819D01*
X166953571Y-107037200D02*
X166715476Y-107751485D01*
X166715476Y-107751485D02*
X167334523Y-107751485D01*
X101284819Y-110833333D02*
X101999104Y-110833333D01*
X101999104Y-110833333D02*
X102141961Y-110880952D01*
X102141961Y-110880952D02*
X102237200Y-110976190D01*
X102237200Y-110976190D02*
X102284819Y-111119047D01*
X102284819Y-111119047D02*
X102284819Y-111214285D01*
X101380057Y-110404761D02*
X101332438Y-110357142D01*
X101332438Y-110357142D02*
X101284819Y-110261904D01*
X101284819Y-110261904D02*
X101284819Y-110023809D01*
X101284819Y-110023809D02*
X101332438Y-109928571D01*
X101332438Y-109928571D02*
X101380057Y-109880952D01*
X101380057Y-109880952D02*
X101475295Y-109833333D01*
X101475295Y-109833333D02*
X101570533Y-109833333D01*
X101570533Y-109833333D02*
X101713390Y-109880952D01*
X101713390Y-109880952D02*
X102284819Y-110452380D01*
X102284819Y-110452380D02*
X102284819Y-109833333D01*
X157669580Y-87642857D02*
X157717200Y-87690476D01*
X157717200Y-87690476D02*
X157764819Y-87833333D01*
X157764819Y-87833333D02*
X157764819Y-87928571D01*
X157764819Y-87928571D02*
X157717200Y-88071428D01*
X157717200Y-88071428D02*
X157621961Y-88166666D01*
X157621961Y-88166666D02*
X157526723Y-88214285D01*
X157526723Y-88214285D02*
X157336247Y-88261904D01*
X157336247Y-88261904D02*
X157193390Y-88261904D01*
X157193390Y-88261904D02*
X157002914Y-88214285D01*
X157002914Y-88214285D02*
X156907676Y-88166666D01*
X156907676Y-88166666D02*
X156812438Y-88071428D01*
X156812438Y-88071428D02*
X156764819Y-87928571D01*
X156764819Y-87928571D02*
X156764819Y-87833333D01*
X156764819Y-87833333D02*
X156812438Y-87690476D01*
X156812438Y-87690476D02*
X156860057Y-87642857D01*
X157764819Y-86690476D02*
X157764819Y-87261904D01*
X157764819Y-86976190D02*
X156764819Y-86976190D01*
X156764819Y-86976190D02*
X156907676Y-87071428D01*
X156907676Y-87071428D02*
X157002914Y-87166666D01*
X157002914Y-87166666D02*
X157050533Y-87261904D01*
X156764819Y-85785714D02*
X156764819Y-86261904D01*
X156764819Y-86261904D02*
X157241009Y-86309523D01*
X157241009Y-86309523D02*
X157193390Y-86261904D01*
X157193390Y-86261904D02*
X157145771Y-86166666D01*
X157145771Y-86166666D02*
X157145771Y-85928571D01*
X157145771Y-85928571D02*
X157193390Y-85833333D01*
X157193390Y-85833333D02*
X157241009Y-85785714D01*
X157241009Y-85785714D02*
X157336247Y-85738095D01*
X157336247Y-85738095D02*
X157574342Y-85738095D01*
X157574342Y-85738095D02*
X157669580Y-85785714D01*
X157669580Y-85785714D02*
X157717200Y-85833333D01*
X157717200Y-85833333D02*
X157764819Y-85928571D01*
X157764819Y-85928571D02*
X157764819Y-86166666D01*
X157764819Y-86166666D02*
X157717200Y-86261904D01*
X157717200Y-86261904D02*
X157669580Y-86309523D01*
%TO.C,J3*%
D11*
X175520000Y-89820000D02*
X176900000Y-89820000D01*
X175520000Y-91200000D02*
X175520000Y-89820000D01*
X175520000Y-92470000D02*
X175520000Y-95120000D01*
X175520000Y-92470000D02*
X178280000Y-92470000D01*
X175520000Y-95120000D02*
X178280000Y-95120000D01*
X178280000Y-92470000D02*
X178280000Y-95120000D01*
%TO.C,U4*%
X172415000Y-108145000D02*
X176535000Y-108145000D01*
X172415000Y-108240000D02*
X172415000Y-108145000D01*
X172415000Y-113265000D02*
X172415000Y-113170000D01*
X176535000Y-108145000D02*
X176535000Y-108240000D01*
X176535000Y-113170000D02*
X176535000Y-113265000D01*
X176535000Y-113265000D02*
X172415000Y-113265000D01*
X171875000Y-108235000D02*
X171635000Y-107905000D01*
X172115000Y-107905000D01*
X171875000Y-108235000D01*
G36*
X171875000Y-108235000D02*
G01*
X171635000Y-107905000D01*
X172115000Y-107905000D01*
X171875000Y-108235000D01*
G37*
%TO.C,R13*%
X177635000Y-116560436D02*
X177635000Y-117014564D01*
X176165000Y-116560436D02*
X176165000Y-117014564D01*
%TO.C,R12*%
X174235000Y-116560436D02*
X174235000Y-117014564D01*
X172765000Y-116560436D02*
X172765000Y-117014564D01*
%TO.C,C17*%
X176684420Y-105290000D02*
X176965580Y-105290000D01*
X176684420Y-106310000D02*
X176965580Y-106310000D01*
%TO.C,Y1*%
X157365000Y-106885000D02*
X157365000Y-100635000D01*
X162235000Y-100635000D02*
X162235000Y-106885000D01*
X157365000Y-100635000D02*
G75*
G02*
X162235000Y-100635000I2435000J0D01*
G01*
X162235000Y-106885000D02*
G75*
G02*
X157365000Y-106885000I-2435000J0D01*
G01*
%TO.C,C4*%
X115830000Y-50830000D02*
X120381000Y-50830000D01*
X115830000Y-67570000D02*
X115830000Y-50830000D01*
X120381000Y-67570000D02*
X115830000Y-67570000D01*
X122419000Y-50830000D02*
X126970000Y-50830000D01*
X126970000Y-50830000D02*
X126970000Y-67570000D01*
X126970000Y-67570000D02*
X122419000Y-67570000D01*
%TO.C,U2*%
X143440000Y-100190000D02*
X148960000Y-100190000D01*
X143440000Y-100715000D02*
X143440000Y-100190000D01*
X143440000Y-110610000D02*
X143440000Y-110085000D01*
X148960000Y-100190000D02*
X148960000Y-100715000D01*
X148960000Y-110085000D02*
X148960000Y-110610000D01*
X148960000Y-110610000D02*
X143440000Y-110610000D01*
X142700000Y-100710000D02*
X142360000Y-100240000D01*
X143040000Y-100240000D01*
X142700000Y-100710000D01*
G36*
X142700000Y-100710000D02*
G01*
X142360000Y-100240000D01*
X143040000Y-100240000D01*
X142700000Y-100710000D01*
G37*
%TO.C,C6*%
X121290000Y-113284420D02*
X121290000Y-113565580D01*
X122310000Y-113284420D02*
X122310000Y-113565580D01*
%TO.C,R1*%
X104580000Y-74000000D02*
X105450000Y-74000000D01*
X124560000Y-74000000D02*
X123690000Y-74000000D01*
X105450000Y-69380000D02*
X123690000Y-69380000D01*
X123690000Y-78620000D01*
X105450000Y-78620000D01*
X105450000Y-69380000D01*
%TO.C,R6*%
X130335000Y-101860436D02*
X130335000Y-102314564D01*
X128865000Y-101860436D02*
X128865000Y-102314564D01*
%TO.C,C3*%
X130310000Y-109484420D02*
X130310000Y-109765580D01*
X129290000Y-109484420D02*
X129290000Y-109765580D01*
%TO.C,R4*%
X121139564Y-103015000D02*
X120685436Y-103015000D01*
X121139564Y-104485000D02*
X120685436Y-104485000D01*
%TO.C,C16*%
X150490000Y-86584420D02*
X150490000Y-86865580D01*
X151510000Y-86584420D02*
X151510000Y-86865580D01*
%TO.C,RV1*%
D10*
X101250000Y-67650000D02*
X101250000Y-63750000D01*
X113250000Y-63750000D02*
X101250000Y-63750000D01*
X113250000Y-67650000D02*
X101250000Y-67650000D01*
X113250000Y-67650000D02*
X113250000Y-63750000D01*
%TO.C,U3*%
D11*
X158090000Y-86500000D02*
X158090000Y-90260000D01*
X158090000Y-90260000D02*
X159350000Y-90260000D01*
X164910000Y-86500000D02*
X164910000Y-90260000D01*
X164910000Y-90260000D02*
X163650000Y-90260000D01*
X164810000Y-85220000D02*
X165140000Y-84980000D01*
X165140000Y-85460000D01*
X164810000Y-85220000D01*
G36*
X165140000Y-85460000D02*
G01*
X164810000Y-85220000D01*
X165140000Y-84980000D01*
X165140000Y-85460000D01*
G37*
%TO.C,R11*%
X142639564Y-92735000D02*
X142185436Y-92735000D01*
X142639564Y-91265000D02*
X142185436Y-91265000D01*
%TO.C,R2*%
X116515000Y-106889564D02*
X116515000Y-106435436D01*
X117985000Y-106889564D02*
X117985000Y-106435436D01*
%TO.C,C8*%
X129740000Y-88665580D02*
X129740000Y-88384420D01*
X130760000Y-88665580D02*
X130760000Y-88384420D01*
%TO.C,TP1*%
X147700000Y-86000000D02*
G75*
G02*
X146300000Y-86000000I-700000J0D01*
G01*
X146300000Y-86000000D02*
G75*
G02*
X147700000Y-86000000I700000J0D01*
G01*
%TO.C,C10*%
X172420000Y-85460000D02*
X173960000Y-85460000D01*
X172420000Y-85500000D02*
X173960000Y-85500000D01*
X172421000Y-85420000D02*
X173960000Y-85420000D01*
X172423000Y-85380000D02*
X173960000Y-85380000D01*
X172425000Y-85340000D02*
X173960000Y-85340000D01*
X172428000Y-85300000D02*
X173960000Y-85300000D01*
X172431000Y-85260000D02*
X173960000Y-85260000D01*
X172435000Y-85220000D02*
X173960000Y-85220000D01*
X172440000Y-85180000D02*
X173960000Y-85180000D01*
X172445000Y-85140000D02*
X173960000Y-85140000D01*
X172451000Y-85100000D02*
X173960000Y-85100000D01*
X172457000Y-85060000D02*
X173960000Y-85060000D01*
X172464000Y-85020000D02*
X173960000Y-85020000D01*
X172472000Y-84980000D02*
X173960000Y-84980000D01*
X172481000Y-84940000D02*
X173960000Y-84940000D01*
X172490000Y-84900000D02*
X173960000Y-84900000D01*
X172499000Y-84860000D02*
X173960000Y-84860000D01*
X172510000Y-84820000D02*
X173960000Y-84820000D01*
X172521000Y-84780000D02*
X173960000Y-84780000D01*
X172533000Y-84740000D02*
X173960000Y-84740000D01*
X172545000Y-84700000D02*
X173960000Y-84700000D01*
X172558000Y-84660000D02*
X173960000Y-84660000D01*
X172572000Y-84620000D02*
X173960000Y-84620000D01*
X172587000Y-84580000D02*
X173960000Y-84580000D01*
X172602000Y-84540000D02*
X173960000Y-84540000D01*
X172618000Y-84500000D02*
X173960000Y-84500000D01*
X172635000Y-84460000D02*
X173960000Y-84460000D01*
X172653000Y-84420000D02*
X173960000Y-84420000D01*
X172671000Y-84380000D02*
X173960000Y-84380000D01*
X172691000Y-84340000D02*
X173960000Y-84340000D01*
X172711000Y-84300000D02*
X173960000Y-84300000D01*
X172732000Y-84260000D02*
X173960000Y-84260000D01*
X172754000Y-84220000D02*
X173960000Y-84220000D01*
X172777000Y-84180000D02*
X173960000Y-84180000D01*
X172801000Y-84140000D02*
X173960000Y-84140000D01*
X172825000Y-84100000D02*
X173960000Y-84100000D01*
X172851000Y-84060000D02*
X173960000Y-84060000D01*
X172878000Y-84020000D02*
X173960000Y-84020000D01*
X172906000Y-83980000D02*
X173960000Y-83980000D01*
X172935000Y-83940000D02*
X173960000Y-83940000D01*
X172965000Y-83900000D02*
X173960000Y-83900000D01*
X172997000Y-83860000D02*
X173960000Y-83860000D01*
X173030000Y-83820000D02*
X173960000Y-83820000D01*
X173064000Y-83780000D02*
X173960000Y-83780000D01*
X173099000Y-83740000D02*
X173960000Y-83740000D01*
X173136000Y-83700000D02*
X173960000Y-83700000D01*
X173175000Y-83660000D02*
X173960000Y-83660000D01*
X173215000Y-83620000D02*
X173960000Y-83620000D01*
X173257000Y-83580000D02*
X173960000Y-83580000D01*
X173275000Y-88054775D02*
X173775000Y-88054775D01*
X173301000Y-83540000D02*
X173960000Y-83540000D01*
X173348000Y-83500000D02*
X173960000Y-83500000D01*
X173396000Y-83460000D02*
X176604000Y-83460000D01*
X173447000Y-83420000D02*
X176553000Y-83420000D01*
X173501000Y-83380000D02*
X176499000Y-83380000D01*
X173525000Y-88304775D02*
X173525000Y-87804775D01*
X173557000Y-83340000D02*
X176443000Y-83340000D01*
X173617000Y-83300000D02*
X176383000Y-83300000D01*
X173681000Y-83260000D02*
X176319000Y-83260000D01*
X173749000Y-83220000D02*
X176251000Y-83220000D01*
X173823000Y-83180000D02*
X176177000Y-83180000D01*
X173902000Y-83140000D02*
X176098000Y-83140000D01*
X173989000Y-83100000D02*
X176011000Y-83100000D01*
X174086000Y-83060000D02*
X175914000Y-83060000D01*
X174195000Y-83020000D02*
X175805000Y-83020000D01*
X174323000Y-82980000D02*
X175677000Y-82980000D01*
X174483000Y-82940000D02*
X175517000Y-82940000D01*
X174717000Y-82900000D02*
X175283000Y-82900000D01*
X176040000Y-83500000D02*
X176652000Y-83500000D01*
X176040000Y-83540000D02*
X176699000Y-83540000D01*
X176040000Y-83580000D02*
X176743000Y-83580000D01*
X176040000Y-83620000D02*
X176785000Y-83620000D01*
X176040000Y-83660000D02*
X176825000Y-83660000D01*
X176040000Y-83700000D02*
X176864000Y-83700000D01*
X176040000Y-83740000D02*
X176901000Y-83740000D01*
X176040000Y-83780000D02*
X176936000Y-83780000D01*
X176040000Y-83820000D02*
X176970000Y-83820000D01*
X176040000Y-83860000D02*
X177003000Y-83860000D01*
X176040000Y-83900000D02*
X177035000Y-83900000D01*
X176040000Y-83940000D02*
X177065000Y-83940000D01*
X176040000Y-83980000D02*
X177094000Y-83980000D01*
X176040000Y-84020000D02*
X177122000Y-84020000D01*
X176040000Y-84060000D02*
X177149000Y-84060000D01*
X176040000Y-84100000D02*
X177175000Y-84100000D01*
X176040000Y-84140000D02*
X177199000Y-84140000D01*
X176040000Y-84180000D02*
X177223000Y-84180000D01*
X176040000Y-84220000D02*
X177246000Y-84220000D01*
X176040000Y-84260000D02*
X177268000Y-84260000D01*
X176040000Y-84300000D02*
X177289000Y-84300000D01*
X176040000Y-84340000D02*
X177309000Y-84340000D01*
X176040000Y-84380000D02*
X177329000Y-84380000D01*
X176040000Y-84420000D02*
X177347000Y-84420000D01*
X176040000Y-84460000D02*
X177365000Y-84460000D01*
X176040000Y-84500000D02*
X177382000Y-84500000D01*
X176040000Y-84540000D02*
X177398000Y-84540000D01*
X176040000Y-84580000D02*
X177413000Y-84580000D01*
X176040000Y-84620000D02*
X177428000Y-84620000D01*
X176040000Y-84660000D02*
X177442000Y-84660000D01*
X176040000Y-84700000D02*
X177455000Y-84700000D01*
X176040000Y-84740000D02*
X177467000Y-84740000D01*
X176040000Y-84780000D02*
X177479000Y-84780000D01*
X176040000Y-84820000D02*
X177490000Y-84820000D01*
X176040000Y-84860000D02*
X177501000Y-84860000D01*
X176040000Y-84900000D02*
X177510000Y-84900000D01*
X176040000Y-84940000D02*
X177519000Y-84940000D01*
X176040000Y-84980000D02*
X177528000Y-84980000D01*
X176040000Y-85020000D02*
X177536000Y-85020000D01*
X176040000Y-85060000D02*
X177543000Y-85060000D01*
X176040000Y-85100000D02*
X177549000Y-85100000D01*
X176040000Y-85140000D02*
X177555000Y-85140000D01*
X176040000Y-85180000D02*
X177560000Y-85180000D01*
X176040000Y-85220000D02*
X177565000Y-85220000D01*
X176040000Y-85260000D02*
X177569000Y-85260000D01*
X176040000Y-85300000D02*
X177572000Y-85300000D01*
X176040000Y-85340000D02*
X177575000Y-85340000D01*
X176040000Y-85380000D02*
X177577000Y-85380000D01*
X176040000Y-85420000D02*
X177579000Y-85420000D01*
X176040000Y-85460000D02*
X177580000Y-85460000D01*
X176040000Y-85500000D02*
X177580000Y-85500000D01*
X177620000Y-85500000D02*
G75*
G02*
X172380000Y-85500000I-2620000J0D01*
G01*
X172380000Y-85500000D02*
G75*
G02*
X177620000Y-85500000I2620000J0D01*
G01*
%TO.C,C9*%
X146088748Y-91265000D02*
X146611252Y-91265000D01*
X146088748Y-92735000D02*
X146611252Y-92735000D01*
%TO.C,C12*%
X168990000Y-85415580D02*
X168990000Y-85134420D01*
X170010000Y-85415580D02*
X170010000Y-85134420D01*
%TO.C,J5*%
X136960000Y-118980000D02*
X136960000Y-117600000D01*
X138340000Y-118980000D02*
X136960000Y-118980000D01*
X139610000Y-118980000D02*
X162580000Y-118980000D01*
X139610000Y-118980000D02*
X139610000Y-116220000D01*
X162580000Y-118980000D02*
X162580000Y-116220000D01*
X139610000Y-116220000D02*
X162580000Y-116220000D01*
%TO.C,C11*%
X146184420Y-93290000D02*
X146465580Y-93290000D01*
X146184420Y-94310000D02*
X146465580Y-94310000D01*
%TO.C,R7*%
X122765000Y-93110436D02*
X122765000Y-93564564D01*
X124235000Y-93110436D02*
X124235000Y-93564564D01*
%TO.C,R9*%
X127064564Y-97235000D02*
X126610436Y-97235000D01*
X127064564Y-95765000D02*
X126610436Y-95765000D01*
%TO.C,J1*%
X101580000Y-50880000D02*
X112020000Y-50880000D01*
X101580000Y-61120000D02*
X101580000Y-50880000D01*
X110300000Y-61120000D02*
X110300000Y-50880000D01*
X111400000Y-61120000D02*
X111400000Y-50880000D01*
X112020000Y-50880000D02*
X112020000Y-58200000D01*
X112020000Y-58800000D02*
X112020000Y-61120000D01*
X112020000Y-61120000D02*
X101580000Y-61120000D01*
X112020000Y-58500000D02*
X112630000Y-58060000D01*
X112630000Y-58940000D01*
X112020000Y-58500000D01*
G36*
X112630000Y-58940000D02*
G01*
X112020000Y-58500000D01*
X112630000Y-58060000D01*
X112630000Y-58940000D01*
G37*
%TO.C,J4*%
X175420000Y-97480000D02*
X176800000Y-97480000D01*
X175420000Y-98860000D02*
X175420000Y-97480000D01*
X175420000Y-100130000D02*
X175420000Y-102780000D01*
X175420000Y-100130000D02*
X178180000Y-100130000D01*
X175420000Y-102780000D02*
X178180000Y-102780000D01*
X178180000Y-100130000D02*
X178180000Y-102780000D01*
%TO.C,R10*%
X126889564Y-85265000D02*
X126435436Y-85265000D01*
X126889564Y-86735000D02*
X126435436Y-86735000D01*
%TO.C,C7*%
X129740000Y-93365580D02*
X129740000Y-93084420D01*
X130760000Y-93365580D02*
X130760000Y-93084420D01*
%TO.C,U1*%
X129390000Y-50840000D02*
X179110000Y-50840000D01*
X129390000Y-62004000D02*
X129390000Y-50840000D01*
X129390000Y-81560000D02*
X129390000Y-62596000D01*
X179110000Y-50840000D02*
X179110000Y-81560000D01*
X179110000Y-81560000D02*
X129390000Y-81560000D01*
X129390000Y-62300000D02*
X128780000Y-62740000D01*
X128780000Y-61860000D01*
X129390000Y-62300000D01*
G36*
X129390000Y-62300000D02*
G01*
X128780000Y-62740000D01*
X128780000Y-61860000D01*
X129390000Y-62300000D01*
G37*
%TO.C,R8*%
X122765000Y-88522936D02*
X122765000Y-88977064D01*
X124235000Y-88522936D02*
X124235000Y-88977064D01*
%TO.C,R3*%
X116515000Y-114139564D02*
X116515000Y-113685436D01*
X117985000Y-114139564D02*
X117985000Y-113685436D01*
%TO.C,C13*%
X165884420Y-100490000D02*
X166165580Y-100490000D01*
X165884420Y-101510000D02*
X166165580Y-101510000D01*
%TO.C,TR1*%
X119260000Y-80560000D02*
X120540000Y-80560000D01*
X120540000Y-80560000D02*
X120540000Y-81840000D01*
X102460000Y-80860000D02*
X120240000Y-80860000D01*
X120240000Y-100140000D01*
X102460000Y-100140000D01*
X102460000Y-80860000D01*
%TO.C,R5*%
X121064564Y-116265000D02*
X120610436Y-116265000D01*
X121064564Y-117735000D02*
X120610436Y-117735000D01*
%TO.C,C1*%
X133535000Y-109588748D02*
X133535000Y-110111252D01*
X132065000Y-109588748D02*
X132065000Y-110111252D01*
%TO.C,C2*%
X132065000Y-101788748D02*
X132065000Y-102311252D01*
X133535000Y-101788748D02*
X133535000Y-102311252D01*
%TO.C,C5*%
X121290000Y-107284420D02*
X121290000Y-107565580D01*
X122310000Y-107284420D02*
X122310000Y-107565580D01*
%TO.C,C14*%
X166165580Y-105690000D02*
X165884420Y-105690000D01*
X166165580Y-106710000D02*
X165884420Y-106710000D01*
%TO.C,J2*%
X102830000Y-105380000D02*
X113270000Y-105380000D01*
X102830000Y-115620000D02*
X102830000Y-105380000D01*
X111550000Y-115620000D02*
X111550000Y-105380000D01*
X112650000Y-115620000D02*
X112650000Y-105380000D01*
X113270000Y-105380000D02*
X113270000Y-112700000D01*
X113270000Y-113300000D02*
X113270000Y-115620000D01*
X113270000Y-115620000D02*
X102830000Y-115620000D01*
X113270000Y-113000000D02*
X113880000Y-112560000D01*
X113880000Y-113440000D01*
X113270000Y-113000000D01*
G36*
X113880000Y-113440000D02*
G01*
X113270000Y-113000000D01*
X113880000Y-112560000D01*
X113880000Y-113440000D01*
G37*
%TO.C,C15*%
X153450000Y-84530000D02*
X153450000Y-88750000D01*
X156470000Y-84530000D02*
X153450000Y-84530000D01*
X156470000Y-88750000D02*
X156470000Y-84530000D01*
%TD*%
M02*
