%TF.GenerationSoftware,KiCad,Pcbnew,10.0.3*%
%TF.CreationDate,2026-09-09T00:05:28+05:30*%
%TF.ProjectId,ATM90E26_EVAL,41544d39-3045-4323-965f-4556414c2e6b,rev?*%
%TF.SameCoordinates,Original*%
%TF.FileFunction,Copper,L2,Bot*%
%TF.FilePolarity,Positive*%
%FSLAX46Y46*%
G04 Gerber Fmt 4.6, Leading zero omitted, Abs format (unit mm)*
G04 Created by KiCad (PCBNEW 10.0.3) date 2026-09-09 00:05:28*
%MOMM*%
%LPD*%
G01*
G04 APERTURE LIST*
G04 Aperture macros list*
%AMRoundRect*
0 Rectangle with rounded corners*
0 $1 Rounding radius*
0 $2 $3 $4 $5 $6 $7 $8 $9 X,Y pos of 4 corners*
0 Add a 4 corners polygon primitive as box body*
4,1,4,$2,$3,$4,$5,$6,$7,$8,$9,$2,$3,0*
0 Add four circle primitives for the rounded corners*
1,1,$1+$1,$2,$3*
1,1,$1+$1,$4,$5*
1,1,$1+$1,$6,$7*
1,1,$1+$1,$8,$9*
0 Add four rect primitives between the rounded corners*
20,1,$1+$1,$2,$3,$4,$5,0*
20,1,$1+$1,$4,$5,$6,$7,0*
20,1,$1+$1,$6,$7,$8,$9,0*
20,1,$1+$1,$8,$9,$2,$3,0*%
G04 Aperture macros list end*
%TA.AperFunction,ComponentPad*%
%ADD10R,1.700000X1.700000*%
%TD*%
%TA.AperFunction,ComponentPad*%
%ADD11C,1.700000*%
%TD*%
%TA.AperFunction,ComponentPad*%
%ADD12C,1.500000*%
%TD*%
%TA.AperFunction,ComponentPad*%
%ADD13C,2.200000*%
%TD*%
%TA.AperFunction,ComponentPad*%
%ADD14C,2.400000*%
%TD*%
%TA.AperFunction,ComponentPad*%
%ADD15C,1.800000*%
%TD*%
%TA.AperFunction,ComponentPad*%
%ADD16C,1.000000*%
%TD*%
%TA.AperFunction,ComponentPad*%
%ADD17RoundRect,0.250000X0.550000X-0.550000X0.550000X0.550000X-0.550000X0.550000X-0.550000X-0.550000X0*%
%TD*%
%TA.AperFunction,ComponentPad*%
%ADD18C,1.600000*%
%TD*%
%TA.AperFunction,ComponentPad*%
%ADD19RoundRect,0.250001X0.949999X-0.949999X0.949999X0.949999X-0.949999X0.949999X-0.949999X-0.949999X0*%
%TD*%
%TA.AperFunction,ComponentPad*%
%ADD20RoundRect,0.250000X-0.750000X-0.900000X0.750000X-0.900000X0.750000X0.900000X-0.750000X0.900000X0*%
%TD*%
%TA.AperFunction,ComponentPad*%
%ADD21O,2.000000X2.300000*%
%TD*%
%TA.AperFunction,ComponentPad*%
%ADD22R,2.200000X2.200000*%
%TD*%
%TA.AperFunction,ViaPad*%
%ADD23C,0.600000*%
%TD*%
%TA.AperFunction,Conductor*%
%ADD24C,0.300000*%
%TD*%
%TA.AperFunction,Conductor*%
%ADD25C,0.200000*%
%TD*%
G04 APERTURE END LIST*
D10*
%TO.P,J3,1,Pin_1_1*%
%TO.N,+12V*%
X176900000Y-91200000D03*
D11*
%TO.P,J3,2,Pin_2_2*%
%TO.N,GND*%
X176900000Y-93740000D03*
%TD*%
D12*
%TO.P,Y1,1,1_1*%
%TO.N,Net-(U2-OSCI)*%
X159800000Y-106200000D03*
%TO.P,Y1,2,2_2*%
%TO.N,Net-(U2-OSCO)*%
X159800000Y-101320000D03*
%TD*%
D13*
%TO.P,C4,1*%
%TO.N,LINE*%
X121400000Y-51700000D03*
%TO.P,C4,2*%
%TO.N,NEUT*%
X121400000Y-66700000D03*
%TD*%
D14*
%TO.P,R1,1*%
%TO.N,LINE*%
X103140000Y-74000000D03*
%TO.P,R1,2*%
%TO.N,Net-(R1-Pad2)*%
X126000000Y-74000000D03*
%TD*%
D15*
%TO.P,RV1,1*%
%TO.N,NEUT*%
X111000000Y-66400000D03*
%TO.P,RV1,2*%
%TO.N,LINE*%
X103500000Y-65000000D03*
%TD*%
D16*
%TO.P,TP1,1,1_1*%
%TO.N,+3.3V*%
X147000000Y-86000000D03*
%TD*%
D17*
%TO.P,C10,1*%
%TO.N,+12V*%
X175000000Y-86500000D03*
D18*
%TO.P,C10,2*%
%TO.N,GND*%
X175000000Y-84500000D03*
%TD*%
D10*
%TO.P,J5,1,Pin_1_1*%
%TO.N,+3.3V*%
X138340000Y-117600000D03*
D11*
%TO.P,J5,2,Pin_2_2*%
%TO.N,GND*%
X140880000Y-117600000D03*
%TO.P,J5,3,Pin_3_3*%
%TO.N,ATM_SDI*%
X143420000Y-117600000D03*
%TO.P,J5,4,Pin_4_4*%
%TO.N,ATM_SDO*%
X145960000Y-117600000D03*
%TO.P,J5,5,Pin_5_5*%
%TO.N,ATM_CLK*%
X148500000Y-117600000D03*
%TO.P,J5,6,Pin_6_6*%
%TO.N,ATM_CS*%
X151040000Y-117600000D03*
%TO.P,J5,7,Pin_7_7*%
%TO.N,ATM_IRQ*%
X153580000Y-117600000D03*
%TO.P,J5,8,Pin_8_8*%
%TO.N,ATM_CF1*%
X156120000Y-117600000D03*
%TO.P,J5,9,Pin_9_9*%
%TO.N,SCL*%
X158660000Y-117600000D03*
%TO.P,J5,10,Pin_10_10*%
%TO.N,SDA*%
X161200000Y-117600000D03*
%TD*%
D19*
%TO.P,J1,1,Pin_1_1*%
%TO.N,NEUT*%
X106500000Y-58500000D03*
D14*
%TO.P,J1,2,Pin_2_2*%
%TO.N,LINE*%
X106500000Y-53500000D03*
%TD*%
D10*
%TO.P,J4,1,Pin_1_1*%
%TO.N,+3.3V*%
X176800000Y-98860000D03*
D11*
%TO.P,J4,2,Pin_2_2*%
%TO.N,GND*%
X176800000Y-101400000D03*
%TD*%
D20*
%TO.P,U1,1,AC/L_1*%
%TO.N,LINE*%
X133000000Y-62300000D03*
D21*
%TO.P,U1,2,AC/N_2*%
%TO.N,NEUT*%
X133000000Y-70100000D03*
%TO.P,U1,3,-Vout_3*%
%TO.N,GND*%
X175500000Y-54900000D03*
%TO.P,U1,4,+Vout_4*%
%TO.N,+12V*%
X175500000Y-77500000D03*
%TD*%
D22*
%TO.P,TR1,1*%
%TO.N,Net-(R1-Pad2)*%
X117700000Y-85500000D03*
D13*
%TO.P,TR1,2*%
%TO.N,NEUT*%
X105000000Y-85500000D03*
%TO.P,TR1,3*%
%TO.N,Net-(R10-Pad2)*%
X105000000Y-95500000D03*
%TO.P,TR1,4*%
%TO.N,Net-(R7-Pad2)*%
X117700000Y-95500000D03*
%TD*%
D19*
%TO.P,J2,1,Pin_1_1*%
%TO.N,Net-(J2-Pin_1)*%
X107750000Y-113000000D03*
D14*
%TO.P,J2,2,Pin_2_2*%
%TO.N,Net-(J2-Pin_2)*%
X107750000Y-108000000D03*
%TD*%
D23*
%TO.N,GND*%
X125700000Y-108800000D03*
X127900000Y-112500000D03*
%TO.N,+3.3V*%
X174900000Y-115800000D03*
X142600000Y-99600000D03*
X174900000Y-106300000D03*
%TO.N,ATM_IRQ*%
X153100000Y-106400000D03*
%TO.N,ATM_CS*%
X153700000Y-103700000D03*
%TO.N,ATM_CLK*%
X152575000Y-103125000D03*
%TO.N,ATM_SDO*%
X153400000Y-102500000D03*
%TO.N,ATM_SDI*%
X152600000Y-101800000D03*
%TO.N,GND*%
X117200000Y-108800000D03*
%TO.N,Net-(U2-AVDD)*%
X140500000Y-92000000D03*
X139600000Y-104400000D03*
%TO.N,GND*%
X125062500Y-89662500D03*
X131700000Y-89300000D03*
%TO.N,VP*%
X130300000Y-94600000D03*
X130300000Y-97100000D03*
%TD*%
%TO.N,GND*%
D24*
X125700000Y-110300000D02*
X125700000Y-108800000D01*
X127900000Y-112500000D02*
X125700000Y-110300000D01*
%TO.N,+3.3V*%
D25*
X174900000Y-115800000D02*
X174900000Y-106300000D01*
D24*
X142600000Y-99600000D02*
X142600000Y-90300000D01*
X142700000Y-90300000D02*
X142600000Y-90300000D01*
X147000000Y-86000000D02*
X142700000Y-90300000D01*
X147700000Y-83900000D02*
X147000000Y-84600000D01*
X147800000Y-83900000D02*
X147700000Y-83900000D01*
X147000000Y-84600000D02*
X147000000Y-86000000D01*
X148800000Y-82900000D02*
X147800000Y-83900000D01*
X157600000Y-82900000D02*
X148800000Y-82900000D01*
X173560000Y-98860000D02*
X157600000Y-82900000D01*
X176800000Y-98860000D02*
X173560000Y-98860000D01*
%TO.N,ATM_IRQ*%
D25*
X153580000Y-115780000D02*
X153580000Y-117600000D01*
X153100000Y-115300000D02*
X153580000Y-115780000D01*
X153100000Y-106400000D02*
X153100000Y-115300000D01*
%TO.N,ATM_CS*%
X151040000Y-116040000D02*
X151040000Y-117600000D01*
X151000000Y-116000000D02*
X151040000Y-116040000D01*
X151000000Y-115800000D02*
X151000000Y-116000000D01*
X147700000Y-112500000D02*
X151000000Y-115800000D01*
X147700000Y-104400000D02*
X147700000Y-112500000D01*
X148300000Y-103800000D02*
X147700000Y-104400000D01*
X153600000Y-103800000D02*
X148300000Y-103800000D01*
X153700000Y-103700000D02*
X153600000Y-103800000D01*
%TO.N,ATM_CLK*%
X148500000Y-115100000D02*
X148500000Y-117600000D01*
X146700000Y-104800000D02*
X146700000Y-113300000D01*
X148375000Y-103125000D02*
X146700000Y-104800000D01*
X152575000Y-103125000D02*
X148375000Y-103125000D01*
X146700000Y-113300000D02*
X148500000Y-115100000D01*
%TO.N,ATM_SDO*%
X145900000Y-116000000D02*
X145900000Y-116280000D01*
X145000000Y-115100000D02*
X145900000Y-116000000D01*
X145960000Y-116340000D02*
X145960000Y-117600000D01*
X145000000Y-104900000D02*
X145000000Y-115100000D01*
X145900000Y-116280000D02*
X145960000Y-116340000D01*
X147400000Y-102500000D02*
X145000000Y-104900000D01*
X153400000Y-102500000D02*
X147400000Y-102500000D01*
%TO.N,ATM_SDI*%
X143400000Y-114200000D02*
X143420000Y-114220000D01*
X144100000Y-113100000D02*
X143400000Y-113800000D01*
X143420000Y-114220000D02*
X143420000Y-117600000D01*
X144100000Y-104800000D02*
X144100000Y-113100000D01*
X147100000Y-101800000D02*
X144100000Y-104800000D01*
X152600000Y-101800000D02*
X147100000Y-101800000D01*
X143400000Y-113800000D02*
X143400000Y-114200000D01*
%TO.N,GND*%
D24*
X115400000Y-108800000D02*
X117200000Y-108800000D01*
X114600000Y-108000000D02*
X115400000Y-108800000D01*
X114600000Y-103800000D02*
X114600000Y-108000000D01*
X115200000Y-103200000D02*
X114600000Y-103800000D01*
X115200000Y-103000000D02*
X115200000Y-103200000D01*
X115800000Y-102400000D02*
X115200000Y-103000000D01*
X116700000Y-102400000D02*
X115800000Y-102400000D01*
X120700000Y-98400000D02*
X116700000Y-102400000D01*
X120800000Y-96000000D02*
X120700000Y-96000000D01*
X121400000Y-95400000D02*
X120800000Y-96000000D01*
X125062500Y-92037500D02*
X121700000Y-95400000D01*
X120700000Y-96000000D02*
X120700000Y-98400000D01*
X125062500Y-89662500D02*
X125062500Y-92037500D01*
X121700000Y-95400000D02*
X121400000Y-95400000D01*
%TO.N,+3.3V*%
X136900000Y-117600000D02*
X138340000Y-117600000D01*
X136700000Y-117800000D02*
X136900000Y-117600000D01*
X123000000Y-117800000D02*
X136700000Y-117800000D01*
X122600000Y-117400000D02*
X123000000Y-117800000D01*
X122600000Y-97000000D02*
X122600000Y-117400000D01*
X128100000Y-91500000D02*
X122600000Y-97000000D01*
X132900000Y-91500000D02*
X128100000Y-91500000D01*
X136100000Y-88300000D02*
X132900000Y-91500000D01*
X136100000Y-86400000D02*
X136100000Y-88300000D01*
X136500000Y-86000000D02*
X136100000Y-86400000D01*
X147000000Y-86000000D02*
X136500000Y-86000000D01*
%TO.N,Net-(U2-AVDD)*%
X140200000Y-92000000D02*
X140500000Y-92000000D01*
X139600000Y-92600000D02*
X140200000Y-92000000D01*
X139600000Y-104400000D02*
X139600000Y-92600000D01*
%TO.N,GND*%
X131337500Y-89662500D02*
X131700000Y-89300000D01*
X125062500Y-89662500D02*
X131337500Y-89662500D01*
%TO.N,VP*%
D25*
X130300000Y-94600000D02*
X130300000Y-97100000D01*
%TD*%
%TA.AperFunction,Conductor*%
%TO.N,GND*%
G36*
X178941627Y-83720669D02*
G01*
X178988265Y-83772695D01*
X179000354Y-83825750D01*
X179099650Y-119075882D01*
X179080154Y-119142976D01*
X179027479Y-119188880D01*
X178975881Y-119200231D01*
X125514508Y-119299972D01*
X125485876Y-119296676D01*
X122929617Y-118695204D01*
X122868868Y-118660688D01*
X122836424Y-118598808D01*
X122842585Y-118529210D01*
X122885395Y-118473992D01*
X122951262Y-118450684D01*
X122958018Y-118450500D01*
X136764070Y-118450500D01*
X136815502Y-118440269D01*
X136846806Y-118434042D01*
X136916397Y-118440269D01*
X136971575Y-118483131D01*
X136994288Y-118542405D01*
X136995908Y-118557483D01*
X137046202Y-118692328D01*
X137046206Y-118692335D01*
X137132452Y-118807544D01*
X137132455Y-118807547D01*
X137247664Y-118893793D01*
X137247671Y-118893797D01*
X137382517Y-118944091D01*
X137382516Y-118944091D01*
X137389444Y-118944835D01*
X137442127Y-118950500D01*
X139237872Y-118950499D01*
X139297483Y-118944091D01*
X139432331Y-118893796D01*
X139547546Y-118807546D01*
X139633796Y-118692331D01*
X139684091Y-118557483D01*
X139690500Y-118497873D01*
X139690499Y-118463432D01*
X139695387Y-118470159D01*
X139710179Y-118419772D01*
X139730385Y-118402260D01*
X139727285Y-118399160D01*
X140397037Y-117729408D01*
X140414075Y-117792993D01*
X140479901Y-117907007D01*
X140572993Y-118000099D01*
X140687007Y-118065925D01*
X140750591Y-118082962D01*
X140121261Y-118712291D01*
X140174630Y-118751065D01*
X140363379Y-118847238D01*
X140564845Y-118912698D01*
X140774081Y-118945838D01*
X140985919Y-118945838D01*
X141195152Y-118912698D01*
X141195155Y-118912698D01*
X141396620Y-118847238D01*
X141585373Y-118751063D01*
X141638737Y-118712291D01*
X141638738Y-118712291D01*
X141009408Y-118082962D01*
X141072993Y-118065925D01*
X141187007Y-118000099D01*
X141280099Y-117907007D01*
X141345925Y-117792993D01*
X141362962Y-117729409D01*
X141992291Y-118358738D01*
X141992291Y-118358737D01*
X142031064Y-118305371D01*
X142036898Y-118293923D01*
X142084871Y-118243126D01*
X142152692Y-118226329D01*
X142201954Y-118243115D01*
X142216968Y-118213648D01*
X142264949Y-118307816D01*
X142376058Y-118460746D01*
X142376058Y-118460748D01*
X142389890Y-118479786D01*
X142540213Y-118630109D01*
X142712179Y-118755048D01*
X142712181Y-118755049D01*
X142712184Y-118755051D01*
X142901588Y-118851557D01*
X143103757Y-118917246D01*
X143313713Y-118950500D01*
X143313714Y-118950500D01*
X143526286Y-118950500D01*
X143526287Y-118950500D01*
X143736243Y-118917246D01*
X143938412Y-118851557D01*
X144127816Y-118755051D01*
X144214138Y-118692335D01*
X144299786Y-118630109D01*
X144299788Y-118630106D01*
X144299792Y-118630104D01*
X144450104Y-118479792D01*
X144450106Y-118479788D01*
X144450109Y-118479786D01*
X144575048Y-118307820D01*
X144575047Y-118307820D01*
X144575051Y-118307816D01*
X144579514Y-118299054D01*
X144627488Y-118248259D01*
X144695308Y-118231463D01*
X144761444Y-118253999D01*
X144800486Y-118299056D01*
X144804951Y-118307820D01*
X144929890Y-118479786D01*
X145080213Y-118630109D01*
X145252179Y-118755048D01*
X145252181Y-118755049D01*
X145252184Y-118755051D01*
X145441588Y-118851557D01*
X145643757Y-118917246D01*
X145853713Y-118950500D01*
X145853714Y-118950500D01*
X146066286Y-118950500D01*
X146066287Y-118950500D01*
X146276243Y-118917246D01*
X146478412Y-118851557D01*
X146667816Y-118755051D01*
X146754138Y-118692335D01*
X146839786Y-118630109D01*
X146839788Y-118630106D01*
X146839792Y-118630104D01*
X146990104Y-118479792D01*
X146990106Y-118479788D01*
X146990109Y-118479786D01*
X147115048Y-118307820D01*
X147115047Y-118307820D01*
X147115051Y-118307816D01*
X147119514Y-118299054D01*
X147167488Y-118248259D01*
X147235308Y-118231463D01*
X147301444Y-118253999D01*
X147340486Y-118299056D01*
X147344951Y-118307820D01*
X147469890Y-118479786D01*
X147620213Y-118630109D01*
X147792179Y-118755048D01*
X147792181Y-118755049D01*
X147792184Y-118755051D01*
X147981588Y-118851557D01*
X148183757Y-118917246D01*
X148393713Y-118950500D01*
X148393714Y-118950500D01*
X148606286Y-118950500D01*
X148606287Y-118950500D01*
X148816243Y-118917246D01*
X149018412Y-118851557D01*
X149207816Y-118755051D01*
X149294138Y-118692335D01*
X149379786Y-118630109D01*
X149379788Y-118630106D01*
X149379792Y-118630104D01*
X149530104Y-118479792D01*
X149530106Y-118479788D01*
X149530109Y-118479786D01*
X149655048Y-118307820D01*
X149655047Y-118307820D01*
X149655051Y-118307816D01*
X149659514Y-118299054D01*
X149707488Y-118248259D01*
X149775308Y-118231463D01*
X149841444Y-118253999D01*
X149880486Y-118299056D01*
X149884951Y-118307820D01*
X150009890Y-118479786D01*
X150160213Y-118630109D01*
X150332179Y-118755048D01*
X150332181Y-118755049D01*
X150332184Y-118755051D01*
X150521588Y-118851557D01*
X150723757Y-118917246D01*
X150933713Y-118950500D01*
X150933714Y-118950500D01*
X151146286Y-118950500D01*
X151146287Y-118950500D01*
X151356243Y-118917246D01*
X151558412Y-118851557D01*
X151747816Y-118755051D01*
X151834138Y-118692335D01*
X151919786Y-118630109D01*
X151919788Y-118630106D01*
X151919792Y-118630104D01*
X152070104Y-118479792D01*
X152070106Y-118479788D01*
X152070109Y-118479786D01*
X152195048Y-118307820D01*
X152195047Y-118307820D01*
X152195051Y-118307816D01*
X152199514Y-118299054D01*
X152247488Y-118248259D01*
X152315308Y-118231463D01*
X152381444Y-118253999D01*
X152420486Y-118299056D01*
X152424951Y-118307820D01*
X152549890Y-118479786D01*
X152700213Y-118630109D01*
X152872179Y-118755048D01*
X152872181Y-118755049D01*
X152872184Y-118755051D01*
X153061588Y-118851557D01*
X153263757Y-118917246D01*
X153473713Y-118950500D01*
X153473714Y-118950500D01*
X153686286Y-118950500D01*
X153686287Y-118950500D01*
X153896243Y-118917246D01*
X154098412Y-118851557D01*
X154287816Y-118755051D01*
X154374138Y-118692335D01*
X154459786Y-118630109D01*
X154459788Y-118630106D01*
X154459792Y-118630104D01*
X154610104Y-118479792D01*
X154610106Y-118479788D01*
X154610109Y-118479786D01*
X154735048Y-118307820D01*
X154735047Y-118307820D01*
X154735051Y-118307816D01*
X154739514Y-118299054D01*
X154787488Y-118248259D01*
X154855308Y-118231463D01*
X154921444Y-118253999D01*
X154960486Y-118299056D01*
X154964951Y-118307820D01*
X155089890Y-118479786D01*
X155240213Y-118630109D01*
X155412179Y-118755048D01*
X155412181Y-118755049D01*
X155412184Y-118755051D01*
X155601588Y-118851557D01*
X155803757Y-118917246D01*
X156013713Y-118950500D01*
X156013714Y-118950500D01*
X156226286Y-118950500D01*
X156226287Y-118950500D01*
X156436243Y-118917246D01*
X156638412Y-118851557D01*
X156827816Y-118755051D01*
X156914138Y-118692335D01*
X156999786Y-118630109D01*
X156999788Y-118630106D01*
X156999792Y-118630104D01*
X157150104Y-118479792D01*
X157150106Y-118479788D01*
X157150109Y-118479786D01*
X157275048Y-118307820D01*
X157275047Y-118307820D01*
X157275051Y-118307816D01*
X157279514Y-118299054D01*
X157327488Y-118248259D01*
X157395308Y-118231463D01*
X157461444Y-118253999D01*
X157500486Y-118299056D01*
X157504951Y-118307820D01*
X157629890Y-118479786D01*
X157780213Y-118630109D01*
X157952179Y-118755048D01*
X157952181Y-118755049D01*
X157952184Y-118755051D01*
X158141588Y-118851557D01*
X158343757Y-118917246D01*
X158553713Y-118950500D01*
X158553714Y-118950500D01*
X158766286Y-118950500D01*
X158766287Y-118950500D01*
X158976243Y-118917246D01*
X159178412Y-118851557D01*
X159367816Y-118755051D01*
X159454138Y-118692335D01*
X159539786Y-118630109D01*
X159539788Y-118630106D01*
X159539792Y-118630104D01*
X159690104Y-118479792D01*
X159690106Y-118479788D01*
X159690109Y-118479786D01*
X159815048Y-118307820D01*
X159815047Y-118307820D01*
X159815051Y-118307816D01*
X159819514Y-118299054D01*
X159867488Y-118248259D01*
X159935308Y-118231463D01*
X160001444Y-118253999D01*
X160040486Y-118299056D01*
X160044951Y-118307820D01*
X160169890Y-118479786D01*
X160320213Y-118630109D01*
X160492179Y-118755048D01*
X160492181Y-118755049D01*
X160492184Y-118755051D01*
X160681588Y-118851557D01*
X160883757Y-118917246D01*
X161093713Y-118950500D01*
X161093714Y-118950500D01*
X161306286Y-118950500D01*
X161306287Y-118950500D01*
X161516243Y-118917246D01*
X161718412Y-118851557D01*
X161907816Y-118755051D01*
X161994138Y-118692335D01*
X162079786Y-118630109D01*
X162079788Y-118630106D01*
X162079792Y-118630104D01*
X162230104Y-118479792D01*
X162230106Y-118479788D01*
X162230109Y-118479786D01*
X162355048Y-118307820D01*
X162355047Y-118307820D01*
X162355051Y-118307816D01*
X162394106Y-118231167D01*
X163464279Y-118231167D01*
X164126000Y-118229932D01*
X164126000Y-118228071D01*
X165124000Y-118228071D01*
X166626000Y-118225268D01*
X166626000Y-118223406D01*
X167624000Y-118223406D01*
X169126000Y-118220603D01*
X169126000Y-118218742D01*
X170124000Y-118218742D01*
X171626000Y-118215939D01*
X171626000Y-118214078D01*
X172624000Y-118214078D01*
X174126000Y-118211275D01*
X174126000Y-118209414D01*
X175124000Y-118209414D01*
X176626000Y-118206611D01*
X176626000Y-118204749D01*
X177624000Y-118204749D01*
X178099188Y-118203863D01*
X178097555Y-117624000D01*
X177624000Y-117624000D01*
X177624000Y-118204749D01*
X176626000Y-118204749D01*
X176626000Y-117624000D01*
X175124000Y-117624000D01*
X175124000Y-118209414D01*
X174126000Y-118209414D01*
X174126000Y-117624000D01*
X172624000Y-117624000D01*
X172624000Y-118214078D01*
X171626000Y-118214078D01*
X171626000Y-117624000D01*
X170124000Y-117624000D01*
X170124000Y-118218742D01*
X169126000Y-118218742D01*
X169126000Y-117624000D01*
X167624000Y-117624000D01*
X167624000Y-118223406D01*
X166626000Y-118223406D01*
X166626000Y-117624000D01*
X165124000Y-117624000D01*
X165124000Y-118228071D01*
X164126000Y-118228071D01*
X164126000Y-117624000D01*
X163548500Y-117624000D01*
X163548500Y-117725897D01*
X163548404Y-117730769D01*
X163547246Y-117760221D01*
X163546959Y-117765086D01*
X163543881Y-117804165D01*
X163543404Y-117809003D01*
X163539944Y-117838236D01*
X163539277Y-117843059D01*
X163499892Y-118091728D01*
X163499036Y-118096523D01*
X163493287Y-118125423D01*
X163492242Y-118130183D01*
X163483089Y-118168300D01*
X163481862Y-118173005D01*
X163473869Y-118201347D01*
X163472455Y-118206008D01*
X163464279Y-118231167D01*
X162394106Y-118231167D01*
X162451557Y-118118412D01*
X162517246Y-117916243D01*
X162550500Y-117706287D01*
X162550500Y-117493713D01*
X162517246Y-117283757D01*
X162451557Y-117081588D01*
X162355051Y-116892184D01*
X162355049Y-116892181D01*
X162355048Y-116892179D01*
X162230109Y-116720213D01*
X162079786Y-116569890D01*
X161907820Y-116444951D01*
X161718414Y-116348444D01*
X161718413Y-116348443D01*
X161718412Y-116348443D01*
X161516243Y-116282754D01*
X161516241Y-116282753D01*
X161516240Y-116282753D01*
X161354957Y-116257208D01*
X161306287Y-116249500D01*
X161093713Y-116249500D01*
X161045042Y-116257208D01*
X160883760Y-116282753D01*
X160681585Y-116348444D01*
X160492179Y-116444951D01*
X160320213Y-116569890D01*
X160169890Y-116720213D01*
X160044949Y-116892182D01*
X160040484Y-116900946D01*
X159992509Y-116951742D01*
X159924688Y-116968536D01*
X159858553Y-116945998D01*
X159819516Y-116900946D01*
X159815050Y-116892182D01*
X159690109Y-116720213D01*
X159539786Y-116569890D01*
X159367820Y-116444951D01*
X159178414Y-116348444D01*
X159178413Y-116348443D01*
X159178412Y-116348443D01*
X158976243Y-116282754D01*
X158976241Y-116282753D01*
X158976240Y-116282753D01*
X158814957Y-116257208D01*
X158766287Y-116249500D01*
X158553713Y-116249500D01*
X158505042Y-116257208D01*
X158343760Y-116282753D01*
X158141585Y-116348444D01*
X157952179Y-116444951D01*
X157780213Y-116569890D01*
X157629890Y-116720213D01*
X157504949Y-116892182D01*
X157500484Y-116900946D01*
X157452509Y-116951742D01*
X157384688Y-116968536D01*
X157318553Y-116945998D01*
X157279516Y-116900946D01*
X157275050Y-116892182D01*
X157150109Y-116720213D01*
X156999786Y-116569890D01*
X156827820Y-116444951D01*
X156638414Y-116348444D01*
X156638413Y-116348443D01*
X156638412Y-116348443D01*
X156436243Y-116282754D01*
X156436241Y-116282753D01*
X156436240Y-116282753D01*
X156274957Y-116257208D01*
X156226287Y-116249500D01*
X156013713Y-116249500D01*
X155965042Y-116257208D01*
X155803760Y-116282753D01*
X155601585Y-116348444D01*
X155412179Y-116444951D01*
X155240213Y-116569890D01*
X155089890Y-116720213D01*
X154964949Y-116892182D01*
X154960484Y-116900946D01*
X154912509Y-116951742D01*
X154844688Y-116968536D01*
X154778553Y-116945998D01*
X154739516Y-116900946D01*
X154735050Y-116892182D01*
X154610109Y-116720213D01*
X154459786Y-116569890D01*
X154287815Y-116444948D01*
X154287814Y-116444947D01*
X154248205Y-116424765D01*
X154197409Y-116376791D01*
X154180500Y-116314281D01*
X154180500Y-115869060D01*
X154180501Y-115869047D01*
X154180501Y-115731690D01*
X162624000Y-115731690D01*
X162682269Y-115774025D01*
X162686157Y-115776968D01*
X162709316Y-115795227D01*
X162713081Y-115798317D01*
X162742888Y-115823778D01*
X162746527Y-115827012D01*
X162768132Y-115846986D01*
X162771636Y-115850356D01*
X162949644Y-116028364D01*
X162953014Y-116031868D01*
X162972988Y-116053473D01*
X162976222Y-116057112D01*
X163001683Y-116086919D01*
X163004773Y-116090684D01*
X163023032Y-116113843D01*
X163025975Y-116117731D01*
X163173974Y-116321435D01*
X163176760Y-116325432D01*
X163193126Y-116349927D01*
X163195750Y-116354027D01*
X163216231Y-116387450D01*
X163218693Y-116391650D01*
X163233083Y-116417346D01*
X163235378Y-116421639D01*
X163339505Y-116626000D01*
X164126000Y-116626000D01*
X165124000Y-116626000D01*
X166626000Y-116626000D01*
X167624000Y-116626000D01*
X169126000Y-116626000D01*
X170124000Y-116626000D01*
X171626000Y-116626000D01*
X172624000Y-116626000D01*
X173297880Y-116626000D01*
X177624000Y-116626000D01*
X178094744Y-116626000D01*
X178090512Y-115124000D01*
X177624000Y-115124000D01*
X177624000Y-116626000D01*
X173297880Y-116626000D01*
X173296155Y-116622574D01*
X173280414Y-116589292D01*
X173277948Y-116583728D01*
X173198855Y-116392778D01*
X173196665Y-116387101D01*
X173184263Y-116352440D01*
X173182354Y-116346662D01*
X173168128Y-116299767D01*
X173166505Y-116293903D01*
X173157555Y-116258177D01*
X173156221Y-116252235D01*
X173115896Y-116049508D01*
X173114855Y-116043511D01*
X173109451Y-116007080D01*
X173108706Y-116001039D01*
X173103903Y-115952267D01*
X173103455Y-115946197D01*
X173101649Y-115909425D01*
X173101500Y-115903342D01*
X173101500Y-115696658D01*
X173101649Y-115690575D01*
X173103455Y-115653803D01*
X173103903Y-115647733D01*
X173108706Y-115598961D01*
X173109451Y-115592920D01*
X173114855Y-115556489D01*
X173115896Y-115550492D01*
X173156221Y-115347765D01*
X173157555Y-115341823D01*
X173166505Y-115306097D01*
X173168128Y-115300233D01*
X173182354Y-115253338D01*
X173184263Y-115247560D01*
X173196665Y-115212899D01*
X173198855Y-115207222D01*
X173233326Y-115124000D01*
X172624000Y-115124000D01*
X172624000Y-116626000D01*
X171626000Y-116626000D01*
X171626000Y-115124000D01*
X170124000Y-115124000D01*
X170124000Y-116626000D01*
X169126000Y-116626000D01*
X169126000Y-115124000D01*
X167624000Y-115124000D01*
X167624000Y-116626000D01*
X166626000Y-116626000D01*
X166626000Y-115124000D01*
X165124000Y-115124000D01*
X165124000Y-116626000D01*
X164126000Y-116626000D01*
X164126000Y-115124000D01*
X162624000Y-115124000D01*
X162624000Y-115731690D01*
X154180501Y-115731690D01*
X154180501Y-115700943D01*
X154168329Y-115655519D01*
X154139577Y-115548216D01*
X154126128Y-115524922D01*
X154118937Y-115512466D01*
X160124000Y-115512466D01*
X160245981Y-115450314D01*
X160250364Y-115448189D01*
X160277139Y-115435846D01*
X160281608Y-115433891D01*
X160317825Y-115418893D01*
X160322353Y-115417121D01*
X160349963Y-115406936D01*
X160354560Y-115405342D01*
X160593993Y-115327545D01*
X160598653Y-115326131D01*
X160626995Y-115318138D01*
X160631700Y-115316911D01*
X160669817Y-115307758D01*
X160674577Y-115306713D01*
X160703477Y-115300964D01*
X160708272Y-115300108D01*
X160956941Y-115260723D01*
X160961764Y-115260056D01*
X160990997Y-115256596D01*
X160995835Y-115256119D01*
X161034914Y-115253041D01*
X161039779Y-115252754D01*
X161069231Y-115251596D01*
X161074103Y-115251500D01*
X161325897Y-115251500D01*
X161330769Y-115251596D01*
X161360221Y-115252754D01*
X161365086Y-115253041D01*
X161404165Y-115256119D01*
X161409003Y-115256596D01*
X161438236Y-115260056D01*
X161443059Y-115260723D01*
X161626000Y-115289697D01*
X161626000Y-115124000D01*
X160124000Y-115124000D01*
X160124000Y-115512466D01*
X154118937Y-115512466D01*
X154107170Y-115492085D01*
X157624000Y-115492085D01*
X157705981Y-115450314D01*
X157710364Y-115448189D01*
X157737139Y-115435846D01*
X157741608Y-115433891D01*
X157777825Y-115418893D01*
X157782353Y-115417121D01*
X157809963Y-115406936D01*
X157814560Y-115405342D01*
X158053993Y-115327545D01*
X158058653Y-115326131D01*
X158086995Y-115318138D01*
X158091700Y-115316911D01*
X158129817Y-115307758D01*
X158134577Y-115306713D01*
X158163477Y-115300964D01*
X158168272Y-115300108D01*
X158416941Y-115260723D01*
X158421764Y-115260056D01*
X158450997Y-115256596D01*
X158455835Y-115256119D01*
X158494914Y-115253041D01*
X158499779Y-115252754D01*
X158529231Y-115251596D01*
X158534103Y-115251500D01*
X158785897Y-115251500D01*
X158790769Y-115251596D01*
X158820221Y-115252754D01*
X158825086Y-115253041D01*
X158864165Y-115256119D01*
X158869003Y-115256596D01*
X158898236Y-115260056D01*
X158903059Y-115260723D01*
X159126000Y-115296033D01*
X159126000Y-115124000D01*
X157624000Y-115124000D01*
X157624000Y-115492085D01*
X154107170Y-115492085D01*
X154060524Y-115411290D01*
X154060518Y-115411282D01*
X154015391Y-115366155D01*
X155124000Y-115366155D01*
X155148884Y-115459025D01*
X155165982Y-115450314D01*
X155170364Y-115448189D01*
X155197139Y-115435846D01*
X155201608Y-115433891D01*
X155237825Y-115418893D01*
X155242353Y-115417121D01*
X155269963Y-115406936D01*
X155274560Y-115405342D01*
X155513993Y-115327545D01*
X155518653Y-115326131D01*
X155546995Y-115318138D01*
X155551700Y-115316911D01*
X155589817Y-115307758D01*
X155594577Y-115306713D01*
X155623477Y-115300964D01*
X155628272Y-115300108D01*
X155876941Y-115260723D01*
X155881764Y-115260056D01*
X155910997Y-115256596D01*
X155915835Y-115256119D01*
X155954914Y-115253041D01*
X155959779Y-115252754D01*
X155989231Y-115251596D01*
X155994103Y-115251500D01*
X156245897Y-115251500D01*
X156250769Y-115251596D01*
X156280221Y-115252754D01*
X156285086Y-115253041D01*
X156324165Y-115256119D01*
X156329003Y-115256596D01*
X156358236Y-115260056D01*
X156363059Y-115260723D01*
X156611728Y-115300108D01*
X156616523Y-115300964D01*
X156626000Y-115302849D01*
X156626000Y-115124000D01*
X155124000Y-115124000D01*
X155124000Y-115366155D01*
X154015391Y-115366155D01*
X153736819Y-115087583D01*
X153703334Y-115026260D01*
X153700500Y-114999902D01*
X153700500Y-114126000D01*
X155124000Y-114126000D01*
X156626000Y-114126000D01*
X157624000Y-114126000D01*
X159126000Y-114126000D01*
X160124000Y-114126000D01*
X161626000Y-114126000D01*
X162624000Y-114126000D01*
X164126000Y-114126000D01*
X165124000Y-114126000D01*
X166626000Y-114126000D01*
X167624000Y-114126000D01*
X169126000Y-114126000D01*
X170124000Y-114126000D01*
X171626000Y-114126000D01*
X172624000Y-114126000D01*
X173301500Y-114126000D01*
X173301500Y-112624000D01*
X172624000Y-112624000D01*
X172624000Y-114126000D01*
X171626000Y-114126000D01*
X171626000Y-112624000D01*
X170124000Y-112624000D01*
X170124000Y-114126000D01*
X169126000Y-114126000D01*
X169126000Y-112624000D01*
X167624000Y-112624000D01*
X167624000Y-114126000D01*
X166626000Y-114126000D01*
X166626000Y-112624000D01*
X165124000Y-112624000D01*
X165124000Y-114126000D01*
X164126000Y-114126000D01*
X164126000Y-112624000D01*
X162624000Y-112624000D01*
X162624000Y-114126000D01*
X161626000Y-114126000D01*
X161626000Y-112624000D01*
X160124000Y-112624000D01*
X160124000Y-114126000D01*
X159126000Y-114126000D01*
X159126000Y-112624000D01*
X157624000Y-112624000D01*
X157624000Y-114126000D01*
X156626000Y-114126000D01*
X156626000Y-112624000D01*
X155124000Y-112624000D01*
X155124000Y-114126000D01*
X153700500Y-114126000D01*
X153700500Y-111626000D01*
X155124000Y-111626000D01*
X156626000Y-111626000D01*
X157624000Y-111626000D01*
X159126000Y-111626000D01*
X160124000Y-111626000D01*
X161626000Y-111626000D01*
X162624000Y-111626000D01*
X164126000Y-111626000D01*
X165124000Y-111626000D01*
X166626000Y-111626000D01*
X167624000Y-111626000D01*
X169126000Y-111626000D01*
X170124000Y-111626000D01*
X171626000Y-111626000D01*
X172624000Y-111626000D01*
X173301500Y-111626000D01*
X173301500Y-110124000D01*
X172624000Y-110124000D01*
X172624000Y-111626000D01*
X171626000Y-111626000D01*
X171626000Y-110124000D01*
X170124000Y-110124000D01*
X170124000Y-111626000D01*
X169126000Y-111626000D01*
X169126000Y-110124000D01*
X167624000Y-110124000D01*
X167624000Y-111626000D01*
X166626000Y-111626000D01*
X166626000Y-110124000D01*
X165124000Y-110124000D01*
X165124000Y-111626000D01*
X164126000Y-111626000D01*
X164126000Y-110124000D01*
X162624000Y-110124000D01*
X162624000Y-111626000D01*
X161626000Y-111626000D01*
X161626000Y-110124000D01*
X160124000Y-110124000D01*
X160124000Y-111626000D01*
X159126000Y-111626000D01*
X159126000Y-110124000D01*
X157624000Y-110124000D01*
X157624000Y-111626000D01*
X156626000Y-111626000D01*
X156626000Y-110124000D01*
X155124000Y-110124000D01*
X155124000Y-111626000D01*
X153700500Y-111626000D01*
X153700500Y-109126000D01*
X155124000Y-109126000D01*
X156626000Y-109126000D01*
X157624000Y-109126000D01*
X159126000Y-109126000D01*
X159126000Y-108425211D01*
X160124000Y-108425211D01*
X160124000Y-109126000D01*
X161626000Y-109126000D01*
X162624000Y-109126000D01*
X164126000Y-109126000D01*
X165124000Y-109126000D01*
X166626000Y-109126000D01*
X167624000Y-109126000D01*
X169126000Y-109126000D01*
X170124000Y-109126000D01*
X171626000Y-109126000D01*
X172624000Y-109126000D01*
X173301500Y-109126000D01*
X173301500Y-107624000D01*
X172624000Y-107624000D01*
X172624000Y-109126000D01*
X171626000Y-109126000D01*
X171626000Y-107624000D01*
X170124000Y-107624000D01*
X170124000Y-109126000D01*
X169126000Y-109126000D01*
X169126000Y-107624000D01*
X167624000Y-107624000D01*
X167624000Y-109126000D01*
X166626000Y-109126000D01*
X166626000Y-107624000D01*
X165124000Y-107624000D01*
X165124000Y-109126000D01*
X164126000Y-109126000D01*
X164126000Y-107624000D01*
X162624000Y-107624000D01*
X162624000Y-109126000D01*
X161626000Y-109126000D01*
X161626000Y-107624000D01*
X161544398Y-107624000D01*
X161528526Y-107644133D01*
X161525438Y-107647896D01*
X161499980Y-107677703D01*
X161496745Y-107681343D01*
X161476752Y-107702971D01*
X161473378Y-107706480D01*
X161306480Y-107873378D01*
X161302971Y-107876752D01*
X161281343Y-107896745D01*
X161277703Y-107899980D01*
X161247896Y-107925438D01*
X161244133Y-107928526D01*
X161221000Y-107946763D01*
X161217117Y-107949703D01*
X161026159Y-108088444D01*
X161022161Y-108091230D01*
X160997663Y-108107598D01*
X160993564Y-108110222D01*
X160960140Y-108130704D01*
X160955940Y-108133166D01*
X160930243Y-108147557D01*
X160925949Y-108149852D01*
X160715632Y-108257014D01*
X160711246Y-108259141D01*
X160684471Y-108271483D01*
X160680006Y-108273436D01*
X160643790Y-108288434D01*
X160639260Y-108290206D01*
X160611652Y-108300390D01*
X160607057Y-108301984D01*
X160382575Y-108374924D01*
X160377912Y-108376338D01*
X160349533Y-108384341D01*
X160344814Y-108385572D01*
X160306695Y-108394720D01*
X160301945Y-108395762D01*
X160273083Y-108401502D01*
X160268294Y-108402357D01*
X160124000Y-108425211D01*
X159126000Y-108425211D01*
X159126000Y-108345216D01*
X158992944Y-108301984D01*
X158988348Y-108300390D01*
X158960740Y-108290206D01*
X158956210Y-108288434D01*
X158919994Y-108273436D01*
X158915529Y-108271483D01*
X158888754Y-108259141D01*
X158884368Y-108257014D01*
X158674051Y-108149852D01*
X158669757Y-108147557D01*
X158644060Y-108133166D01*
X158639860Y-108130704D01*
X158606436Y-108110222D01*
X158602337Y-108107598D01*
X158577839Y-108091230D01*
X158573841Y-108088444D01*
X158382883Y-107949703D01*
X158379000Y-107946763D01*
X158355867Y-107928526D01*
X158352104Y-107925438D01*
X158322297Y-107899980D01*
X158318657Y-107896745D01*
X158297029Y-107876752D01*
X158293520Y-107873378D01*
X158126622Y-107706480D01*
X158123248Y-107702971D01*
X158103255Y-107681343D01*
X158100020Y-107677703D01*
X158074562Y-107647896D01*
X158071474Y-107644133D01*
X158055602Y-107624000D01*
X157624000Y-107624000D01*
X157624000Y-109126000D01*
X156626000Y-109126000D01*
X156626000Y-107624000D01*
X155124000Y-107624000D01*
X155124000Y-109126000D01*
X153700500Y-109126000D01*
X153700500Y-106979765D01*
X153720185Y-106912726D01*
X153721398Y-106910874D01*
X153742185Y-106879765D01*
X153809394Y-106779179D01*
X153869737Y-106633497D01*
X153871228Y-106626000D01*
X155124000Y-106626000D01*
X156626000Y-106626000D01*
X156626000Y-106101577D01*
X158549500Y-106101577D01*
X158549500Y-106298422D01*
X158580290Y-106492826D01*
X158641117Y-106680029D01*
X158730476Y-106855405D01*
X158846172Y-107014646D01*
X158985354Y-107153828D01*
X159144595Y-107269524D01*
X159227455Y-107311743D01*
X159319970Y-107358882D01*
X159319972Y-107358882D01*
X159319975Y-107358884D01*
X159420317Y-107391487D01*
X159507173Y-107419709D01*
X159701578Y-107450500D01*
X159701583Y-107450500D01*
X159898422Y-107450500D01*
X160092826Y-107419709D01*
X160280025Y-107358884D01*
X160455405Y-107269524D01*
X160614646Y-107153828D01*
X160753828Y-107014646D01*
X160869524Y-106855405D01*
X160958884Y-106680025D01*
X160976438Y-106626000D01*
X162624000Y-106626000D01*
X164126000Y-106626000D01*
X165124000Y-106626000D01*
X166626000Y-106626000D01*
X167624000Y-106626000D01*
X169126000Y-106626000D01*
X170124000Y-106626000D01*
X171626000Y-106626000D01*
X172624000Y-106626000D01*
X173131111Y-106626000D01*
X173115896Y-106549508D01*
X173114855Y-106543511D01*
X173109451Y-106507080D01*
X173108706Y-106501039D01*
X173103903Y-106452267D01*
X173103455Y-106446197D01*
X173101649Y-106409425D01*
X173101500Y-106403342D01*
X173101500Y-106221153D01*
X174099500Y-106221153D01*
X174099500Y-106378846D01*
X174130261Y-106533489D01*
X174130264Y-106533501D01*
X174190602Y-106679172D01*
X174190609Y-106679185D01*
X174278602Y-106810874D01*
X174299480Y-106877551D01*
X174299500Y-106879765D01*
X174299500Y-115220234D01*
X174279815Y-115287273D01*
X174278602Y-115289125D01*
X174190609Y-115420814D01*
X174190602Y-115420827D01*
X174130264Y-115566498D01*
X174130261Y-115566510D01*
X174099500Y-115721153D01*
X174099500Y-115878846D01*
X174130261Y-116033489D01*
X174130264Y-116033501D01*
X174190602Y-116179172D01*
X174190609Y-116179185D01*
X174278210Y-116310288D01*
X174278213Y-116310292D01*
X174389707Y-116421786D01*
X174389711Y-116421789D01*
X174520814Y-116509390D01*
X174520827Y-116509397D01*
X174666498Y-116569735D01*
X174666503Y-116569737D01*
X174821153Y-116600499D01*
X174821156Y-116600500D01*
X174821158Y-116600500D01*
X174978844Y-116600500D01*
X174978845Y-116600499D01*
X175133497Y-116569737D01*
X175279179Y-116509394D01*
X175410289Y-116421789D01*
X175521789Y-116310289D01*
X175609394Y-116179179D01*
X175669737Y-116033497D01*
X175700500Y-115878842D01*
X175700500Y-115721158D01*
X175700500Y-115721155D01*
X175700499Y-115721153D01*
X175690069Y-115668717D01*
X175669737Y-115566503D01*
X175662162Y-115548214D01*
X175609397Y-115420827D01*
X175609390Y-115420814D01*
X175521398Y-115289125D01*
X175500520Y-115222447D01*
X175500500Y-115220234D01*
X175500500Y-114126000D01*
X176498500Y-114126000D01*
X176626000Y-114126000D01*
X177624000Y-114126000D01*
X178087702Y-114126000D01*
X178083470Y-112624000D01*
X177624000Y-112624000D01*
X177624000Y-114126000D01*
X176626000Y-114126000D01*
X176626000Y-112624000D01*
X176498500Y-112624000D01*
X176498500Y-114126000D01*
X175500500Y-114126000D01*
X175500500Y-111626000D01*
X176498500Y-111626000D01*
X176626000Y-111626000D01*
X177624000Y-111626000D01*
X178080660Y-111626000D01*
X178076428Y-110124000D01*
X177624000Y-110124000D01*
X177624000Y-111626000D01*
X176626000Y-111626000D01*
X176626000Y-110124000D01*
X176498500Y-110124000D01*
X176498500Y-111626000D01*
X175500500Y-111626000D01*
X175500500Y-109126000D01*
X176498500Y-109126000D01*
X176626000Y-109126000D01*
X177624000Y-109126000D01*
X178073617Y-109126000D01*
X178069386Y-107624000D01*
X177624000Y-107624000D01*
X177624000Y-109126000D01*
X176626000Y-109126000D01*
X176626000Y-107624000D01*
X176498500Y-107624000D01*
X176498500Y-109126000D01*
X175500500Y-109126000D01*
X175500500Y-106879765D01*
X175520185Y-106812726D01*
X175521398Y-106810874D01*
X175609390Y-106679185D01*
X175609390Y-106679184D01*
X175609394Y-106679179D01*
X175631421Y-106626000D01*
X177624000Y-106626000D01*
X178066575Y-106626000D01*
X178062343Y-105124000D01*
X177624000Y-105124000D01*
X177624000Y-106626000D01*
X175631421Y-106626000D01*
X175669737Y-106533497D01*
X175700500Y-106378842D01*
X175700500Y-106221158D01*
X175700500Y-106221155D01*
X175700499Y-106221153D01*
X175687102Y-106153803D01*
X175669737Y-106066503D01*
X175650812Y-106020814D01*
X175609397Y-105920827D01*
X175609390Y-105920814D01*
X175521789Y-105789711D01*
X175521786Y-105789707D01*
X175410292Y-105678213D01*
X175410288Y-105678210D01*
X175279185Y-105590609D01*
X175279172Y-105590602D01*
X175133501Y-105530264D01*
X175133489Y-105530261D01*
X174978845Y-105499500D01*
X174978842Y-105499500D01*
X174821158Y-105499500D01*
X174821155Y-105499500D01*
X174666510Y-105530261D01*
X174666498Y-105530264D01*
X174520827Y-105590602D01*
X174520814Y-105590609D01*
X174389711Y-105678210D01*
X174389707Y-105678213D01*
X174278213Y-105789707D01*
X174278210Y-105789711D01*
X174190609Y-105920814D01*
X174190602Y-105920827D01*
X174130264Y-106066498D01*
X174130261Y-106066510D01*
X174099500Y-106221153D01*
X173101500Y-106221153D01*
X173101500Y-106196658D01*
X173101649Y-106190575D01*
X173103455Y-106153803D01*
X173103903Y-106147733D01*
X173108706Y-106098961D01*
X173109451Y-106092920D01*
X173114855Y-106056489D01*
X173115896Y-106050492D01*
X173156221Y-105847765D01*
X173157555Y-105841823D01*
X173166505Y-105806097D01*
X173168128Y-105800233D01*
X173182354Y-105753338D01*
X173184263Y-105747560D01*
X173196665Y-105712899D01*
X173198855Y-105707222D01*
X173277948Y-105516272D01*
X173280414Y-105510708D01*
X173296155Y-105477426D01*
X173298891Y-105471991D01*
X173321992Y-105428770D01*
X173324991Y-105423475D01*
X173343926Y-105391882D01*
X173347184Y-105386737D01*
X173462017Y-105214878D01*
X173465522Y-105209902D01*
X173487455Y-105180329D01*
X173491199Y-105175531D01*
X173522288Y-105137649D01*
X173526262Y-105133042D01*
X173534457Y-105124000D01*
X176265543Y-105124000D01*
X176273738Y-105133042D01*
X176277712Y-105137649D01*
X176308801Y-105175531D01*
X176312545Y-105180329D01*
X176334478Y-105209902D01*
X176337983Y-105214878D01*
X176452816Y-105386737D01*
X176456074Y-105391882D01*
X176475009Y-105423475D01*
X176478008Y-105428770D01*
X176501109Y-105471991D01*
X176503845Y-105477426D01*
X176519586Y-105510708D01*
X176522052Y-105516272D01*
X176601145Y-105707222D01*
X176603335Y-105712899D01*
X176615737Y-105747560D01*
X176617646Y-105753338D01*
X176626000Y-105780876D01*
X176626000Y-105124000D01*
X176265543Y-105124000D01*
X173534457Y-105124000D01*
X172624000Y-105124000D01*
X172624000Y-106626000D01*
X171626000Y-106626000D01*
X171626000Y-105124000D01*
X170124000Y-105124000D01*
X170124000Y-106626000D01*
X169126000Y-106626000D01*
X169126000Y-105124000D01*
X167624000Y-105124000D01*
X167624000Y-106626000D01*
X166626000Y-106626000D01*
X166626000Y-105124000D01*
X165124000Y-105124000D01*
X165124000Y-106626000D01*
X164126000Y-106626000D01*
X164126000Y-105124000D01*
X162624000Y-105124000D01*
X162624000Y-106626000D01*
X160976438Y-106626000D01*
X161019709Y-106492826D01*
X161027094Y-106446197D01*
X161050500Y-106298422D01*
X161050500Y-106101577D01*
X161019709Y-105907173D01*
X160986867Y-105806097D01*
X160958884Y-105719975D01*
X160958882Y-105719972D01*
X160958882Y-105719970D01*
X160908440Y-105620973D01*
X160869524Y-105544595D01*
X160753828Y-105385354D01*
X160614646Y-105246172D01*
X160455405Y-105130476D01*
X160414029Y-105109394D01*
X160280029Y-105041117D01*
X160092826Y-104980290D01*
X159898422Y-104949500D01*
X159898417Y-104949500D01*
X159701583Y-104949500D01*
X159701578Y-104949500D01*
X159507173Y-104980290D01*
X159319970Y-105041117D01*
X159144594Y-105130476D01*
X159071300Y-105183728D01*
X158985354Y-105246172D01*
X158985352Y-105246174D01*
X158985351Y-105246174D01*
X158846174Y-105385351D01*
X158846174Y-105385352D01*
X158846172Y-105385354D01*
X158814628Y-105428770D01*
X158730476Y-105544594D01*
X158641117Y-105719970D01*
X158580290Y-105907173D01*
X158549500Y-106101577D01*
X156626000Y-106101577D01*
X156626000Y-105620973D01*
X157624000Y-105620973D01*
X157625076Y-105617425D01*
X157698016Y-105392943D01*
X157699610Y-105388348D01*
X157709794Y-105360740D01*
X157711566Y-105356210D01*
X157726564Y-105319994D01*
X157728517Y-105315529D01*
X157740859Y-105288754D01*
X157742986Y-105284368D01*
X157824698Y-105124000D01*
X157624000Y-105124000D01*
X157624000Y-105620973D01*
X156626000Y-105620973D01*
X156626000Y-105124000D01*
X155124000Y-105124000D01*
X155124000Y-106626000D01*
X153871228Y-106626000D01*
X153900500Y-106478842D01*
X153900500Y-106321158D01*
X153900500Y-106321155D01*
X153900499Y-106321153D01*
X153895977Y-106298422D01*
X153869737Y-106166503D01*
X153856065Y-106133495D01*
X153809397Y-106020827D01*
X153809390Y-106020814D01*
X153721789Y-105889711D01*
X153721786Y-105889707D01*
X153610292Y-105778213D01*
X153610288Y-105778210D01*
X153479185Y-105690609D01*
X153479172Y-105690602D01*
X153333501Y-105630264D01*
X153333489Y-105630261D01*
X153178845Y-105599500D01*
X153178842Y-105599500D01*
X153021158Y-105599500D01*
X153021155Y-105599500D01*
X152866510Y-105630261D01*
X152866498Y-105630264D01*
X152720827Y-105690602D01*
X152720814Y-105690609D01*
X152589711Y-105778210D01*
X152589707Y-105778213D01*
X152478213Y-105889707D01*
X152478210Y-105889711D01*
X152390609Y-106020814D01*
X152390602Y-106020827D01*
X152330264Y-106166498D01*
X152330261Y-106166510D01*
X152299500Y-106321153D01*
X152299500Y-106478846D01*
X152330261Y-106633489D01*
X152330264Y-106633501D01*
X152390602Y-106779172D01*
X152390609Y-106779185D01*
X152478602Y-106910874D01*
X152499480Y-106977551D01*
X152499500Y-106979765D01*
X152499500Y-115213330D01*
X152499499Y-115213348D01*
X152499499Y-115379054D01*
X152499498Y-115379054D01*
X152540423Y-115531787D01*
X152549910Y-115548217D01*
X152549909Y-115548217D01*
X152549911Y-115548219D01*
X152619475Y-115668709D01*
X152619479Y-115668714D01*
X152619480Y-115668716D01*
X152731284Y-115780520D01*
X152731285Y-115780521D01*
X152854106Y-115903342D01*
X152943181Y-115992416D01*
X152976666Y-116053739D01*
X152979500Y-116080097D01*
X152979500Y-116314281D01*
X152959815Y-116381320D01*
X152911795Y-116424765D01*
X152872185Y-116444947D01*
X152872184Y-116444948D01*
X152700213Y-116569890D01*
X152549890Y-116720213D01*
X152424949Y-116892182D01*
X152420484Y-116900946D01*
X152372509Y-116951742D01*
X152304688Y-116968536D01*
X152238553Y-116945998D01*
X152199516Y-116900946D01*
X152195050Y-116892182D01*
X152070109Y-116720213D01*
X151919786Y-116569890D01*
X151747815Y-116444948D01*
X151747814Y-116444947D01*
X151708205Y-116424765D01*
X151657409Y-116376791D01*
X151640500Y-116314281D01*
X151640500Y-116129060D01*
X151640501Y-116129047D01*
X151640501Y-115960944D01*
X151626696Y-115909425D01*
X151613201Y-115859061D01*
X151604726Y-115827431D01*
X151600501Y-115795337D01*
X151600501Y-115720944D01*
X151595142Y-115700943D01*
X151559577Y-115568216D01*
X151558585Y-115566498D01*
X151480524Y-115431290D01*
X151480518Y-115431282D01*
X148712616Y-112663380D01*
X150124000Y-112663380D01*
X151501500Y-114040880D01*
X151501500Y-112624000D01*
X150124000Y-112624000D01*
X150124000Y-112663380D01*
X148712616Y-112663380D01*
X148336819Y-112287583D01*
X148303334Y-112226260D01*
X148300500Y-112199902D01*
X148300500Y-111626000D01*
X150124000Y-111626000D01*
X151501500Y-111626000D01*
X151501500Y-110124000D01*
X150124000Y-110124000D01*
X150124000Y-111626000D01*
X148300500Y-111626000D01*
X148300500Y-109126000D01*
X150124000Y-109126000D01*
X151501500Y-109126000D01*
X151501500Y-107624000D01*
X150124000Y-107624000D01*
X150124000Y-109126000D01*
X148300500Y-109126000D01*
X148300500Y-106626000D01*
X150124000Y-106626000D01*
X151312258Y-106626000D01*
X151309451Y-106607080D01*
X151308706Y-106601039D01*
X151303903Y-106552267D01*
X151303455Y-106546197D01*
X151301649Y-106509425D01*
X151301500Y-106503342D01*
X151301500Y-106296658D01*
X151301649Y-106290575D01*
X151303455Y-106253803D01*
X151303903Y-106247733D01*
X151308706Y-106198961D01*
X151309451Y-106192920D01*
X151314855Y-106156489D01*
X151315896Y-106150492D01*
X151356221Y-105947765D01*
X151357555Y-105941823D01*
X151366505Y-105906097D01*
X151368128Y-105900233D01*
X151382354Y-105853338D01*
X151384263Y-105847560D01*
X151396665Y-105812899D01*
X151398855Y-105807222D01*
X151477948Y-105616272D01*
X151480414Y-105610708D01*
X151496155Y-105577426D01*
X151498891Y-105571991D01*
X151521992Y-105528770D01*
X151524991Y-105523475D01*
X151543926Y-105491882D01*
X151547184Y-105486737D01*
X151606142Y-105398500D01*
X150124000Y-105398500D01*
X150124000Y-106626000D01*
X148300500Y-106626000D01*
X148300500Y-104700097D01*
X148320185Y-104633058D01*
X148336819Y-104612416D01*
X148512416Y-104436819D01*
X148573739Y-104403334D01*
X148600097Y-104400500D01*
X153274684Y-104400500D01*
X153322136Y-104409939D01*
X153387031Y-104436819D01*
X153466503Y-104469737D01*
X153621153Y-104500499D01*
X153621156Y-104500500D01*
X153621158Y-104500500D01*
X153778844Y-104500500D01*
X153778845Y-104500499D01*
X153933497Y-104469737D01*
X154079179Y-104409394D01*
X154210289Y-104321789D01*
X154321789Y-104210289D01*
X154409394Y-104079179D01*
X154419500Y-104054782D01*
X154435705Y-104015659D01*
X154469737Y-103933497D01*
X154500500Y-103778842D01*
X154500500Y-103621158D01*
X154500500Y-103621155D01*
X154500499Y-103621153D01*
X154469737Y-103466503D01*
X154448275Y-103414689D01*
X154409397Y-103320827D01*
X154409390Y-103320814D01*
X154321789Y-103189711D01*
X154321786Y-103189707D01*
X154210292Y-103078213D01*
X154210288Y-103078210D01*
X154151003Y-103038597D01*
X154106198Y-102984985D01*
X154097491Y-102915660D01*
X154107811Y-102885117D01*
X154107063Y-102884808D01*
X154147684Y-102786737D01*
X154169737Y-102733497D01*
X154177299Y-102695482D01*
X155191841Y-102695482D01*
X155252816Y-102786737D01*
X155256074Y-102791882D01*
X155275009Y-102823475D01*
X155278008Y-102828770D01*
X155301109Y-102871991D01*
X155303845Y-102877426D01*
X155319586Y-102910708D01*
X155322052Y-102916272D01*
X155401145Y-103107222D01*
X155403335Y-103112899D01*
X155415737Y-103147560D01*
X155417646Y-103153338D01*
X155431872Y-103200233D01*
X155433495Y-103206097D01*
X155442445Y-103241823D01*
X155443779Y-103247765D01*
X155484104Y-103450492D01*
X155485145Y-103456489D01*
X155490549Y-103492920D01*
X155491294Y-103498961D01*
X155496097Y-103547733D01*
X155496545Y-103553803D01*
X155498351Y-103590575D01*
X155498500Y-103596658D01*
X155498500Y-103803342D01*
X155498351Y-103809425D01*
X155496545Y-103846197D01*
X155496097Y-103852267D01*
X155491294Y-103901039D01*
X155490549Y-103907080D01*
X155485145Y-103943511D01*
X155484104Y-103949508D01*
X155448997Y-104126000D01*
X156626000Y-104126000D01*
X157624000Y-104126000D01*
X158921356Y-104126000D01*
X158956210Y-104111566D01*
X158960740Y-104109794D01*
X158988348Y-104099610D01*
X158992943Y-104098016D01*
X159126000Y-104054782D01*
X159126000Y-103545211D01*
X160124000Y-103545211D01*
X160124000Y-103974788D01*
X160268294Y-103997643D01*
X160273083Y-103998498D01*
X160301945Y-104004238D01*
X160306695Y-104005280D01*
X160344814Y-104014428D01*
X160349533Y-104015659D01*
X160377912Y-104023662D01*
X160382575Y-104025076D01*
X160607057Y-104098016D01*
X160611652Y-104099610D01*
X160639260Y-104109794D01*
X160643790Y-104111566D01*
X160678644Y-104126000D01*
X161626000Y-104126000D01*
X162624000Y-104126000D01*
X164126000Y-104126000D01*
X165124000Y-104126000D01*
X166626000Y-104126000D01*
X167624000Y-104126000D01*
X169126000Y-104126000D01*
X170124000Y-104126000D01*
X171626000Y-104126000D01*
X172624000Y-104126000D01*
X174126000Y-104126000D01*
X175124000Y-104126000D01*
X176626000Y-104126000D01*
X176626000Y-103741565D01*
X176596206Y-103739220D01*
X176591360Y-103738743D01*
X176562127Y-103735282D01*
X176557308Y-103734615D01*
X176309383Y-103695348D01*
X176304591Y-103694493D01*
X176275727Y-103688752D01*
X176270980Y-103687710D01*
X176232862Y-103678562D01*
X176228145Y-103677332D01*
X176199768Y-103669330D01*
X176195104Y-103667915D01*
X175975996Y-103596723D01*
X177624000Y-103596723D01*
X177624000Y-104126000D01*
X178059533Y-104126000D01*
X178057438Y-103382585D01*
X178047633Y-103389137D01*
X178043532Y-103391762D01*
X178010108Y-103412244D01*
X178005907Y-103414706D01*
X177980211Y-103429096D01*
X177975918Y-103431391D01*
X177752247Y-103545358D01*
X177747867Y-103547482D01*
X177721124Y-103559811D01*
X177716664Y-103561762D01*
X177680448Y-103576764D01*
X177675914Y-103578539D01*
X177648270Y-103588738D01*
X177643666Y-103590334D01*
X177624000Y-103596723D01*
X175975996Y-103596723D01*
X175956333Y-103590334D01*
X175951730Y-103588738D01*
X175924086Y-103578539D01*
X175919552Y-103576764D01*
X175883336Y-103561762D01*
X175878876Y-103559811D01*
X175852133Y-103547482D01*
X175847753Y-103545358D01*
X175624073Y-103431387D01*
X175619776Y-103429090D01*
X175594063Y-103414689D01*
X175589862Y-103412226D01*
X175556441Y-103391744D01*
X175552340Y-103389119D01*
X175527863Y-103372763D01*
X175523872Y-103369982D01*
X175275281Y-103189373D01*
X175239977Y-103149644D01*
X175171904Y-103028095D01*
X175124000Y-103001266D01*
X175124000Y-104126000D01*
X174126000Y-104126000D01*
X174126000Y-102624000D01*
X172624000Y-102624000D01*
X172624000Y-104126000D01*
X171626000Y-104126000D01*
X171626000Y-102624000D01*
X170124000Y-102624000D01*
X170124000Y-104126000D01*
X169126000Y-104126000D01*
X169126000Y-102624000D01*
X167624000Y-102624000D01*
X167624000Y-104126000D01*
X166626000Y-104126000D01*
X166626000Y-102624000D01*
X165124000Y-102624000D01*
X165124000Y-104126000D01*
X164126000Y-104126000D01*
X164126000Y-102624000D01*
X162624000Y-102624000D01*
X162624000Y-104126000D01*
X161626000Y-104126000D01*
X161626000Y-102632104D01*
X161549703Y-102737117D01*
X161546763Y-102741000D01*
X161528526Y-102764133D01*
X161525438Y-102767896D01*
X161499980Y-102797703D01*
X161496745Y-102801343D01*
X161476752Y-102822971D01*
X161473378Y-102826480D01*
X161306480Y-102993378D01*
X161302971Y-102996752D01*
X161281343Y-103016745D01*
X161277703Y-103019980D01*
X161247896Y-103045438D01*
X161244133Y-103048526D01*
X161221000Y-103066763D01*
X161217117Y-103069703D01*
X161026159Y-103208444D01*
X161022161Y-103211230D01*
X160997663Y-103227598D01*
X160993564Y-103230222D01*
X160960140Y-103250704D01*
X160955940Y-103253166D01*
X160930243Y-103267557D01*
X160925949Y-103269852D01*
X160715632Y-103377014D01*
X160711246Y-103379141D01*
X160684471Y-103391483D01*
X160680006Y-103393436D01*
X160643790Y-103408434D01*
X160639260Y-103410206D01*
X160611652Y-103420390D01*
X160607057Y-103421984D01*
X160382575Y-103494924D01*
X160377912Y-103496338D01*
X160349533Y-103504341D01*
X160344814Y-103505572D01*
X160306695Y-103514720D01*
X160301945Y-103515762D01*
X160273083Y-103521502D01*
X160268294Y-103522357D01*
X160124000Y-103545211D01*
X159126000Y-103545211D01*
X159126000Y-103465216D01*
X158992944Y-103421984D01*
X158988348Y-103420390D01*
X158960740Y-103410206D01*
X158956210Y-103408434D01*
X158919994Y-103393436D01*
X158915529Y-103391483D01*
X158888754Y-103379141D01*
X158884368Y-103377014D01*
X158674051Y-103269852D01*
X158669757Y-103267557D01*
X158644060Y-103253166D01*
X158639860Y-103250704D01*
X158606436Y-103230222D01*
X158602337Y-103227598D01*
X158577839Y-103211230D01*
X158573841Y-103208444D01*
X158382883Y-103069703D01*
X158379000Y-103066763D01*
X158355867Y-103048526D01*
X158352104Y-103045438D01*
X158322297Y-103019980D01*
X158318657Y-103016745D01*
X158297029Y-102996752D01*
X158293520Y-102993378D01*
X158126622Y-102826480D01*
X158123248Y-102822971D01*
X158103255Y-102801343D01*
X158100020Y-102797703D01*
X158074562Y-102767896D01*
X158071474Y-102764133D01*
X158053237Y-102741000D01*
X158050297Y-102737117D01*
X157968112Y-102624000D01*
X157624000Y-102624000D01*
X157624000Y-104126000D01*
X156626000Y-104126000D01*
X156626000Y-102624000D01*
X155197635Y-102624000D01*
X155196545Y-102646197D01*
X155196097Y-102652267D01*
X155191841Y-102695482D01*
X154177299Y-102695482D01*
X154200500Y-102578842D01*
X154200500Y-102421158D01*
X154200500Y-102421155D01*
X154200499Y-102421153D01*
X154169737Y-102266503D01*
X154125100Y-102158738D01*
X154109397Y-102120827D01*
X154109390Y-102120814D01*
X154021789Y-101989711D01*
X154021786Y-101989707D01*
X153910292Y-101878213D01*
X153910288Y-101878210D01*
X153779185Y-101790609D01*
X153779172Y-101790602D01*
X153633501Y-101730264D01*
X153633491Y-101730261D01*
X153474048Y-101698545D01*
X153412137Y-101666160D01*
X153389268Y-101626000D01*
X155124000Y-101626000D01*
X156626000Y-101626000D01*
X156626000Y-101221577D01*
X158549500Y-101221577D01*
X158549500Y-101418422D01*
X158580290Y-101612826D01*
X158641117Y-101800029D01*
X158730476Y-101975405D01*
X158846172Y-102134646D01*
X158985354Y-102273828D01*
X159144595Y-102389524D01*
X159206671Y-102421153D01*
X159319970Y-102478882D01*
X159319972Y-102478882D01*
X159319975Y-102478884D01*
X159420317Y-102511487D01*
X159507173Y-102539709D01*
X159701578Y-102570500D01*
X159701583Y-102570500D01*
X159898422Y-102570500D01*
X160092826Y-102539709D01*
X160280025Y-102478884D01*
X160455405Y-102389524D01*
X160614646Y-102273828D01*
X160753828Y-102134646D01*
X160869524Y-101975405D01*
X160958884Y-101800025D01*
X161015428Y-101626000D01*
X162624000Y-101626000D01*
X164126000Y-101626000D01*
X165124000Y-101626000D01*
X166626000Y-101626000D01*
X167624000Y-101626000D01*
X169126000Y-101626000D01*
X170124000Y-101626000D01*
X171626000Y-101626000D01*
X172624000Y-101626000D01*
X174126000Y-101626000D01*
X174126000Y-100508500D01*
X173471431Y-100508500D01*
X173465348Y-100508351D01*
X173428576Y-100506545D01*
X173422506Y-100506097D01*
X173373734Y-100501294D01*
X173367693Y-100500549D01*
X173331260Y-100495145D01*
X173325262Y-100494104D01*
X173151515Y-100459542D01*
X173145576Y-100458209D01*
X173109851Y-100449260D01*
X173103985Y-100447636D01*
X173057090Y-100433410D01*
X173051310Y-100431501D01*
X173016648Y-100419098D01*
X173010972Y-100416908D01*
X172847315Y-100349119D01*
X172841751Y-100346653D01*
X172808457Y-100330906D01*
X172803019Y-100328168D01*
X172759802Y-100305067D01*
X172754508Y-100302068D01*
X172722932Y-100283142D01*
X172717792Y-100279887D01*
X172658194Y-100240066D01*
X172658192Y-100240065D01*
X172624000Y-100217218D01*
X172624000Y-101626000D01*
X171626000Y-101626000D01*
X171626000Y-100124000D01*
X170124000Y-100124000D01*
X170124000Y-101626000D01*
X169126000Y-101626000D01*
X169126000Y-100124000D01*
X167624000Y-100124000D01*
X167624000Y-101626000D01*
X166626000Y-101626000D01*
X166626000Y-100124000D01*
X165124000Y-100124000D01*
X165124000Y-101626000D01*
X164126000Y-101626000D01*
X164126000Y-100124000D01*
X162624000Y-100124000D01*
X162624000Y-101626000D01*
X161015428Y-101626000D01*
X161019709Y-101612826D01*
X161035143Y-101515380D01*
X161050500Y-101418422D01*
X161050500Y-101221577D01*
X161019709Y-101027173D01*
X160958882Y-100839970D01*
X160908440Y-100740973D01*
X160869524Y-100664595D01*
X160753828Y-100505354D01*
X160614646Y-100366172D01*
X160455405Y-100250476D01*
X160415570Y-100230179D01*
X160280029Y-100161117D01*
X160092826Y-100100290D01*
X159898422Y-100069500D01*
X159898417Y-100069500D01*
X159701583Y-100069500D01*
X159701578Y-100069500D01*
X159507173Y-100100290D01*
X159319970Y-100161117D01*
X159144594Y-100250476D01*
X159063507Y-100309390D01*
X158985354Y-100366172D01*
X158985352Y-100366174D01*
X158985351Y-100366174D01*
X158846174Y-100505351D01*
X158846174Y-100505352D01*
X158846172Y-100505354D01*
X158815464Y-100547620D01*
X158730476Y-100664594D01*
X158641117Y-100839970D01*
X158580290Y-101027173D01*
X158549500Y-101221577D01*
X156626000Y-101221577D01*
X156626000Y-100740973D01*
X157624000Y-100740973D01*
X157625076Y-100737425D01*
X157698016Y-100512943D01*
X157699610Y-100508348D01*
X157709794Y-100480740D01*
X157711566Y-100476210D01*
X157726564Y-100439994D01*
X157728517Y-100435529D01*
X157740859Y-100408754D01*
X157742986Y-100404368D01*
X157850148Y-100194051D01*
X157852443Y-100189757D01*
X157866834Y-100164060D01*
X157869296Y-100159860D01*
X157889778Y-100126436D01*
X157891337Y-100124000D01*
X157624000Y-100124000D01*
X157624000Y-100740973D01*
X156626000Y-100740973D01*
X156626000Y-100124000D01*
X155124000Y-100124000D01*
X155124000Y-101626000D01*
X153389268Y-101626000D01*
X153377563Y-101605444D01*
X153376623Y-101601119D01*
X153369738Y-101566510D01*
X153369737Y-101566503D01*
X153369735Y-101566498D01*
X153309397Y-101420827D01*
X153309390Y-101420814D01*
X153221789Y-101289711D01*
X153221786Y-101289707D01*
X153110292Y-101178213D01*
X153110288Y-101178210D01*
X152979185Y-101090609D01*
X152979172Y-101090602D01*
X152833501Y-101030264D01*
X152833489Y-101030261D01*
X152678845Y-100999500D01*
X152678842Y-100999500D01*
X152521158Y-100999500D01*
X152521155Y-100999500D01*
X152366510Y-101030261D01*
X152366498Y-101030264D01*
X152220827Y-101090602D01*
X152220814Y-101090609D01*
X152089125Y-101178602D01*
X152022447Y-101199480D01*
X152020234Y-101199500D01*
X147186670Y-101199500D01*
X147186654Y-101199499D01*
X147179058Y-101199499D01*
X147020943Y-101199499D01*
X146945979Y-101219586D01*
X146868214Y-101240423D01*
X146868209Y-101240426D01*
X146731290Y-101319475D01*
X146731282Y-101319481D01*
X143619481Y-104431282D01*
X143619480Y-104431284D01*
X143579519Y-104500500D01*
X143569361Y-104518094D01*
X143569359Y-104518096D01*
X143540425Y-104568209D01*
X143540424Y-104568210D01*
X143540423Y-104568215D01*
X143499499Y-104720943D01*
X143499499Y-104720945D01*
X143499499Y-104889046D01*
X143499500Y-104889059D01*
X143499500Y-112799902D01*
X143479815Y-112866941D01*
X143463181Y-112887583D01*
X142919481Y-113431282D01*
X142919479Y-113431284D01*
X142904289Y-113457594D01*
X142897869Y-113468716D01*
X142840423Y-113568215D01*
X142799499Y-113720943D01*
X142799499Y-113720945D01*
X142799499Y-113889046D01*
X142799500Y-113889059D01*
X142799500Y-114113330D01*
X142799499Y-114113348D01*
X142799499Y-114120943D01*
X142799499Y-114279057D01*
X142815275Y-114337932D01*
X142819500Y-114370026D01*
X142819500Y-116314281D01*
X142799815Y-116381320D01*
X142751795Y-116424765D01*
X142712185Y-116444947D01*
X142712184Y-116444948D01*
X142540213Y-116569890D01*
X142389890Y-116720213D01*
X142376058Y-116739250D01*
X142376059Y-116739252D01*
X142264949Y-116892184D01*
X142216968Y-116986350D01*
X142202840Y-116958622D01*
X142142072Y-116973670D01*
X142075937Y-116951132D01*
X142036899Y-116906079D01*
X142031065Y-116894630D01*
X141992291Y-116841261D01*
X141362962Y-117470590D01*
X141345925Y-117407007D01*
X141280099Y-117292993D01*
X141187007Y-117199901D01*
X141072993Y-117134075D01*
X141009409Y-117117037D01*
X141638737Y-116487707D01*
X141638737Y-116487706D01*
X141585374Y-116448937D01*
X141396620Y-116352761D01*
X141195154Y-116287301D01*
X140985919Y-116254162D01*
X140774081Y-116254162D01*
X140564847Y-116287301D01*
X140564844Y-116287301D01*
X140363379Y-116352761D01*
X140174623Y-116448938D01*
X140121261Y-116487706D01*
X140121261Y-116487707D01*
X140750591Y-117117037D01*
X140687007Y-117134075D01*
X140572993Y-117199901D01*
X140479901Y-117292993D01*
X140414075Y-117407007D01*
X140397037Y-117470591D01*
X139727285Y-116800839D01*
X139730584Y-116797539D01*
X139705997Y-116773222D01*
X139694951Y-116730440D01*
X139690499Y-116736567D01*
X139690499Y-116702128D01*
X139684091Y-116642517D01*
X139633796Y-116507669D01*
X139547546Y-116392454D01*
X139547544Y-116392452D01*
X139432335Y-116306206D01*
X139432328Y-116306202D01*
X139297482Y-116255908D01*
X139297483Y-116255908D01*
X139237883Y-116249501D01*
X139237881Y-116249500D01*
X139237873Y-116249500D01*
X139237864Y-116249500D01*
X137442129Y-116249500D01*
X137442123Y-116249501D01*
X137382516Y-116255908D01*
X137247671Y-116306202D01*
X137247664Y-116306206D01*
X137132455Y-116392452D01*
X137132452Y-116392455D01*
X137046206Y-116507664D01*
X137046202Y-116507671D01*
X136995908Y-116642517D01*
X136989501Y-116702116D01*
X136989500Y-116702135D01*
X136989500Y-116825500D01*
X136969815Y-116892539D01*
X136917011Y-116938294D01*
X136865500Y-116949500D01*
X136835929Y-116949500D01*
X136710261Y-116974497D01*
X136710255Y-116974499D01*
X136591874Y-117023534D01*
X136485326Y-117094726D01*
X136485325Y-117094727D01*
X136466872Y-117113181D01*
X136405549Y-117146666D01*
X136379191Y-117149500D01*
X123374500Y-117149500D01*
X123307461Y-117129815D01*
X123261706Y-117077011D01*
X123250500Y-117025500D01*
X123250500Y-116151500D01*
X125124000Y-116151500D01*
X126626000Y-116151500D01*
X127624000Y-116151500D01*
X129126000Y-116151500D01*
X130124000Y-116151500D01*
X131626000Y-116151500D01*
X132624000Y-116151500D01*
X134126000Y-116151500D01*
X135124000Y-116151500D01*
X136106223Y-116151500D01*
X136115797Y-116146382D01*
X136123587Y-116125497D01*
X136126975Y-116117318D01*
X136149233Y-116068581D01*
X136153195Y-116060667D01*
X136187372Y-115998077D01*
X136191890Y-115990463D01*
X136220854Y-115945396D01*
X136225902Y-115938126D01*
X136354886Y-115765827D01*
X136360439Y-115758936D01*
X136395519Y-115718451D01*
X136401551Y-115711972D01*
X136451972Y-115661551D01*
X136458451Y-115655519D01*
X136498936Y-115620439D01*
X136505826Y-115614886D01*
X136626000Y-115524922D01*
X136626000Y-115381181D01*
X140124000Y-115381181D01*
X140275104Y-115332085D01*
X140279768Y-115330670D01*
X140308145Y-115322668D01*
X140312862Y-115321438D01*
X140350980Y-115312290D01*
X140355727Y-115311248D01*
X140384591Y-115305507D01*
X140389383Y-115304652D01*
X140637308Y-115265385D01*
X140642127Y-115264718D01*
X140671360Y-115261257D01*
X140676206Y-115260780D01*
X140715285Y-115257703D01*
X140720146Y-115257416D01*
X140749598Y-115256258D01*
X140754470Y-115256162D01*
X141005530Y-115256162D01*
X141010402Y-115256258D01*
X141039854Y-115257416D01*
X141044715Y-115257703D01*
X141083794Y-115260780D01*
X141088640Y-115261257D01*
X141117873Y-115264718D01*
X141122692Y-115265385D01*
X141370617Y-115304652D01*
X141375409Y-115305507D01*
X141404273Y-115311248D01*
X141409020Y-115312290D01*
X141447138Y-115321438D01*
X141451855Y-115322668D01*
X141480232Y-115330670D01*
X141484896Y-115332085D01*
X141626000Y-115377932D01*
X141626000Y-115124000D01*
X140124000Y-115124000D01*
X140124000Y-115381181D01*
X136626000Y-115381181D01*
X136626000Y-115251500D01*
X137624000Y-115251500D01*
X139126000Y-115251500D01*
X139126000Y-115124000D01*
X137624000Y-115124000D01*
X137624000Y-115251500D01*
X136626000Y-115251500D01*
X136626000Y-115124000D01*
X135124000Y-115124000D01*
X135124000Y-116151500D01*
X134126000Y-116151500D01*
X134126000Y-115124000D01*
X132624000Y-115124000D01*
X132624000Y-116151500D01*
X131626000Y-116151500D01*
X131626000Y-115124000D01*
X130124000Y-115124000D01*
X130124000Y-116151500D01*
X129126000Y-116151500D01*
X129126000Y-115124000D01*
X127624000Y-115124000D01*
X127624000Y-116151500D01*
X126626000Y-116151500D01*
X126626000Y-115124000D01*
X125124000Y-115124000D01*
X125124000Y-116151500D01*
X123250500Y-116151500D01*
X123250500Y-114126000D01*
X125124000Y-114126000D01*
X126626000Y-114126000D01*
X130124000Y-114126000D01*
X131626000Y-114126000D01*
X132624000Y-114126000D01*
X134126000Y-114126000D01*
X135124000Y-114126000D01*
X136626000Y-114126000D01*
X137624000Y-114126000D01*
X139126000Y-114126000D01*
X140124000Y-114126000D01*
X141626000Y-114126000D01*
X141626000Y-112624000D01*
X140124000Y-112624000D01*
X140124000Y-114126000D01*
X139126000Y-114126000D01*
X139126000Y-112624000D01*
X137624000Y-112624000D01*
X137624000Y-114126000D01*
X136626000Y-114126000D01*
X136626000Y-112624000D01*
X135124000Y-112624000D01*
X135124000Y-114126000D01*
X134126000Y-114126000D01*
X134126000Y-112624000D01*
X132624000Y-112624000D01*
X132624000Y-114126000D01*
X131626000Y-114126000D01*
X131626000Y-112624000D01*
X130124000Y-112624000D01*
X130124000Y-114126000D01*
X126626000Y-114126000D01*
X126626000Y-113763308D01*
X126558572Y-113695880D01*
X126554374Y-113691471D01*
X126529643Y-113664184D01*
X126525669Y-113659577D01*
X126494580Y-113621695D01*
X126490834Y-113616895D01*
X126468901Y-113587321D01*
X126465398Y-113582347D01*
X126351041Y-113411200D01*
X126347784Y-113406056D01*
X126328849Y-113374464D01*
X126325849Y-113369169D01*
X126302748Y-113325949D01*
X126300011Y-113320510D01*
X126284272Y-113287230D01*
X126281807Y-113281670D01*
X126122520Y-112897120D01*
X126113678Y-112837513D01*
X126122297Y-112750000D01*
X127141809Y-112750000D01*
X127194461Y-112877113D01*
X127194466Y-112877123D01*
X127281591Y-113007514D01*
X127281594Y-113007518D01*
X127392481Y-113118405D01*
X127392489Y-113118411D01*
X127522872Y-113205530D01*
X127522890Y-113205540D01*
X127649999Y-113258190D01*
X127650000Y-113258190D01*
X128150000Y-113258190D01*
X128277109Y-113205540D01*
X128277127Y-113205530D01*
X128407510Y-113118411D01*
X128407518Y-113118405D01*
X128518405Y-113007518D01*
X128518408Y-113007514D01*
X128605533Y-112877123D01*
X128605538Y-112877113D01*
X128658191Y-112750000D01*
X128150000Y-112750000D01*
X128150000Y-113258190D01*
X127650000Y-113258190D01*
X127650000Y-112750000D01*
X127141809Y-112750000D01*
X126122297Y-112750000D01*
X126134707Y-112624000D01*
X125124000Y-112624000D01*
X125124000Y-114126000D01*
X123250500Y-114126000D01*
X123250500Y-112249999D01*
X127141809Y-112249999D01*
X127141809Y-112250000D01*
X127650000Y-112250000D01*
X128150000Y-112250000D01*
X128658191Y-112250000D01*
X128658190Y-112249999D01*
X128605538Y-112122886D01*
X128605533Y-112122876D01*
X128518408Y-111992485D01*
X128518405Y-111992481D01*
X128407518Y-111881594D01*
X128407514Y-111881591D01*
X128277123Y-111794466D01*
X128277113Y-111794461D01*
X128150000Y-111741809D01*
X128150000Y-112250000D01*
X127650000Y-112250000D01*
X127650000Y-111741809D01*
X127649999Y-111741809D01*
X127522886Y-111794461D01*
X127522876Y-111794466D01*
X127392485Y-111881591D01*
X127392481Y-111881594D01*
X127281594Y-111992481D01*
X127281591Y-111992485D01*
X127194466Y-112122876D01*
X127194461Y-112122886D01*
X127141809Y-112249999D01*
X123250500Y-112249999D01*
X123250500Y-110503382D01*
X125124000Y-110503382D01*
X125124000Y-111626000D01*
X126328586Y-111626000D01*
X130124000Y-111626000D01*
X131626000Y-111626000D01*
X132624000Y-111626000D01*
X134126000Y-111626000D01*
X135124000Y-111626000D01*
X136626000Y-111626000D01*
X137624000Y-111626000D01*
X139126000Y-111626000D01*
X140124000Y-111626000D01*
X141626000Y-111626000D01*
X141626000Y-110124000D01*
X140124000Y-110124000D01*
X140124000Y-111626000D01*
X139126000Y-111626000D01*
X139126000Y-110124000D01*
X137624000Y-110124000D01*
X137624000Y-111626000D01*
X136626000Y-111626000D01*
X136626000Y-110124000D01*
X135124000Y-110124000D01*
X135124000Y-111626000D01*
X134126000Y-111626000D01*
X134126000Y-110124000D01*
X132624000Y-110124000D01*
X132624000Y-111626000D01*
X131626000Y-111626000D01*
X131626000Y-110124000D01*
X130124000Y-110124000D01*
X130124000Y-111626000D01*
X126328586Y-111626000D01*
X126328849Y-111625536D01*
X126347784Y-111593944D01*
X126351041Y-111588800D01*
X126465398Y-111417653D01*
X126468901Y-111412679D01*
X126490834Y-111383105D01*
X126494580Y-111378305D01*
X126525669Y-111340423D01*
X126529643Y-111335816D01*
X126554374Y-111308529D01*
X126558572Y-111304120D01*
X126626000Y-111236692D01*
X126626000Y-110719736D01*
X127624000Y-110719736D01*
X127900000Y-110746919D01*
X128237513Y-110713678D01*
X128297120Y-110722520D01*
X128681670Y-110881807D01*
X128687230Y-110884272D01*
X128720510Y-110900011D01*
X128725949Y-110902748D01*
X128769169Y-110925849D01*
X128774464Y-110928849D01*
X128806056Y-110947784D01*
X128811200Y-110951041D01*
X128982347Y-111065398D01*
X128987321Y-111068901D01*
X129016895Y-111090834D01*
X129021695Y-111094580D01*
X129059577Y-111125669D01*
X129064184Y-111129643D01*
X129091471Y-111154374D01*
X129095880Y-111158572D01*
X129126000Y-111188692D01*
X129126000Y-110124000D01*
X127624000Y-110124000D01*
X127624000Y-110719736D01*
X126626000Y-110719736D01*
X126626000Y-110339069D01*
X126611196Y-110348961D01*
X126606055Y-110352216D01*
X126574464Y-110371151D01*
X126569165Y-110374153D01*
X126525945Y-110397253D01*
X126520510Y-110399989D01*
X126487229Y-110415729D01*
X126481666Y-110418194D01*
X126097115Y-110577479D01*
X126037508Y-110586321D01*
X125700000Y-110553078D01*
X125362492Y-110586321D01*
X125302884Y-110577479D01*
X125124000Y-110503382D01*
X123250500Y-110503382D01*
X123250500Y-109050000D01*
X124941809Y-109050000D01*
X124994461Y-109177113D01*
X124994466Y-109177123D01*
X125081591Y-109307514D01*
X125081594Y-109307518D01*
X125192481Y-109418405D01*
X125192489Y-109418411D01*
X125322872Y-109505530D01*
X125322890Y-109505540D01*
X125449999Y-109558190D01*
X125450000Y-109558190D01*
X125950000Y-109558190D01*
X126077109Y-109505540D01*
X126077127Y-109505530D01*
X126207510Y-109418411D01*
X126207518Y-109418405D01*
X126318405Y-109307518D01*
X126318408Y-109307514D01*
X126405533Y-109177123D01*
X126405538Y-109177113D01*
X126426710Y-109126000D01*
X127624000Y-109126000D01*
X129126000Y-109126000D01*
X130124000Y-109126000D01*
X131626000Y-109126000D01*
X132624000Y-109126000D01*
X134126000Y-109126000D01*
X135124000Y-109126000D01*
X136626000Y-109126000D01*
X137624000Y-109126000D01*
X139126000Y-109126000D01*
X140124000Y-109126000D01*
X141626000Y-109126000D01*
X141626000Y-107624000D01*
X140124000Y-107624000D01*
X140124000Y-109126000D01*
X139126000Y-109126000D01*
X139126000Y-107624000D01*
X137624000Y-107624000D01*
X137624000Y-109126000D01*
X136626000Y-109126000D01*
X136626000Y-107624000D01*
X135124000Y-107624000D01*
X135124000Y-109126000D01*
X134126000Y-109126000D01*
X134126000Y-107624000D01*
X132624000Y-107624000D01*
X132624000Y-109126000D01*
X131626000Y-109126000D01*
X131626000Y-107624000D01*
X130124000Y-107624000D01*
X130124000Y-109126000D01*
X129126000Y-109126000D01*
X129126000Y-107624000D01*
X127624000Y-107624000D01*
X127624000Y-109126000D01*
X126426710Y-109126000D01*
X126458191Y-109050000D01*
X125950000Y-109050000D01*
X125950000Y-109558190D01*
X125450000Y-109558190D01*
X125450000Y-109050000D01*
X124941809Y-109050000D01*
X123250500Y-109050000D01*
X123250500Y-108549999D01*
X124941809Y-108549999D01*
X124941809Y-108550000D01*
X125450000Y-108550000D01*
X125950000Y-108550000D01*
X126458191Y-108550000D01*
X126458190Y-108549999D01*
X126405538Y-108422886D01*
X126405533Y-108422876D01*
X126318408Y-108292485D01*
X126318405Y-108292481D01*
X126207518Y-108181594D01*
X126207514Y-108181591D01*
X126077123Y-108094466D01*
X126077113Y-108094461D01*
X125950000Y-108041809D01*
X125950000Y-108550000D01*
X125450000Y-108550000D01*
X125450000Y-108041809D01*
X125449999Y-108041809D01*
X125322886Y-108094461D01*
X125322876Y-108094466D01*
X125192485Y-108181591D01*
X125192481Y-108181594D01*
X125081594Y-108292481D01*
X125081591Y-108292485D01*
X124994466Y-108422876D01*
X124994461Y-108422886D01*
X124941809Y-108549999D01*
X123250500Y-108549999D01*
X123250500Y-106626000D01*
X125124000Y-106626000D01*
X126626000Y-106626000D01*
X127624000Y-106626000D01*
X129126000Y-106626000D01*
X130124000Y-106626000D01*
X131626000Y-106626000D01*
X132624000Y-106626000D01*
X134126000Y-106626000D01*
X135124000Y-106626000D01*
X136626000Y-106626000D01*
X137624000Y-106626000D01*
X139126000Y-106626000D01*
X139126000Y-106138481D01*
X139106097Y-106133495D01*
X139100233Y-106131872D01*
X139075998Y-106124520D01*
X140124000Y-106124520D01*
X140124000Y-106626000D01*
X141626000Y-106626000D01*
X141626000Y-105124000D01*
X141246792Y-105124000D01*
X141222052Y-105183728D01*
X141219586Y-105189292D01*
X141203845Y-105222574D01*
X141201109Y-105228009D01*
X141178008Y-105271230D01*
X141175009Y-105276525D01*
X141156074Y-105308118D01*
X141152816Y-105313263D01*
X141037983Y-105485122D01*
X141034478Y-105490098D01*
X141012545Y-105519671D01*
X141008801Y-105524469D01*
X140977712Y-105562351D01*
X140973738Y-105566958D01*
X140949007Y-105594245D01*
X140944809Y-105598654D01*
X140798654Y-105744809D01*
X140794245Y-105749007D01*
X140766958Y-105773738D01*
X140762351Y-105777712D01*
X140724469Y-105808801D01*
X140719671Y-105812545D01*
X140690098Y-105834478D01*
X140685122Y-105837983D01*
X140513263Y-105952816D01*
X140508118Y-105956074D01*
X140476525Y-105975009D01*
X140471230Y-105978008D01*
X140428009Y-106001109D01*
X140422574Y-106003845D01*
X140389292Y-106019586D01*
X140383728Y-106022052D01*
X140192778Y-106101145D01*
X140187101Y-106103335D01*
X140152440Y-106115737D01*
X140146662Y-106117646D01*
X140124000Y-106124520D01*
X139075998Y-106124520D01*
X139053338Y-106117646D01*
X139047560Y-106115737D01*
X139012899Y-106103335D01*
X139007222Y-106101145D01*
X138816272Y-106022052D01*
X138810708Y-106019586D01*
X138777426Y-106003845D01*
X138771991Y-106001109D01*
X138728770Y-105978008D01*
X138723475Y-105975009D01*
X138691882Y-105956074D01*
X138686737Y-105952816D01*
X138514878Y-105837983D01*
X138509902Y-105834478D01*
X138480329Y-105812545D01*
X138475531Y-105808801D01*
X138437649Y-105777712D01*
X138433042Y-105773738D01*
X138405755Y-105749007D01*
X138401346Y-105744809D01*
X138255191Y-105598654D01*
X138250993Y-105594245D01*
X138226262Y-105566958D01*
X138222288Y-105562351D01*
X138191199Y-105524469D01*
X138187455Y-105519671D01*
X138165522Y-105490098D01*
X138162017Y-105485122D01*
X138047184Y-105313263D01*
X138043926Y-105308118D01*
X138024991Y-105276525D01*
X138021992Y-105271230D01*
X137998891Y-105228009D01*
X137996155Y-105222574D01*
X137980414Y-105189292D01*
X137977948Y-105183728D01*
X137953208Y-105124000D01*
X137624000Y-105124000D01*
X137624000Y-106626000D01*
X136626000Y-106626000D01*
X136626000Y-105124000D01*
X135124000Y-105124000D01*
X135124000Y-106626000D01*
X134126000Y-106626000D01*
X134126000Y-105124000D01*
X132624000Y-105124000D01*
X132624000Y-106626000D01*
X131626000Y-106626000D01*
X131626000Y-105124000D01*
X130124000Y-105124000D01*
X130124000Y-106626000D01*
X129126000Y-106626000D01*
X129126000Y-105124000D01*
X127624000Y-105124000D01*
X127624000Y-106626000D01*
X126626000Y-106626000D01*
X126626000Y-105124000D01*
X125124000Y-105124000D01*
X125124000Y-106626000D01*
X123250500Y-106626000D01*
X123250500Y-104321153D01*
X138799500Y-104321153D01*
X138799500Y-104478846D01*
X138830261Y-104633489D01*
X138830264Y-104633501D01*
X138890602Y-104779172D01*
X138890609Y-104779185D01*
X138978210Y-104910288D01*
X138978213Y-104910292D01*
X139089707Y-105021786D01*
X139089711Y-105021789D01*
X139220814Y-105109390D01*
X139220827Y-105109397D01*
X139315799Y-105148735D01*
X139366503Y-105169737D01*
X139519132Y-105200097D01*
X139521153Y-105200499D01*
X139521156Y-105200500D01*
X139521158Y-105200500D01*
X139678844Y-105200500D01*
X139678845Y-105200499D01*
X139833497Y-105169737D01*
X139979179Y-105109394D01*
X140110289Y-105021789D01*
X140221789Y-104910289D01*
X140309394Y-104779179D01*
X140369737Y-104633497D01*
X140400500Y-104478842D01*
X140400500Y-104321158D01*
X140400500Y-104321155D01*
X140400499Y-104321153D01*
X140378447Y-104210292D01*
X140369737Y-104166503D01*
X140333569Y-104079185D01*
X140309397Y-104020828D01*
X140309396Y-104020827D01*
X140309394Y-104020821D01*
X140271396Y-103963953D01*
X140250520Y-103897276D01*
X140250500Y-103895064D01*
X140250500Y-103680125D01*
X141248500Y-103680125D01*
X141301144Y-103807221D01*
X141303333Y-103812895D01*
X141315736Y-103847556D01*
X141317646Y-103853338D01*
X141331872Y-103900234D01*
X141333495Y-103906097D01*
X141342445Y-103941823D01*
X141343779Y-103947765D01*
X141379232Y-104126000D01*
X141626000Y-104126000D01*
X142624000Y-104126000D01*
X142645446Y-104126000D01*
X142655963Y-104104674D01*
X142659789Y-104097516D01*
X142705071Y-104019087D01*
X142771526Y-103903982D01*
X142775812Y-103897090D01*
X142803100Y-103856251D01*
X142807829Y-103849652D01*
X142847620Y-103797799D01*
X142852766Y-103791529D01*
X142885137Y-103754618D01*
X142890683Y-103748697D01*
X144015380Y-102624000D01*
X142624000Y-102624000D01*
X142624000Y-104126000D01*
X141626000Y-104126000D01*
X141626000Y-102624000D01*
X141248500Y-102624000D01*
X141248500Y-103680125D01*
X140250500Y-103680125D01*
X140250500Y-101626000D01*
X141248500Y-101626000D01*
X141626000Y-101626000D01*
X141626000Y-101398500D01*
X142624000Y-101398500D01*
X142624000Y-101626000D01*
X144126000Y-101626000D01*
X144126000Y-101515380D01*
X145124000Y-101515380D01*
X146048697Y-100590683D01*
X146054618Y-100585137D01*
X146091529Y-100552766D01*
X146097799Y-100547620D01*
X146149652Y-100507829D01*
X146156251Y-100503100D01*
X146197090Y-100475812D01*
X146203982Y-100471526D01*
X146397524Y-100359786D01*
X146404679Y-100355962D01*
X146448723Y-100334242D01*
X146456116Y-100330892D01*
X146516498Y-100305882D01*
X146524093Y-100303024D01*
X146570585Y-100287243D01*
X146578346Y-100284888D01*
X146626000Y-100272118D01*
X146626000Y-100201500D01*
X147624000Y-100201500D01*
X149126000Y-100201500D01*
X150124000Y-100201500D01*
X151626000Y-100201500D01*
X151626000Y-100124000D01*
X153253484Y-100124000D01*
X153383728Y-100177948D01*
X153389292Y-100180414D01*
X153422574Y-100196155D01*
X153428009Y-100198891D01*
X153471230Y-100221992D01*
X153476525Y-100224991D01*
X153508118Y-100243926D01*
X153513263Y-100247184D01*
X153685122Y-100362017D01*
X153690098Y-100365522D01*
X153719671Y-100387455D01*
X153724469Y-100391199D01*
X153762351Y-100422288D01*
X153766958Y-100426262D01*
X153794245Y-100450993D01*
X153798654Y-100455191D01*
X153944809Y-100601346D01*
X153949007Y-100605755D01*
X153973738Y-100633042D01*
X153977712Y-100637649D01*
X154008801Y-100675531D01*
X154012545Y-100680329D01*
X154034478Y-100709902D01*
X154037983Y-100714878D01*
X154126000Y-100846604D01*
X154126000Y-100124000D01*
X153253484Y-100124000D01*
X151626000Y-100124000D01*
X150124000Y-100124000D01*
X150124000Y-100201500D01*
X149126000Y-100201500D01*
X149126000Y-100124000D01*
X147624000Y-100124000D01*
X147624000Y-100201500D01*
X146626000Y-100201500D01*
X146626000Y-100124000D01*
X145124000Y-100124000D01*
X145124000Y-101515380D01*
X144126000Y-101515380D01*
X144126000Y-100553395D01*
X144037983Y-100685122D01*
X144034478Y-100690098D01*
X144012545Y-100719671D01*
X144008801Y-100724469D01*
X143977712Y-100762351D01*
X143973738Y-100766958D01*
X143949007Y-100794245D01*
X143944809Y-100798654D01*
X143798654Y-100944809D01*
X143794245Y-100949007D01*
X143766958Y-100973738D01*
X143762351Y-100977712D01*
X143724469Y-101008801D01*
X143719671Y-101012545D01*
X143690098Y-101034478D01*
X143685122Y-101037983D01*
X143513263Y-101152816D01*
X143508118Y-101156074D01*
X143476525Y-101175009D01*
X143471230Y-101178008D01*
X143428009Y-101201109D01*
X143422574Y-101203845D01*
X143389292Y-101219586D01*
X143383728Y-101222052D01*
X143192778Y-101301145D01*
X143187101Y-101303335D01*
X143152440Y-101315737D01*
X143146662Y-101317646D01*
X143099767Y-101331872D01*
X143093903Y-101333495D01*
X143058177Y-101342445D01*
X143052235Y-101343779D01*
X142849508Y-101384104D01*
X142843511Y-101385145D01*
X142807080Y-101390549D01*
X142801039Y-101391294D01*
X142752267Y-101396097D01*
X142746197Y-101396545D01*
X142709425Y-101398351D01*
X142703342Y-101398500D01*
X142624000Y-101398500D01*
X141626000Y-101398500D01*
X141626000Y-101112232D01*
X141514878Y-101037983D01*
X141509902Y-101034478D01*
X141480329Y-101012545D01*
X141475531Y-101008801D01*
X141437649Y-100977712D01*
X141433042Y-100973738D01*
X141405755Y-100949007D01*
X141401346Y-100944809D01*
X141255191Y-100798654D01*
X141250993Y-100794245D01*
X141248500Y-100791494D01*
X141248500Y-101626000D01*
X140250500Y-101626000D01*
X140250500Y-92920807D01*
X140270185Y-92853768D01*
X140286819Y-92833126D01*
X140289454Y-92830491D01*
X140350777Y-92797006D01*
X140401326Y-92796555D01*
X140421158Y-92800500D01*
X140421160Y-92800500D01*
X140578844Y-92800500D01*
X140578845Y-92800499D01*
X140733497Y-92769737D01*
X140879179Y-92709394D01*
X141010289Y-92621789D01*
X141121789Y-92510289D01*
X141209394Y-92379179D01*
X141269737Y-92233497D01*
X141300500Y-92078842D01*
X141300500Y-91921158D01*
X141300500Y-91921155D01*
X141300499Y-91921153D01*
X141269738Y-91766510D01*
X141269737Y-91766503D01*
X141269735Y-91766498D01*
X141209397Y-91620827D01*
X141209390Y-91620814D01*
X141121789Y-91489711D01*
X141121786Y-91489707D01*
X141010292Y-91378213D01*
X141010288Y-91378210D01*
X140879185Y-91290609D01*
X140879172Y-91290602D01*
X140733501Y-91230264D01*
X140733489Y-91230261D01*
X140578845Y-91199500D01*
X140578842Y-91199500D01*
X140421158Y-91199500D01*
X140421155Y-91199500D01*
X140266510Y-91230261D01*
X140266498Y-91230264D01*
X140120827Y-91290602D01*
X140120814Y-91290609D01*
X139984648Y-91381594D01*
X139984227Y-91380964D01*
X139960918Y-91394934D01*
X139891875Y-91423534D01*
X139891873Y-91423535D01*
X139867263Y-91439979D01*
X139785328Y-91494725D01*
X139785327Y-91494726D01*
X139094727Y-92185325D01*
X139094726Y-92185326D01*
X139023534Y-92291874D01*
X138974499Y-92410255D01*
X138974497Y-92410261D01*
X138949500Y-92535928D01*
X138949500Y-103895064D01*
X138929815Y-103962103D01*
X138928603Y-103963954D01*
X138890608Y-104020817D01*
X138890602Y-104020828D01*
X138830264Y-104166498D01*
X138830261Y-104166510D01*
X138799500Y-104321153D01*
X123250500Y-104321153D01*
X123250500Y-104126000D01*
X125124000Y-104126000D01*
X126626000Y-104126000D01*
X127624000Y-104126000D01*
X129126000Y-104126000D01*
X130124000Y-104126000D01*
X131626000Y-104126000D01*
X132624000Y-104126000D01*
X134126000Y-104126000D01*
X135124000Y-104126000D01*
X136626000Y-104126000D01*
X137624000Y-104126000D01*
X137820768Y-104126000D01*
X137856221Y-103947765D01*
X137857555Y-103941823D01*
X137866505Y-103906097D01*
X137868128Y-103900234D01*
X137882354Y-103853338D01*
X137884264Y-103847556D01*
X137896667Y-103812895D01*
X137898856Y-103807221D01*
X137951500Y-103680125D01*
X137951500Y-102624000D01*
X137624000Y-102624000D01*
X137624000Y-104126000D01*
X136626000Y-104126000D01*
X136626000Y-102624000D01*
X135124000Y-102624000D01*
X135124000Y-104126000D01*
X134126000Y-104126000D01*
X134126000Y-102624000D01*
X132624000Y-102624000D01*
X132624000Y-104126000D01*
X131626000Y-104126000D01*
X131626000Y-102624000D01*
X130124000Y-102624000D01*
X130124000Y-104126000D01*
X129126000Y-104126000D01*
X129126000Y-102624000D01*
X127624000Y-102624000D01*
X127624000Y-104126000D01*
X126626000Y-104126000D01*
X126626000Y-102624000D01*
X125124000Y-102624000D01*
X125124000Y-104126000D01*
X123250500Y-104126000D01*
X123250500Y-101626000D01*
X125124000Y-101626000D01*
X126626000Y-101626000D01*
X127624000Y-101626000D01*
X129126000Y-101626000D01*
X130124000Y-101626000D01*
X131626000Y-101626000D01*
X132624000Y-101626000D01*
X134126000Y-101626000D01*
X135124000Y-101626000D01*
X136626000Y-101626000D01*
X137624000Y-101626000D01*
X137951500Y-101626000D01*
X137951500Y-100124000D01*
X137624000Y-100124000D01*
X137624000Y-101626000D01*
X136626000Y-101626000D01*
X136626000Y-100124000D01*
X135124000Y-100124000D01*
X135124000Y-101626000D01*
X134126000Y-101626000D01*
X134126000Y-100124000D01*
X132624000Y-100124000D01*
X132624000Y-101626000D01*
X131626000Y-101626000D01*
X131626000Y-100124000D01*
X130124000Y-100124000D01*
X130124000Y-101626000D01*
X129126000Y-101626000D01*
X129126000Y-100124000D01*
X127624000Y-100124000D01*
X127624000Y-101626000D01*
X126626000Y-101626000D01*
X126626000Y-100124000D01*
X125124000Y-100124000D01*
X125124000Y-101626000D01*
X123250500Y-101626000D01*
X123250500Y-99662604D01*
X123270185Y-99595565D01*
X123315606Y-99553481D01*
X123600000Y-99400000D01*
X123598309Y-99126000D01*
X125124000Y-99126000D01*
X126626000Y-99126000D01*
X127624000Y-99126000D01*
X129126000Y-99126000D01*
X129126000Y-98893759D01*
X130124000Y-98893759D01*
X130124000Y-99126000D01*
X131626000Y-99126000D01*
X132624000Y-99126000D01*
X134126000Y-99126000D01*
X135124000Y-99126000D01*
X136626000Y-99126000D01*
X137624000Y-99126000D01*
X137951500Y-99126000D01*
X137951500Y-97624000D01*
X137624000Y-97624000D01*
X137624000Y-99126000D01*
X136626000Y-99126000D01*
X136626000Y-97624000D01*
X135124000Y-97624000D01*
X135124000Y-99126000D01*
X134126000Y-99126000D01*
X134126000Y-97624000D01*
X132624000Y-97624000D01*
X132624000Y-99126000D01*
X131626000Y-99126000D01*
X131626000Y-98317463D01*
X131498654Y-98444809D01*
X131494245Y-98449007D01*
X131466958Y-98473738D01*
X131462351Y-98477712D01*
X131424469Y-98508801D01*
X131419671Y-98512545D01*
X131390098Y-98534478D01*
X131385122Y-98537983D01*
X131213263Y-98652816D01*
X131208118Y-98656074D01*
X131176525Y-98675009D01*
X131171230Y-98678008D01*
X131128009Y-98701109D01*
X131122574Y-98703845D01*
X131089292Y-98719586D01*
X131083728Y-98722052D01*
X130892778Y-98801145D01*
X130887101Y-98803335D01*
X130852440Y-98815737D01*
X130846662Y-98817646D01*
X130799767Y-98831872D01*
X130793903Y-98833495D01*
X130758177Y-98842445D01*
X130752235Y-98843779D01*
X130549508Y-98884104D01*
X130543511Y-98885145D01*
X130507080Y-98890549D01*
X130501039Y-98891294D01*
X130452267Y-98896097D01*
X130446197Y-98896545D01*
X130409425Y-98898351D01*
X130403342Y-98898500D01*
X130196658Y-98898500D01*
X130190575Y-98898351D01*
X130153803Y-98896545D01*
X130147733Y-98896097D01*
X130124000Y-98893759D01*
X129126000Y-98893759D01*
X129126000Y-98467355D01*
X129105755Y-98449007D01*
X129101346Y-98444809D01*
X128955191Y-98298654D01*
X128950993Y-98294245D01*
X128926262Y-98266958D01*
X128922288Y-98262351D01*
X128891199Y-98224469D01*
X128887455Y-98219671D01*
X128865522Y-98190098D01*
X128862017Y-98185122D01*
X128747184Y-98013263D01*
X128743926Y-98008118D01*
X128724991Y-97976525D01*
X128721992Y-97971230D01*
X128698891Y-97928009D01*
X128696155Y-97922574D01*
X128680414Y-97889292D01*
X128677948Y-97883728D01*
X128598855Y-97692778D01*
X128596665Y-97687101D01*
X128584263Y-97652440D01*
X128582354Y-97646662D01*
X128575479Y-97624000D01*
X127624000Y-97624000D01*
X127624000Y-99126000D01*
X126626000Y-99126000D01*
X126626000Y-97624000D01*
X125124000Y-97624000D01*
X125124000Y-99126000D01*
X123598309Y-99126000D01*
X123585104Y-96986964D01*
X123604374Y-96919811D01*
X123621411Y-96898534D01*
X123893945Y-96626000D01*
X125305327Y-96626000D01*
X126626000Y-96626000D01*
X127624000Y-96626000D01*
X128561519Y-96626000D01*
X128566505Y-96606097D01*
X128568128Y-96600233D01*
X128582354Y-96553338D01*
X128584263Y-96547560D01*
X128596665Y-96512899D01*
X128598855Y-96507222D01*
X128677948Y-96316272D01*
X128680414Y-96310708D01*
X128696155Y-96277426D01*
X128698890Y-96271992D01*
X128701500Y-96267108D01*
X128701500Y-95432890D01*
X128698891Y-95428009D01*
X128696155Y-95422574D01*
X128680414Y-95389292D01*
X128677948Y-95383728D01*
X128598855Y-95192778D01*
X128596665Y-95187101D01*
X128584263Y-95152440D01*
X128582354Y-95146662D01*
X128575479Y-95124000D01*
X127624000Y-95124000D01*
X127624000Y-96626000D01*
X126626000Y-96626000D01*
X126626000Y-95305327D01*
X125305327Y-96626000D01*
X123893945Y-96626000D01*
X125998793Y-94521153D01*
X129499500Y-94521153D01*
X129499500Y-94678846D01*
X129530261Y-94833489D01*
X129530264Y-94833501D01*
X129590602Y-94979172D01*
X129590609Y-94979185D01*
X129678602Y-95110874D01*
X129699480Y-95177551D01*
X129699500Y-95179765D01*
X129699500Y-96520234D01*
X129679815Y-96587273D01*
X129678602Y-96589125D01*
X129590609Y-96720814D01*
X129590602Y-96720827D01*
X129530264Y-96866498D01*
X129530261Y-96866510D01*
X129499500Y-97021153D01*
X129499500Y-97178846D01*
X129530261Y-97333489D01*
X129530264Y-97333501D01*
X129590602Y-97479172D01*
X129590609Y-97479185D01*
X129678210Y-97610288D01*
X129678213Y-97610292D01*
X129789707Y-97721786D01*
X129789711Y-97721789D01*
X129920814Y-97809390D01*
X129920827Y-97809397D01*
X130066498Y-97869735D01*
X130066503Y-97869737D01*
X130221153Y-97900499D01*
X130221156Y-97900500D01*
X130221158Y-97900500D01*
X130378844Y-97900500D01*
X130378845Y-97900499D01*
X130533497Y-97869737D01*
X130679179Y-97809394D01*
X130810289Y-97721789D01*
X130921789Y-97610289D01*
X131009394Y-97479179D01*
X131069737Y-97333497D01*
X131100500Y-97178842D01*
X131100500Y-97021158D01*
X131100500Y-97021155D01*
X131100499Y-97021153D01*
X131083547Y-96935931D01*
X131069737Y-96866503D01*
X131046439Y-96810256D01*
X131009397Y-96720827D01*
X131009390Y-96720814D01*
X130946037Y-96626000D01*
X132624000Y-96626000D01*
X134126000Y-96626000D01*
X135124000Y-96626000D01*
X136626000Y-96626000D01*
X137624000Y-96626000D01*
X137951500Y-96626000D01*
X137951500Y-95124000D01*
X137624000Y-95124000D01*
X137624000Y-96626000D01*
X136626000Y-96626000D01*
X136626000Y-95124000D01*
X135124000Y-95124000D01*
X135124000Y-96626000D01*
X134126000Y-96626000D01*
X134126000Y-95124000D01*
X132624000Y-95124000D01*
X132624000Y-96626000D01*
X130946037Y-96626000D01*
X130921398Y-96589125D01*
X130900520Y-96522447D01*
X130900500Y-96520234D01*
X130900500Y-95179765D01*
X130920185Y-95112726D01*
X130921398Y-95110874D01*
X131009390Y-94979185D01*
X131009390Y-94979184D01*
X131009394Y-94979179D01*
X131069737Y-94833497D01*
X131100500Y-94678842D01*
X131100500Y-94521158D01*
X131100500Y-94521155D01*
X131100499Y-94521153D01*
X131096040Y-94498737D01*
X131069737Y-94366503D01*
X131033578Y-94279207D01*
X131009397Y-94220827D01*
X131009390Y-94220814D01*
X130921789Y-94089711D01*
X130921786Y-94089707D01*
X130810292Y-93978213D01*
X130810288Y-93978210D01*
X130679185Y-93890609D01*
X130679172Y-93890602D01*
X130533501Y-93830264D01*
X130533489Y-93830261D01*
X130378845Y-93799500D01*
X130378842Y-93799500D01*
X130221158Y-93799500D01*
X130221155Y-93799500D01*
X130066510Y-93830261D01*
X130066498Y-93830264D01*
X129920827Y-93890602D01*
X129920814Y-93890609D01*
X129789711Y-93978210D01*
X129789707Y-93978213D01*
X129678213Y-94089707D01*
X129678210Y-94089711D01*
X129590609Y-94220814D01*
X129590602Y-94220827D01*
X129530264Y-94366498D01*
X129530261Y-94366510D01*
X129499500Y-94521153D01*
X125998793Y-94521153D01*
X126393946Y-94126000D01*
X127805329Y-94126000D01*
X128561519Y-94126000D01*
X128566505Y-94106097D01*
X128568128Y-94100233D01*
X128582354Y-94053338D01*
X128584263Y-94047560D01*
X128596665Y-94012899D01*
X128598855Y-94007222D01*
X128677948Y-93816272D01*
X128680414Y-93810708D01*
X128696155Y-93777426D01*
X128698891Y-93771991D01*
X128721992Y-93728770D01*
X128724991Y-93723475D01*
X128743926Y-93691882D01*
X128747184Y-93686737D01*
X128862017Y-93514878D01*
X128865522Y-93509902D01*
X128887455Y-93480329D01*
X128891199Y-93475531D01*
X128922288Y-93437649D01*
X128926262Y-93433042D01*
X128950993Y-93405755D01*
X128955191Y-93401346D01*
X129101346Y-93255191D01*
X129105755Y-93250993D01*
X129126000Y-93232644D01*
X129126000Y-93148500D01*
X132624000Y-93148500D01*
X132624000Y-94126000D01*
X134126000Y-94126000D01*
X135124000Y-94126000D01*
X136626000Y-94126000D01*
X137624000Y-94126000D01*
X137951500Y-94126000D01*
X137951500Y-92624000D01*
X137624000Y-92624000D01*
X137624000Y-94126000D01*
X136626000Y-94126000D01*
X136626000Y-92624000D01*
X135124000Y-92624000D01*
X135124000Y-94126000D01*
X134126000Y-94126000D01*
X134126000Y-92624000D01*
X134107331Y-92624000D01*
X134003027Y-92728304D01*
X133998617Y-92732503D01*
X133971315Y-92757247D01*
X133966702Y-92761226D01*
X133928817Y-92792313D01*
X133924023Y-92796054D01*
X133894463Y-92817976D01*
X133889489Y-92821479D01*
X133781132Y-92893880D01*
X133781131Y-92893879D01*
X133742208Y-92919887D01*
X133737066Y-92923144D01*
X133705491Y-92942069D01*
X133700198Y-92945067D01*
X133656981Y-92968168D01*
X133651543Y-92970906D01*
X133618249Y-92986653D01*
X133612685Y-92989119D01*
X133449028Y-93056908D01*
X133443352Y-93059098D01*
X133408690Y-93071501D01*
X133402910Y-93073410D01*
X133356015Y-93087636D01*
X133350149Y-93089260D01*
X133314424Y-93098209D01*
X133308485Y-93099542D01*
X133134738Y-93134104D01*
X133128740Y-93135145D01*
X133092307Y-93140549D01*
X133086266Y-93141294D01*
X133037494Y-93146097D01*
X133031424Y-93146545D01*
X132994652Y-93148351D01*
X132988569Y-93148500D01*
X132624000Y-93148500D01*
X129126000Y-93148500D01*
X128782830Y-93148500D01*
X127805329Y-94126000D01*
X126393946Y-94126000D01*
X128333127Y-92186819D01*
X128394450Y-92153334D01*
X128420808Y-92150500D01*
X132964071Y-92150500D01*
X133048615Y-92133682D01*
X133089744Y-92125501D01*
X133208127Y-92076465D01*
X133226679Y-92064069D01*
X133314669Y-92005277D01*
X133712615Y-91607331D01*
X135124000Y-91607331D01*
X135124000Y-91626000D01*
X136626000Y-91626000D01*
X137624000Y-91626000D01*
X138268172Y-91626000D01*
X138278521Y-91610511D01*
X138282023Y-91605539D01*
X138303944Y-91575979D01*
X138307687Y-91571181D01*
X138338775Y-91533296D01*
X138342753Y-91528685D01*
X138367497Y-91501383D01*
X138371696Y-91496973D01*
X139096966Y-90771703D01*
X139101376Y-90767504D01*
X139126000Y-90745187D01*
X139126000Y-90124000D01*
X137624000Y-90124000D01*
X137624000Y-91626000D01*
X136626000Y-91626000D01*
X136626000Y-90124000D01*
X136607331Y-90124000D01*
X135124000Y-91607331D01*
X133712615Y-91607331D01*
X136391472Y-88928474D01*
X137624000Y-88928474D01*
X137624000Y-89126000D01*
X139126000Y-89126000D01*
X140124000Y-89126000D01*
X141442670Y-89126000D01*
X141496966Y-89071704D01*
X141501375Y-89067506D01*
X141528662Y-89042775D01*
X141533269Y-89038801D01*
X141571151Y-89007712D01*
X141575951Y-89003966D01*
X141605525Y-88982033D01*
X141610498Y-88978530D01*
X141626000Y-88968171D01*
X141626000Y-87648500D01*
X140124000Y-87648500D01*
X140124000Y-89126000D01*
X139126000Y-89126000D01*
X139126000Y-87648500D01*
X137748500Y-87648500D01*
X137748500Y-88388569D01*
X137748351Y-88394652D01*
X137746545Y-88431424D01*
X137746097Y-88437494D01*
X137741294Y-88486266D01*
X137740549Y-88492307D01*
X137735145Y-88528740D01*
X137734104Y-88534738D01*
X137699542Y-88708485D01*
X137698209Y-88714424D01*
X137689260Y-88750149D01*
X137687636Y-88756015D01*
X137673410Y-88802910D01*
X137671501Y-88808690D01*
X137659098Y-88843352D01*
X137656908Y-88849028D01*
X137624000Y-88928474D01*
X136391472Y-88928474D01*
X136605276Y-88714670D01*
X136676465Y-88608127D01*
X136725501Y-88489744D01*
X136734687Y-88443566D01*
X136750500Y-88364071D01*
X136750500Y-86774500D01*
X136770185Y-86707461D01*
X136822989Y-86661706D01*
X136874500Y-86650500D01*
X145130192Y-86650500D01*
X145197231Y-86670185D01*
X145242986Y-86722989D01*
X145252930Y-86792147D01*
X145223905Y-86855703D01*
X145217873Y-86862181D01*
X142419671Y-89660381D01*
X142379444Y-89687261D01*
X142291873Y-89723535D01*
X142291866Y-89723538D01*
X142185331Y-89794723D01*
X142185327Y-89794726D01*
X142094726Y-89885327D01*
X142094723Y-89885331D01*
X142023538Y-89991866D01*
X142023533Y-89991875D01*
X141974499Y-90110255D01*
X141974497Y-90110261D01*
X141949500Y-90235928D01*
X141949500Y-99095064D01*
X141929815Y-99162103D01*
X141928603Y-99163954D01*
X141890608Y-99220817D01*
X141890602Y-99220828D01*
X141830264Y-99366498D01*
X141830261Y-99366510D01*
X141799500Y-99521153D01*
X141799500Y-99678846D01*
X141830261Y-99833489D01*
X141830264Y-99833501D01*
X141890602Y-99979172D01*
X141890609Y-99979185D01*
X141978210Y-100110288D01*
X141978213Y-100110292D01*
X142089707Y-100221786D01*
X142089711Y-100221789D01*
X142220814Y-100309390D01*
X142220827Y-100309397D01*
X142316726Y-100349119D01*
X142366503Y-100369737D01*
X142516990Y-100399671D01*
X142521153Y-100400499D01*
X142521156Y-100400500D01*
X142521158Y-100400500D01*
X142678844Y-100400500D01*
X142678845Y-100400499D01*
X142833497Y-100369737D01*
X142979179Y-100309394D01*
X143110289Y-100221789D01*
X143221789Y-100110289D01*
X143309394Y-99979179D01*
X143369737Y-99833497D01*
X143400500Y-99678842D01*
X143400500Y-99521158D01*
X143400500Y-99521155D01*
X143400499Y-99521153D01*
X143398380Y-99510500D01*
X143369737Y-99366503D01*
X143309394Y-99220821D01*
X143271396Y-99163953D01*
X143259513Y-99126000D01*
X145124000Y-99126000D01*
X146626000Y-99126000D01*
X147624000Y-99126000D01*
X149126000Y-99126000D01*
X150124000Y-99126000D01*
X151626000Y-99126000D01*
X152624000Y-99126000D01*
X154126000Y-99126000D01*
X155124000Y-99126000D01*
X156626000Y-99126000D01*
X157624000Y-99126000D01*
X159126000Y-99126000D01*
X159126000Y-99094788D01*
X160124000Y-99094788D01*
X160268294Y-99117643D01*
X160273083Y-99118498D01*
X160301945Y-99124238D01*
X160306694Y-99125279D01*
X160309698Y-99126000D01*
X161626000Y-99126000D01*
X162624000Y-99126000D01*
X164126000Y-99126000D01*
X165124000Y-99126000D01*
X166626000Y-99126000D01*
X167624000Y-99126000D01*
X169126000Y-99126000D01*
X170124000Y-99126000D01*
X171494670Y-99126000D01*
X170124000Y-97755330D01*
X170124000Y-99126000D01*
X169126000Y-99126000D01*
X169126000Y-97624000D01*
X167624000Y-97624000D01*
X167624000Y-99126000D01*
X166626000Y-99126000D01*
X166626000Y-97624000D01*
X165124000Y-97624000D01*
X165124000Y-99126000D01*
X164126000Y-99126000D01*
X164126000Y-97624000D01*
X162624000Y-97624000D01*
X162624000Y-99126000D01*
X161626000Y-99126000D01*
X161626000Y-97624000D01*
X160124000Y-97624000D01*
X160124000Y-99094788D01*
X159126000Y-99094788D01*
X159126000Y-97624000D01*
X157624000Y-97624000D01*
X157624000Y-99126000D01*
X156626000Y-99126000D01*
X156626000Y-97624000D01*
X155124000Y-97624000D01*
X155124000Y-99126000D01*
X154126000Y-99126000D01*
X154126000Y-97624000D01*
X152624000Y-97624000D01*
X152624000Y-99126000D01*
X151626000Y-99126000D01*
X151626000Y-97624000D01*
X150124000Y-97624000D01*
X150124000Y-99126000D01*
X149126000Y-99126000D01*
X149126000Y-97624000D01*
X147624000Y-97624000D01*
X147624000Y-99126000D01*
X146626000Y-99126000D01*
X146626000Y-97624000D01*
X145124000Y-97624000D01*
X145124000Y-99126000D01*
X143259513Y-99126000D01*
X143250520Y-99097276D01*
X143250500Y-99095064D01*
X143250500Y-96626000D01*
X145124000Y-96626000D01*
X146626000Y-96626000D01*
X147624000Y-96626000D01*
X149126000Y-96626000D01*
X150124000Y-96626000D01*
X151626000Y-96626000D01*
X152624000Y-96626000D01*
X154126000Y-96626000D01*
X155124000Y-96626000D01*
X156626000Y-96626000D01*
X157624000Y-96626000D01*
X159126000Y-96626000D01*
X160124000Y-96626000D01*
X161626000Y-96626000D01*
X162624000Y-96626000D01*
X164126000Y-96626000D01*
X165124000Y-96626000D01*
X166626000Y-96626000D01*
X167624000Y-96626000D01*
X168994670Y-96626000D01*
X167624000Y-95255330D01*
X167624000Y-96626000D01*
X166626000Y-96626000D01*
X166626000Y-95124000D01*
X165124000Y-95124000D01*
X165124000Y-96626000D01*
X164126000Y-96626000D01*
X164126000Y-95124000D01*
X162624000Y-95124000D01*
X162624000Y-96626000D01*
X161626000Y-96626000D01*
X161626000Y-95124000D01*
X160124000Y-95124000D01*
X160124000Y-96626000D01*
X159126000Y-96626000D01*
X159126000Y-95124000D01*
X157624000Y-95124000D01*
X157624000Y-96626000D01*
X156626000Y-96626000D01*
X156626000Y-95124000D01*
X155124000Y-95124000D01*
X155124000Y-96626000D01*
X154126000Y-96626000D01*
X154126000Y-95124000D01*
X152624000Y-95124000D01*
X152624000Y-96626000D01*
X151626000Y-96626000D01*
X151626000Y-95124000D01*
X150124000Y-95124000D01*
X150124000Y-96626000D01*
X149126000Y-96626000D01*
X149126000Y-95124000D01*
X147624000Y-95124000D01*
X147624000Y-96626000D01*
X146626000Y-96626000D01*
X146626000Y-95124000D01*
X145124000Y-95124000D01*
X145124000Y-96626000D01*
X143250500Y-96626000D01*
X143250500Y-94126000D01*
X145124000Y-94126000D01*
X146626000Y-94126000D01*
X147624000Y-94126000D01*
X149126000Y-94126000D01*
X150124000Y-94126000D01*
X151626000Y-94126000D01*
X152624000Y-94126000D01*
X154126000Y-94126000D01*
X155124000Y-94126000D01*
X156626000Y-94126000D01*
X157624000Y-94126000D01*
X159126000Y-94126000D01*
X160124000Y-94126000D01*
X161626000Y-94126000D01*
X162624000Y-94126000D01*
X164126000Y-94126000D01*
X165124000Y-94126000D01*
X166494670Y-94126000D01*
X165124000Y-92755330D01*
X165124000Y-94126000D01*
X164126000Y-94126000D01*
X164126000Y-92624000D01*
X162624000Y-92624000D01*
X162624000Y-94126000D01*
X161626000Y-94126000D01*
X161626000Y-92624000D01*
X160124000Y-92624000D01*
X160124000Y-94126000D01*
X159126000Y-94126000D01*
X159126000Y-92624000D01*
X157624000Y-92624000D01*
X157624000Y-94126000D01*
X156626000Y-94126000D01*
X156626000Y-92624000D01*
X155124000Y-92624000D01*
X155124000Y-94126000D01*
X154126000Y-94126000D01*
X154126000Y-92624000D01*
X152624000Y-92624000D01*
X152624000Y-94126000D01*
X151626000Y-94126000D01*
X151626000Y-92624000D01*
X150124000Y-92624000D01*
X150124000Y-94126000D01*
X149126000Y-94126000D01*
X149126000Y-92624000D01*
X147624000Y-92624000D01*
X147624000Y-94126000D01*
X146626000Y-94126000D01*
X146626000Y-92624000D01*
X145124000Y-92624000D01*
X145124000Y-94126000D01*
X143250500Y-94126000D01*
X143250500Y-90720808D01*
X143270185Y-90653769D01*
X143286819Y-90633127D01*
X143712616Y-90207330D01*
X145124000Y-90207330D01*
X145124000Y-91626000D01*
X146626000Y-91626000D01*
X147624000Y-91626000D01*
X149126000Y-91626000D01*
X150124000Y-91626000D01*
X151626000Y-91626000D01*
X152624000Y-91626000D01*
X154126000Y-91626000D01*
X155124000Y-91626000D01*
X156626000Y-91626000D01*
X157624000Y-91626000D01*
X159126000Y-91626000D01*
X160124000Y-91626000D01*
X161626000Y-91626000D01*
X162624000Y-91626000D01*
X163994670Y-91626000D01*
X162624000Y-90255330D01*
X162624000Y-91626000D01*
X161626000Y-91626000D01*
X161626000Y-90124000D01*
X160124000Y-90124000D01*
X160124000Y-91626000D01*
X159126000Y-91626000D01*
X159126000Y-90124000D01*
X157624000Y-90124000D01*
X157624000Y-91626000D01*
X156626000Y-91626000D01*
X156626000Y-90124000D01*
X155124000Y-90124000D01*
X155124000Y-91626000D01*
X154126000Y-91626000D01*
X154126000Y-90124000D01*
X152624000Y-90124000D01*
X152624000Y-91626000D01*
X151626000Y-91626000D01*
X151626000Y-90124000D01*
X150124000Y-90124000D01*
X150124000Y-91626000D01*
X149126000Y-91626000D01*
X149126000Y-90124000D01*
X147624000Y-90124000D01*
X147624000Y-91626000D01*
X146626000Y-91626000D01*
X146626000Y-90124000D01*
X145207331Y-90124000D01*
X145124000Y-90207330D01*
X143712616Y-90207330D01*
X146016626Y-87903320D01*
X147624000Y-87903320D01*
X147624000Y-89126000D01*
X149126000Y-89126000D01*
X150124000Y-89126000D01*
X151626000Y-89126000D01*
X152624000Y-89126000D01*
X154126000Y-89126000D01*
X155124000Y-89126000D01*
X156626000Y-89126000D01*
X157624000Y-89126000D01*
X159126000Y-89126000D01*
X160124000Y-89126000D01*
X161494670Y-89126000D01*
X160124000Y-87755330D01*
X160124000Y-89126000D01*
X159126000Y-89126000D01*
X159126000Y-87624000D01*
X157624000Y-87624000D01*
X157624000Y-89126000D01*
X156626000Y-89126000D01*
X156626000Y-87624000D01*
X155124000Y-87624000D01*
X155124000Y-89126000D01*
X154126000Y-89126000D01*
X154126000Y-87624000D01*
X152624000Y-87624000D01*
X152624000Y-89126000D01*
X151626000Y-89126000D01*
X151626000Y-87624000D01*
X150124000Y-87624000D01*
X150124000Y-89126000D01*
X149126000Y-89126000D01*
X149126000Y-87624000D01*
X148166718Y-87624000D01*
X148007997Y-87730054D01*
X148002853Y-87733311D01*
X147971261Y-87752246D01*
X147965965Y-87755246D01*
X147922744Y-87778347D01*
X147917309Y-87781083D01*
X147884027Y-87796824D01*
X147878463Y-87799290D01*
X147651116Y-87893459D01*
X147645439Y-87895649D01*
X147624000Y-87903320D01*
X146016626Y-87903320D01*
X146883127Y-87036819D01*
X146944450Y-87003334D01*
X146970808Y-87000500D01*
X147098543Y-87000500D01*
X147228582Y-86974632D01*
X147291835Y-86962051D01*
X147473914Y-86886632D01*
X147637782Y-86777139D01*
X147777139Y-86637782D01*
X147886632Y-86473914D01*
X147962051Y-86291835D01*
X147978278Y-86210256D01*
X148000500Y-86098543D01*
X148000500Y-85901456D01*
X147962052Y-85708170D01*
X147962051Y-85708169D01*
X147962051Y-85708165D01*
X147945696Y-85668681D01*
X147886635Y-85526092D01*
X147886628Y-85526079D01*
X147777139Y-85362218D01*
X147777136Y-85362214D01*
X147686819Y-85271897D01*
X147653334Y-85210574D01*
X147652863Y-85206191D01*
X148834354Y-85206191D01*
X148893459Y-85348884D01*
X148895649Y-85354561D01*
X148908051Y-85389222D01*
X148909960Y-85395000D01*
X148924186Y-85441895D01*
X148925809Y-85447759D01*
X148934759Y-85483485D01*
X148936093Y-85489427D01*
X148984104Y-85730792D01*
X148985145Y-85736789D01*
X148990549Y-85773221D01*
X148991294Y-85779262D01*
X148996097Y-85828034D01*
X148996545Y-85834104D01*
X148998351Y-85870876D01*
X148998500Y-85876959D01*
X148998500Y-86123041D01*
X148998351Y-86129124D01*
X148996545Y-86165896D01*
X148996097Y-86171966D01*
X148991294Y-86220738D01*
X148990549Y-86226779D01*
X148985145Y-86263211D01*
X148984104Y-86269208D01*
X148936093Y-86510573D01*
X148934759Y-86516515D01*
X148925809Y-86552241D01*
X148924186Y-86558105D01*
X148909960Y-86605000D01*
X148908051Y-86610778D01*
X148902604Y-86626000D01*
X149126000Y-86626000D01*
X149126000Y-85201279D01*
X148834354Y-85206191D01*
X147652863Y-85206191D01*
X147650527Y-85184470D01*
X150124000Y-85184470D01*
X150124000Y-86626000D01*
X151626000Y-86626000D01*
X151626000Y-85159173D01*
X150124000Y-85184470D01*
X147650527Y-85184470D01*
X147650500Y-85184216D01*
X147650500Y-85142365D01*
X152624000Y-85142365D01*
X152624000Y-86626000D01*
X154126000Y-86626000D01*
X155124000Y-86626000D01*
X156626000Y-86626000D01*
X157624000Y-86626000D01*
X158994670Y-86626000D01*
X157624000Y-85255330D01*
X157624000Y-86626000D01*
X156626000Y-86626000D01*
X156626000Y-85124000D01*
X155124000Y-85124000D01*
X155124000Y-86626000D01*
X154126000Y-86626000D01*
X154126000Y-85124000D01*
X153714492Y-85124000D01*
X152624000Y-85142365D01*
X147650500Y-85142365D01*
X147650500Y-84920807D01*
X147670185Y-84853768D01*
X147686815Y-84833130D01*
X147980330Y-84539614D01*
X148020552Y-84512738D01*
X148108127Y-84476465D01*
X148214669Y-84405277D01*
X148369202Y-84250743D01*
X148430521Y-84217260D01*
X148454775Y-84214445D01*
X157783913Y-84057323D01*
X157851269Y-84075874D01*
X157873677Y-84093623D01*
X173145324Y-99365271D01*
X173145327Y-99365274D01*
X173145330Y-99365276D01*
X173212648Y-99410256D01*
X173251873Y-99436465D01*
X173370256Y-99485501D01*
X173370260Y-99485501D01*
X173370261Y-99485502D01*
X173495928Y-99510500D01*
X173495931Y-99510500D01*
X175325501Y-99510500D01*
X175392540Y-99530185D01*
X175438295Y-99582989D01*
X175449501Y-99634500D01*
X175449501Y-99757876D01*
X175455908Y-99817483D01*
X175506202Y-99952328D01*
X175506206Y-99952335D01*
X175592452Y-100067544D01*
X175592455Y-100067547D01*
X175649108Y-100109957D01*
X175707669Y-100153796D01*
X175842517Y-100204091D01*
X175902127Y-100210500D01*
X175936565Y-100210499D01*
X175929839Y-100215387D01*
X175980226Y-100230179D01*
X175997738Y-100250385D01*
X176000839Y-100247285D01*
X176670591Y-100917037D01*
X176607007Y-100934075D01*
X176492993Y-100999901D01*
X176399901Y-101092993D01*
X176334075Y-101207007D01*
X176317037Y-101270591D01*
X175687707Y-100641261D01*
X175687706Y-100641261D01*
X175648938Y-100694623D01*
X175552761Y-100883379D01*
X175487301Y-101084844D01*
X175487301Y-101084847D01*
X175454162Y-101294080D01*
X175454162Y-101505919D01*
X175487301Y-101715152D01*
X175487301Y-101715155D01*
X175552761Y-101916620D01*
X175648937Y-102105374D01*
X175687706Y-102158737D01*
X175687707Y-102158737D01*
X176317037Y-101529408D01*
X176334075Y-101592993D01*
X176399901Y-101707007D01*
X176492993Y-101800099D01*
X176607007Y-101865925D01*
X176670591Y-101882962D01*
X176041261Y-102512291D01*
X176094630Y-102551065D01*
X176283379Y-102647238D01*
X176484845Y-102712698D01*
X176694081Y-102745838D01*
X176905919Y-102745838D01*
X177115152Y-102712698D01*
X177115155Y-102712698D01*
X177316620Y-102647238D01*
X177505373Y-102551063D01*
X177558737Y-102512291D01*
X177558738Y-102512291D01*
X176929408Y-101882962D01*
X176992993Y-101865925D01*
X177107007Y-101800099D01*
X177200099Y-101707007D01*
X177265925Y-101592993D01*
X177282962Y-101529409D01*
X177912291Y-102158738D01*
X177912291Y-102158737D01*
X177951063Y-102105373D01*
X178047238Y-101916620D01*
X178112698Y-101715155D01*
X178112698Y-101715152D01*
X178145838Y-101505919D01*
X178145838Y-101294080D01*
X178112698Y-101084847D01*
X178112698Y-101084844D01*
X178047238Y-100883379D01*
X177951065Y-100694630D01*
X177912291Y-100641261D01*
X177282962Y-101270590D01*
X177265925Y-101207007D01*
X177200099Y-101092993D01*
X177107007Y-100999901D01*
X176992993Y-100934075D01*
X176929409Y-100917037D01*
X177599160Y-100247285D01*
X177602458Y-100250583D01*
X177626545Y-100226125D01*
X177669579Y-100214965D01*
X177663432Y-100210499D01*
X177697872Y-100210499D01*
X177757483Y-100204091D01*
X177892331Y-100153796D01*
X178007546Y-100067546D01*
X178093796Y-99952331D01*
X178144091Y-99817483D01*
X178150500Y-99757873D01*
X178150499Y-97962128D01*
X178144091Y-97902517D01*
X178143338Y-97900499D01*
X178093797Y-97767671D01*
X178093793Y-97767664D01*
X178007547Y-97652455D01*
X178007544Y-97652452D01*
X177892335Y-97566206D01*
X177892328Y-97566202D01*
X177757482Y-97515908D01*
X177757483Y-97515908D01*
X177697883Y-97509501D01*
X177697881Y-97509500D01*
X177697873Y-97509500D01*
X177697864Y-97509500D01*
X175902129Y-97509500D01*
X175902123Y-97509501D01*
X175842516Y-97515908D01*
X175707671Y-97566202D01*
X175707664Y-97566206D01*
X175592455Y-97652452D01*
X175592452Y-97652455D01*
X175506206Y-97767664D01*
X175506202Y-97767671D01*
X175455908Y-97902517D01*
X175453168Y-97928009D01*
X175449501Y-97962123D01*
X175449500Y-97962135D01*
X175449500Y-98085500D01*
X175429815Y-98152539D01*
X175377011Y-98198294D01*
X175325500Y-98209500D01*
X173880808Y-98209500D01*
X173813769Y-98189815D01*
X173793127Y-98173181D01*
X171212616Y-95592670D01*
X172624000Y-95592670D01*
X173657330Y-96626000D01*
X174126000Y-96626000D01*
X175124000Y-96626000D01*
X175372651Y-96626000D01*
X175522982Y-96569931D01*
X175530321Y-96567452D01*
X175575172Y-96553847D01*
X175582648Y-96551832D01*
X175643363Y-96537484D01*
X175650955Y-96535939D01*
X175697160Y-96528028D01*
X175704833Y-96526959D01*
X175808755Y-96515788D01*
X175812064Y-96515477D01*
X175832101Y-96513865D01*
X175835413Y-96513643D01*
X175862095Y-96512214D01*
X175865413Y-96512081D01*
X175885464Y-96511545D01*
X175888778Y-96511501D01*
X176626000Y-96511500D01*
X176626000Y-96069656D01*
X176409383Y-96035348D01*
X176404591Y-96034493D01*
X176375727Y-96028752D01*
X176370980Y-96027710D01*
X176332862Y-96018562D01*
X176328145Y-96017332D01*
X176299768Y-96009330D01*
X176295104Y-96007915D01*
X176175997Y-95969215D01*
X177624000Y-95969215D01*
X177624000Y-96511500D01*
X177711248Y-96511500D01*
X177714572Y-96511545D01*
X177734673Y-96512084D01*
X177737993Y-96512217D01*
X177764680Y-96513649D01*
X177767989Y-96513871D01*
X177787982Y-96515481D01*
X177791285Y-96515792D01*
X177895175Y-96526962D01*
X177902843Y-96528029D01*
X177949029Y-96535936D01*
X177956619Y-96537481D01*
X178017330Y-96551826D01*
X178024809Y-96553842D01*
X178038213Y-96557907D01*
X178036055Y-95791702D01*
X177852247Y-95885358D01*
X177847867Y-95887482D01*
X177821124Y-95899811D01*
X177816664Y-95901762D01*
X177780448Y-95916764D01*
X177775914Y-95918539D01*
X177748270Y-95928738D01*
X177743667Y-95930334D01*
X177624000Y-95969215D01*
X176175997Y-95969215D01*
X176056333Y-95930334D01*
X176051730Y-95928738D01*
X176024086Y-95918539D01*
X176019552Y-95916764D01*
X175983336Y-95901762D01*
X175978876Y-95899811D01*
X175952133Y-95887482D01*
X175947753Y-95885358D01*
X175724073Y-95771387D01*
X175719776Y-95769090D01*
X175694063Y-95754689D01*
X175689862Y-95752226D01*
X175656441Y-95731744D01*
X175652340Y-95729119D01*
X175627863Y-95712763D01*
X175623872Y-95709982D01*
X175375281Y-95529373D01*
X175339977Y-95489644D01*
X175271904Y-95368095D01*
X175150351Y-95300020D01*
X175124000Y-95276603D01*
X175124000Y-96626000D01*
X174126000Y-96626000D01*
X174126000Y-95124000D01*
X172624000Y-95124000D01*
X172624000Y-95592670D01*
X171212616Y-95592670D01*
X168712616Y-93092670D01*
X170124000Y-93092670D01*
X171157330Y-94126000D01*
X171626000Y-94126000D01*
X172624000Y-94126000D01*
X174126000Y-94126000D01*
X174126000Y-92624000D01*
X172624000Y-92624000D01*
X172624000Y-94126000D01*
X171626000Y-94126000D01*
X171626000Y-92624000D01*
X170124000Y-92624000D01*
X170124000Y-93092670D01*
X168712616Y-93092670D01*
X166212616Y-90592670D01*
X167624000Y-90592670D01*
X168657330Y-91626000D01*
X169126000Y-91626000D01*
X170124000Y-91626000D01*
X171626000Y-91626000D01*
X172624000Y-91626000D01*
X174126000Y-91626000D01*
X174126000Y-90302135D01*
X175549500Y-90302135D01*
X175549500Y-92097870D01*
X175549501Y-92097876D01*
X175555908Y-92157483D01*
X175606202Y-92292328D01*
X175606206Y-92292335D01*
X175692452Y-92407544D01*
X175692455Y-92407547D01*
X175749108Y-92449957D01*
X175807669Y-92493796D01*
X175942517Y-92544091D01*
X176002127Y-92550500D01*
X176036565Y-92550499D01*
X176029839Y-92555387D01*
X176080226Y-92570179D01*
X176097738Y-92590385D01*
X176100839Y-92587285D01*
X176770591Y-93257037D01*
X176707007Y-93274075D01*
X176592993Y-93339901D01*
X176499901Y-93432993D01*
X176434075Y-93547007D01*
X176417037Y-93610591D01*
X175787707Y-92981261D01*
X175787706Y-92981261D01*
X175748938Y-93034623D01*
X175652761Y-93223379D01*
X175587301Y-93424844D01*
X175587301Y-93424847D01*
X175554162Y-93634080D01*
X175554162Y-93845919D01*
X175587301Y-94055152D01*
X175587301Y-94055155D01*
X175652761Y-94256620D01*
X175748937Y-94445374D01*
X175787706Y-94498737D01*
X175787707Y-94498737D01*
X176417037Y-93869408D01*
X176434075Y-93932993D01*
X176499901Y-94047007D01*
X176592993Y-94140099D01*
X176707007Y-94205925D01*
X176770591Y-94222962D01*
X176141261Y-94852291D01*
X176194630Y-94891065D01*
X176383379Y-94987238D01*
X176584845Y-95052698D01*
X176794081Y-95085838D01*
X177005919Y-95085838D01*
X177215152Y-95052698D01*
X177215155Y-95052698D01*
X177416620Y-94987238D01*
X177605373Y-94891063D01*
X177658737Y-94852291D01*
X177658738Y-94852291D01*
X177029408Y-94222962D01*
X177092993Y-94205925D01*
X177207007Y-94140099D01*
X177300099Y-94047007D01*
X177365925Y-93932993D01*
X177382962Y-93869409D01*
X178012291Y-94498738D01*
X178012291Y-94498737D01*
X178051063Y-94445373D01*
X178147238Y-94256620D01*
X178212698Y-94055155D01*
X178212698Y-94055152D01*
X178245838Y-93845919D01*
X178245838Y-93634080D01*
X178212698Y-93424847D01*
X178212698Y-93424844D01*
X178147238Y-93223379D01*
X178051065Y-93034630D01*
X178012291Y-92981261D01*
X177382962Y-93610590D01*
X177365925Y-93547007D01*
X177300099Y-93432993D01*
X177207007Y-93339901D01*
X177092993Y-93274075D01*
X177029409Y-93257037D01*
X177699160Y-92587285D01*
X177702458Y-92590583D01*
X177726545Y-92566125D01*
X177769579Y-92554965D01*
X177763432Y-92550499D01*
X177797872Y-92550499D01*
X177857483Y-92544091D01*
X177992331Y-92493796D01*
X178107546Y-92407546D01*
X178193796Y-92292331D01*
X178244091Y-92157483D01*
X178250500Y-92097873D01*
X178250499Y-90302128D01*
X178244091Y-90242517D01*
X178241633Y-90235928D01*
X178193797Y-90107671D01*
X178193793Y-90107664D01*
X178107547Y-89992455D01*
X178107544Y-89992452D01*
X177992335Y-89906206D01*
X177992328Y-89906202D01*
X177857482Y-89855908D01*
X177857483Y-89855908D01*
X177797883Y-89849501D01*
X177797881Y-89849500D01*
X177797873Y-89849500D01*
X177797864Y-89849500D01*
X176002129Y-89849500D01*
X176002123Y-89849501D01*
X175942516Y-89855908D01*
X175807671Y-89906202D01*
X175807664Y-89906206D01*
X175692455Y-89992452D01*
X175692452Y-89992455D01*
X175606206Y-90107664D01*
X175606202Y-90107671D01*
X175555908Y-90242517D01*
X175551781Y-90280911D01*
X175549501Y-90302123D01*
X175549500Y-90302135D01*
X174126000Y-90302135D01*
X174126000Y-90124000D01*
X172624000Y-90124000D01*
X172624000Y-91626000D01*
X171626000Y-91626000D01*
X171626000Y-90124000D01*
X170124000Y-90124000D01*
X170124000Y-91626000D01*
X169126000Y-91626000D01*
X169126000Y-90124000D01*
X167624000Y-90124000D01*
X167624000Y-90592670D01*
X166212616Y-90592670D01*
X163712616Y-88092670D01*
X165124000Y-88092670D01*
X166157330Y-89126000D01*
X166626000Y-89126000D01*
X167624000Y-89126000D01*
X169126000Y-89126000D01*
X170124000Y-89126000D01*
X171626000Y-89126000D01*
X172624000Y-89126000D01*
X174126000Y-89126000D01*
X174126000Y-88798499D01*
X175124000Y-88798499D01*
X175124000Y-89126000D01*
X175184561Y-89126000D01*
X175238126Y-89085901D01*
X175245396Y-89080854D01*
X175290463Y-89051890D01*
X175298077Y-89047372D01*
X175360667Y-89013195D01*
X175368581Y-89009233D01*
X175417318Y-88986975D01*
X175425498Y-88983587D01*
X175622982Y-88909931D01*
X175630321Y-88907452D01*
X175675172Y-88893847D01*
X175682648Y-88891832D01*
X175743363Y-88877484D01*
X175750955Y-88875939D01*
X175797160Y-88868028D01*
X175804833Y-88866959D01*
X175908755Y-88855788D01*
X175912064Y-88855477D01*
X175932101Y-88853865D01*
X175935413Y-88853643D01*
X175962095Y-88852214D01*
X175965413Y-88852081D01*
X175985464Y-88851545D01*
X175988778Y-88851501D01*
X176626000Y-88851500D01*
X177624000Y-88851500D01*
X177811248Y-88851500D01*
X177814572Y-88851545D01*
X177834673Y-88852084D01*
X177837993Y-88852217D01*
X177864680Y-88853649D01*
X177867989Y-88853871D01*
X177887982Y-88855481D01*
X177891285Y-88855792D01*
X177995175Y-88866962D01*
X178002843Y-88868029D01*
X178016558Y-88870377D01*
X178013047Y-87624000D01*
X177624000Y-87624000D01*
X177624000Y-88851500D01*
X176626000Y-88851500D01*
X176626000Y-88434771D01*
X176614877Y-88443566D01*
X176609093Y-88447872D01*
X176573333Y-88472913D01*
X176567303Y-88476879D01*
X176368532Y-88599481D01*
X176362285Y-88603088D01*
X176323860Y-88623806D01*
X176317413Y-88627044D01*
X176264768Y-88651591D01*
X176258146Y-88654447D01*
X176217596Y-88670556D01*
X176210820Y-88673022D01*
X175990863Y-88745909D01*
X175984386Y-88747861D01*
X175944884Y-88758599D01*
X175938309Y-88760195D01*
X175885055Y-88771593D01*
X175878411Y-88772827D01*
X175838006Y-88779196D01*
X175831299Y-88780066D01*
X175688787Y-88794624D01*
X175685639Y-88794905D01*
X175666595Y-88796361D01*
X175663449Y-88796562D01*
X175638080Y-88797854D01*
X175634926Y-88797974D01*
X175615856Y-88798459D01*
X175612703Y-88798499D01*
X175124000Y-88798499D01*
X174126000Y-88798499D01*
X174126000Y-88773521D01*
X174121543Y-88772819D01*
X174114892Y-88771584D01*
X174061641Y-88760182D01*
X174055074Y-88758587D01*
X174015600Y-88747856D01*
X174009125Y-88745905D01*
X173789182Y-88673023D01*
X173782404Y-88670556D01*
X173741853Y-88654446D01*
X173735234Y-88651591D01*
X173682588Y-88627044D01*
X173676140Y-88623806D01*
X173637715Y-88603088D01*
X173631468Y-88599481D01*
X173432697Y-88476879D01*
X173426667Y-88472913D01*
X173390907Y-88447872D01*
X173385123Y-88443566D01*
X173339556Y-88407536D01*
X173334029Y-88402898D01*
X173301431Y-88373887D01*
X173296187Y-88368939D01*
X173131061Y-88203813D01*
X173126113Y-88198569D01*
X173097102Y-88165971D01*
X173092464Y-88160444D01*
X173056434Y-88114877D01*
X173052128Y-88109093D01*
X173027087Y-88073333D01*
X173023121Y-88067303D01*
X172900519Y-87868532D01*
X172896912Y-87862285D01*
X172876194Y-87823860D01*
X172872956Y-87817413D01*
X172848409Y-87764768D01*
X172845553Y-87758146D01*
X172829444Y-87717596D01*
X172826978Y-87710820D01*
X172798208Y-87624000D01*
X172624000Y-87624000D01*
X172624000Y-89126000D01*
X171626000Y-89126000D01*
X171626000Y-87624000D01*
X170124000Y-87624000D01*
X170124000Y-89126000D01*
X169126000Y-89126000D01*
X169126000Y-87624000D01*
X167624000Y-87624000D01*
X167624000Y-89126000D01*
X166626000Y-89126000D01*
X166626000Y-87624000D01*
X165124000Y-87624000D01*
X165124000Y-88092670D01*
X163712616Y-88092670D01*
X161212616Y-85592670D01*
X162624000Y-85592670D01*
X163657330Y-86626000D01*
X164126000Y-86626000D01*
X165124000Y-86626000D01*
X166626000Y-86626000D01*
X167624000Y-86626000D01*
X169126000Y-86626000D01*
X170124000Y-86626000D01*
X171626000Y-86626000D01*
X172624000Y-86626000D01*
X172701501Y-86626000D01*
X172701500Y-85887296D01*
X172701540Y-85884143D01*
X172702025Y-85865073D01*
X172702145Y-85861920D01*
X172703437Y-85836549D01*
X172703638Y-85833398D01*
X172705095Y-85814349D01*
X172705376Y-85811204D01*
X172719936Y-85668681D01*
X172720807Y-85661972D01*
X172727181Y-85621543D01*
X172728416Y-85614892D01*
X172739818Y-85561641D01*
X172741413Y-85555074D01*
X172752144Y-85515600D01*
X172754095Y-85509125D01*
X172826977Y-85289182D01*
X172829444Y-85282404D01*
X172836445Y-85264779D01*
X172790704Y-85124000D01*
X172624000Y-85124000D01*
X172624000Y-86626000D01*
X171626000Y-86626000D01*
X171626000Y-85124000D01*
X170124000Y-85124000D01*
X170124000Y-86626000D01*
X169126000Y-86626000D01*
X169126000Y-85124000D01*
X167624000Y-85124000D01*
X167624000Y-86626000D01*
X166626000Y-86626000D01*
X166626000Y-85124000D01*
X165124000Y-85124000D01*
X165124000Y-86626000D01*
X164126000Y-86626000D01*
X164126000Y-85124000D01*
X162624000Y-85124000D01*
X162624000Y-85592670D01*
X161212616Y-85592670D01*
X159852648Y-84232702D01*
X159819163Y-84171379D01*
X159824147Y-84101687D01*
X159866019Y-84045754D01*
X159931483Y-84021337D01*
X159938198Y-84021040D01*
X173703214Y-83789209D01*
X173770572Y-83807760D01*
X173817210Y-83859786D01*
X173828317Y-83928767D01*
X173815785Y-83969483D01*
X173798958Y-84002508D01*
X173735918Y-84196524D01*
X173704007Y-84398003D01*
X173704007Y-84601996D01*
X173735918Y-84803475D01*
X173798958Y-84997490D01*
X173891568Y-85179248D01*
X173942017Y-85248684D01*
X173965497Y-85314490D01*
X173949672Y-85382544D01*
X173929381Y-85409251D01*
X173915632Y-85422999D01*
X173857288Y-85481344D01*
X173765186Y-85630666D01*
X173764005Y-85634227D01*
X173738362Y-85711614D01*
X173710001Y-85797203D01*
X173710001Y-85797204D01*
X173710000Y-85797204D01*
X173699500Y-85899983D01*
X173699500Y-87100001D01*
X173699501Y-87100018D01*
X173710000Y-87202796D01*
X173710001Y-87202799D01*
X173765185Y-87369331D01*
X173765186Y-87369334D01*
X173857288Y-87518656D01*
X173981344Y-87642712D01*
X174130666Y-87734814D01*
X174297203Y-87789999D01*
X174399991Y-87800500D01*
X175600008Y-87800499D01*
X175702797Y-87789999D01*
X175869334Y-87734814D01*
X176018656Y-87642712D01*
X176142712Y-87518656D01*
X176234814Y-87369334D01*
X176289999Y-87202797D01*
X176300500Y-87100009D01*
X176300500Y-86626000D01*
X177624000Y-86626000D01*
X178010237Y-86626000D01*
X178006005Y-85124000D01*
X177624000Y-85124000D01*
X177624000Y-86626000D01*
X176300500Y-86626000D01*
X176300499Y-85899992D01*
X176299048Y-85885792D01*
X176289999Y-85797203D01*
X176289998Y-85797200D01*
X176278594Y-85762785D01*
X176234814Y-85630666D01*
X176142712Y-85481344D01*
X176070619Y-85409251D01*
X176037135Y-85347927D01*
X176042120Y-85278236D01*
X176057983Y-85248684D01*
X176108431Y-85179248D01*
X176201041Y-84997490D01*
X176264081Y-84803475D01*
X176295993Y-84601996D01*
X176295993Y-84398003D01*
X176264081Y-84196524D01*
X176201041Y-84002509D01*
X176162183Y-83926245D01*
X176149287Y-83857576D01*
X176175563Y-83792835D01*
X176232670Y-83752578D01*
X176270572Y-83745969D01*
X178874268Y-83702117D01*
X178941627Y-83720669D01*
G37*
%TD.AperFunction*%
%TA.AperFunction,Conductor*%
G36*
X121900297Y-100399671D02*
G01*
X121941893Y-100455810D01*
X121949500Y-100498572D01*
X121949500Y-117464069D01*
X121955031Y-117491873D01*
X121974499Y-117589744D01*
X122023535Y-117708127D01*
X122080240Y-117792993D01*
X122094726Y-117814673D01*
X122585324Y-118305271D01*
X122585331Y-118305277D01*
X122691871Y-118376464D01*
X122691870Y-118376464D01*
X122746009Y-118398889D01*
X122800412Y-118442730D01*
X122822477Y-118509024D01*
X122805198Y-118576723D01*
X122754061Y-118624334D01*
X122685301Y-118636740D01*
X122670155Y-118634154D01*
X117097647Y-117322975D01*
X117036898Y-117288459D01*
X117004454Y-117226579D01*
X117002075Y-117199706D01*
X117004519Y-117081585D01*
X117016274Y-116513446D01*
X118014485Y-116513446D01*
X118492837Y-116626000D01*
X119126000Y-116626000D01*
X120124000Y-116626000D01*
X120951500Y-116626000D01*
X120951500Y-115124000D01*
X120124000Y-115124000D01*
X120124000Y-116626000D01*
X119126000Y-116626000D01*
X119126000Y-115124000D01*
X118043233Y-115124000D01*
X118014485Y-116513446D01*
X117016274Y-116513446D01*
X117065669Y-114126000D01*
X118063882Y-114126000D01*
X119126000Y-114126000D01*
X120124000Y-114126000D01*
X120951500Y-114126000D01*
X120951500Y-112624000D01*
X120124000Y-112624000D01*
X120124000Y-114126000D01*
X119126000Y-114126000D01*
X119126000Y-112624000D01*
X118094957Y-112624000D01*
X118063882Y-114126000D01*
X117065669Y-114126000D01*
X117117393Y-111626000D01*
X118115605Y-111626000D01*
X119126000Y-111626000D01*
X120124000Y-111626000D01*
X120951500Y-111626000D01*
X120951500Y-110124000D01*
X120124000Y-110124000D01*
X120124000Y-111626000D01*
X119126000Y-111626000D01*
X119126000Y-110124000D01*
X118413308Y-110124000D01*
X118395880Y-110141428D01*
X118391471Y-110145626D01*
X118364184Y-110170357D01*
X118359577Y-110174331D01*
X118321694Y-110205421D01*
X118316894Y-110209167D01*
X118287320Y-110231100D01*
X118282345Y-110234604D01*
X118142458Y-110328072D01*
X118115605Y-111626000D01*
X117117393Y-111626000D01*
X117160175Y-109558190D01*
X117450000Y-109558190D01*
X117577109Y-109505540D01*
X117577127Y-109505530D01*
X117707510Y-109418411D01*
X117707518Y-109418405D01*
X117818405Y-109307518D01*
X117818408Y-109307514D01*
X117905533Y-109177123D01*
X117905538Y-109177113D01*
X117958191Y-109050000D01*
X117450000Y-109050000D01*
X117450000Y-109558190D01*
X117160175Y-109558190D01*
X117175862Y-108800000D01*
X117200000Y-108800000D01*
X117200000Y-108674000D01*
X117219685Y-108606961D01*
X117272489Y-108561206D01*
X117324000Y-108550000D01*
X117958191Y-108550000D01*
X117958190Y-108549999D01*
X117905538Y-108422886D01*
X117905533Y-108422876D01*
X117818408Y-108292485D01*
X117818405Y-108292481D01*
X117707518Y-108181594D01*
X117707514Y-108181591D01*
X117577123Y-108094466D01*
X117577114Y-108094461D01*
X117432228Y-108034448D01*
X117432222Y-108034446D01*
X117294618Y-108007074D01*
X117232707Y-107974689D01*
X117198133Y-107913972D01*
X117194837Y-107882892D01*
X117200193Y-107624000D01*
X118559648Y-107624000D01*
X118570357Y-107635816D01*
X118574331Y-107640423D01*
X118605420Y-107678305D01*
X118609166Y-107683105D01*
X118631099Y-107712679D01*
X118634602Y-107717653D01*
X118748959Y-107888800D01*
X118752216Y-107893944D01*
X118771151Y-107925536D01*
X118774151Y-107930831D01*
X118797252Y-107974051D01*
X118799989Y-107979490D01*
X118815728Y-108012770D01*
X118818193Y-108018330D01*
X118977480Y-108402880D01*
X118986322Y-108462487D01*
X118953079Y-108800000D01*
X118985188Y-109126000D01*
X119126000Y-109126000D01*
X120124000Y-109126000D01*
X120951500Y-109126000D01*
X120951500Y-107624000D01*
X120124000Y-107624000D01*
X120124000Y-109126000D01*
X119126000Y-109126000D01*
X119126000Y-107624000D01*
X118559648Y-107624000D01*
X117200193Y-107624000D01*
X117220842Y-106626000D01*
X118219055Y-106626000D01*
X119126000Y-106626000D01*
X120124000Y-106626000D01*
X120951500Y-106626000D01*
X120951500Y-105124000D01*
X120124000Y-105124000D01*
X120124000Y-106626000D01*
X119126000Y-106626000D01*
X119126000Y-105124000D01*
X118250130Y-105124000D01*
X118219055Y-106626000D01*
X117220842Y-106626000D01*
X117248108Y-105308118D01*
X117272565Y-104126000D01*
X118270778Y-104126000D01*
X119126000Y-104126000D01*
X120124000Y-104126000D01*
X120951500Y-104126000D01*
X120951500Y-102624000D01*
X120124000Y-102624000D01*
X120124000Y-104126000D01*
X119126000Y-104126000D01*
X119126000Y-102948600D01*
X118285755Y-103402066D01*
X118270778Y-104126000D01*
X117272565Y-104126000D01*
X117298505Y-102872239D01*
X117319572Y-102805623D01*
X117363583Y-102765684D01*
X121766609Y-100389448D01*
X121834953Y-100374933D01*
X121900297Y-100399671D01*
G37*
%TD.AperFunction*%
%TA.AperFunction,Conductor*%
G36*
X123644737Y-83223519D02*
G01*
X131500000Y-84500000D01*
X146253376Y-84251522D01*
X146320734Y-84270073D01*
X146367372Y-84322099D01*
X146378479Y-84391081D01*
X146375663Y-84404277D01*
X146375687Y-84404282D01*
X146349500Y-84535928D01*
X146349500Y-85184217D01*
X146329815Y-85251256D01*
X146313181Y-85271898D01*
X146271898Y-85313181D01*
X146210575Y-85346666D01*
X146184217Y-85349500D01*
X136435929Y-85349500D01*
X136310261Y-85374497D01*
X136310255Y-85374499D01*
X136191870Y-85423535D01*
X136085331Y-85494722D01*
X136085324Y-85494728D01*
X135594726Y-85985326D01*
X135542114Y-86064068D01*
X135542112Y-86064070D01*
X135523539Y-86091864D01*
X135523533Y-86091875D01*
X135474499Y-86210255D01*
X135474497Y-86210261D01*
X135449500Y-86335928D01*
X135449500Y-87979192D01*
X135429815Y-88046231D01*
X135413181Y-88066873D01*
X132666873Y-90813181D01*
X132605550Y-90846666D01*
X132579192Y-90849500D01*
X128035929Y-90849500D01*
X127910261Y-90874497D01*
X127910251Y-90874500D01*
X127861220Y-90894810D01*
X127791881Y-90923530D01*
X127791863Y-90923540D01*
X127685332Y-90994721D01*
X127685325Y-90994727D01*
X123783344Y-94896708D01*
X123722021Y-94930193D01*
X123652329Y-94925209D01*
X123596396Y-94883337D01*
X123571979Y-94817873D01*
X123571665Y-94809792D01*
X123570857Y-94678844D01*
X123550751Y-91421635D01*
X125124000Y-91421635D01*
X125124000Y-91626000D01*
X125642668Y-91626000D01*
X126626000Y-90642668D01*
X126626000Y-90549729D01*
X126614716Y-90568556D01*
X126611459Y-90573700D01*
X126497102Y-90744847D01*
X126493599Y-90749821D01*
X126471666Y-90779395D01*
X126467920Y-90784195D01*
X126436831Y-90822077D01*
X126432857Y-90826684D01*
X126408126Y-90853971D01*
X126403928Y-90858380D01*
X126258380Y-91003928D01*
X126253971Y-91008126D01*
X126226684Y-91032857D01*
X126222077Y-91036831D01*
X126184194Y-91067921D01*
X126179394Y-91071667D01*
X126149820Y-91093600D01*
X126144845Y-91097104D01*
X125973696Y-91211461D01*
X125968555Y-91214716D01*
X125936964Y-91233651D01*
X125931665Y-91236653D01*
X125888445Y-91259753D01*
X125883010Y-91262489D01*
X125849729Y-91278229D01*
X125844166Y-91280694D01*
X125459615Y-91439979D01*
X125400008Y-91448821D01*
X125124000Y-91421635D01*
X123550751Y-91421635D01*
X123541435Y-89912500D01*
X124304309Y-89912500D01*
X124356961Y-90039613D01*
X124356966Y-90039623D01*
X124444091Y-90170014D01*
X124444094Y-90170018D01*
X124554981Y-90280905D01*
X124554989Y-90280911D01*
X124685372Y-90368030D01*
X124685390Y-90368040D01*
X124812499Y-90420690D01*
X124812500Y-90420690D01*
X125312500Y-90420690D01*
X125439609Y-90368040D01*
X125439627Y-90368030D01*
X125570010Y-90280911D01*
X125570018Y-90280905D01*
X125680905Y-90170018D01*
X125680908Y-90170014D01*
X125768033Y-90039623D01*
X125768038Y-90039613D01*
X125820691Y-89912500D01*
X125312500Y-89912500D01*
X125312500Y-90420690D01*
X124812500Y-90420690D01*
X124812500Y-89912500D01*
X124304309Y-89912500D01*
X123541435Y-89912500D01*
X123539198Y-89550000D01*
X130941809Y-89550000D01*
X130994461Y-89677113D01*
X130994466Y-89677123D01*
X131081591Y-89807514D01*
X131081594Y-89807518D01*
X131192481Y-89918405D01*
X131192489Y-89918411D01*
X131322872Y-90005530D01*
X131322890Y-90005540D01*
X131449999Y-90058190D01*
X131450000Y-90058190D01*
X131950000Y-90058190D01*
X132077109Y-90005540D01*
X132077127Y-90005530D01*
X132207510Y-89918411D01*
X132207518Y-89918405D01*
X132318405Y-89807518D01*
X132318408Y-89807514D01*
X132405533Y-89677123D01*
X132405538Y-89677113D01*
X132458191Y-89550000D01*
X131950000Y-89550000D01*
X131950000Y-90058190D01*
X131450000Y-90058190D01*
X131450000Y-89550000D01*
X130941809Y-89550000D01*
X123539198Y-89550000D01*
X123538349Y-89412499D01*
X124304309Y-89412499D01*
X124304309Y-89412500D01*
X124812500Y-89412500D01*
X125312500Y-89412500D01*
X125820691Y-89412500D01*
X125820690Y-89412499D01*
X125768038Y-89285386D01*
X125768033Y-89285376D01*
X125680908Y-89154985D01*
X125680905Y-89154981D01*
X125651924Y-89126000D01*
X127624000Y-89126000D01*
X129126000Y-89126000D01*
X129126000Y-89049999D01*
X130941809Y-89049999D01*
X130941809Y-89050000D01*
X131450000Y-89050000D01*
X131950000Y-89050000D01*
X132458191Y-89050000D01*
X132458190Y-89049999D01*
X132405538Y-88922886D01*
X132405533Y-88922876D01*
X132318408Y-88792485D01*
X132318405Y-88792481D01*
X132207518Y-88681594D01*
X132207514Y-88681591D01*
X132077123Y-88594466D01*
X132077113Y-88594461D01*
X131950000Y-88541809D01*
X131950000Y-89050000D01*
X131450000Y-89050000D01*
X131450000Y-88541809D01*
X131449999Y-88541809D01*
X131322886Y-88594461D01*
X131322876Y-88594466D01*
X131192485Y-88681591D01*
X131192481Y-88681594D01*
X131081594Y-88792481D01*
X131081591Y-88792485D01*
X130994466Y-88922876D01*
X130994461Y-88922886D01*
X130941809Y-89049999D01*
X129126000Y-89049999D01*
X129126000Y-88434290D01*
X130124000Y-88434290D01*
X130125849Y-88430831D01*
X130128849Y-88425536D01*
X130147784Y-88393944D01*
X130151041Y-88388800D01*
X130265398Y-88217653D01*
X130268901Y-88212679D01*
X130290834Y-88183105D01*
X130294580Y-88178305D01*
X130325669Y-88140423D01*
X130329643Y-88135816D01*
X130354374Y-88108529D01*
X130358572Y-88104120D01*
X130504120Y-87958572D01*
X130508529Y-87954374D01*
X130535816Y-87929643D01*
X130540423Y-87925669D01*
X130578305Y-87894580D01*
X130583105Y-87890834D01*
X130612679Y-87868901D01*
X130617653Y-87865398D01*
X130776001Y-87759593D01*
X132624000Y-87759593D01*
X132782347Y-87865398D01*
X132787321Y-87868901D01*
X132816895Y-87890834D01*
X132821695Y-87894580D01*
X132859577Y-87925669D01*
X132864184Y-87929643D01*
X132891471Y-87954374D01*
X132895880Y-87958572D01*
X133041428Y-88104120D01*
X133045626Y-88108529D01*
X133070357Y-88135816D01*
X133074331Y-88140423D01*
X133105420Y-88178305D01*
X133109166Y-88183105D01*
X133131099Y-88212679D01*
X133134602Y-88217653D01*
X133248959Y-88388800D01*
X133252216Y-88393944D01*
X133271151Y-88425536D01*
X133274151Y-88430831D01*
X133297252Y-88474051D01*
X133299989Y-88479490D01*
X133315728Y-88512770D01*
X133318193Y-88518330D01*
X133386187Y-88682481D01*
X134126000Y-87942669D01*
X134126000Y-87624000D01*
X132624000Y-87624000D01*
X132624000Y-87759593D01*
X130776001Y-87759593D01*
X130788800Y-87751041D01*
X130793944Y-87747784D01*
X130825536Y-87728849D01*
X130830831Y-87725849D01*
X130874051Y-87702748D01*
X130879490Y-87700011D01*
X130912770Y-87684272D01*
X130918330Y-87681807D01*
X131057887Y-87624000D01*
X130124000Y-87624000D01*
X130124000Y-88434290D01*
X129126000Y-88434290D01*
X129126000Y-87624000D01*
X127624000Y-87624000D01*
X127624000Y-89126000D01*
X125651924Y-89126000D01*
X125570018Y-89044094D01*
X125570014Y-89044091D01*
X125439623Y-88956966D01*
X125439613Y-88956961D01*
X125312500Y-88904309D01*
X125312500Y-89412500D01*
X124812500Y-89412500D01*
X124812500Y-88904309D01*
X124812499Y-88904309D01*
X124685386Y-88956961D01*
X124685376Y-88956966D01*
X124554985Y-89044091D01*
X124554981Y-89044094D01*
X124444094Y-89154981D01*
X124444091Y-89154985D01*
X124356966Y-89285376D01*
X124356961Y-89285386D01*
X124304309Y-89412499D01*
X123538349Y-89412499D01*
X123529033Y-87903362D01*
X125124000Y-87903362D01*
X125400013Y-87876178D01*
X125459620Y-87885020D01*
X125844170Y-88044307D01*
X125849730Y-88046772D01*
X125883010Y-88062511D01*
X125888449Y-88065248D01*
X125931669Y-88088349D01*
X125936964Y-88091349D01*
X125968556Y-88110284D01*
X125973700Y-88113541D01*
X126144847Y-88227898D01*
X126149821Y-88231401D01*
X126179395Y-88253334D01*
X126184195Y-88257080D01*
X126222077Y-88288169D01*
X126226684Y-88292143D01*
X126253971Y-88316874D01*
X126258380Y-88321072D01*
X126403928Y-88466620D01*
X126408126Y-88471029D01*
X126432857Y-88498316D01*
X126436831Y-88502923D01*
X126467920Y-88540805D01*
X126471666Y-88545605D01*
X126493599Y-88575179D01*
X126497102Y-88580153D01*
X126611459Y-88751300D01*
X126614716Y-88756444D01*
X126626000Y-88775270D01*
X126626000Y-87624000D01*
X125124000Y-87624000D01*
X125124000Y-87903362D01*
X123529033Y-87903362D01*
X123521148Y-86626000D01*
X125124000Y-86626000D01*
X126626000Y-86626000D01*
X127624000Y-86626000D01*
X129126000Y-86626000D01*
X130124000Y-86626000D01*
X131626000Y-86626000D01*
X131626000Y-85496017D01*
X131494613Y-85498231D01*
X131489101Y-85498202D01*
X131455763Y-85497281D01*
X131450257Y-85497006D01*
X131405966Y-85493808D01*
X131400473Y-85493288D01*
X131367315Y-85489405D01*
X131361849Y-85488642D01*
X131303794Y-85479208D01*
X132624000Y-85479208D01*
X132624000Y-86626000D01*
X134126000Y-86626000D01*
X134126000Y-85453911D01*
X132624000Y-85479208D01*
X131303794Y-85479208D01*
X130124000Y-85287491D01*
X130124000Y-86626000D01*
X129126000Y-86626000D01*
X129126000Y-85125316D01*
X129117900Y-85124000D01*
X127624000Y-85124000D01*
X127624000Y-86626000D01*
X126626000Y-86626000D01*
X126626000Y-85124000D01*
X125124000Y-85124000D01*
X125124000Y-86626000D01*
X123521148Y-86626000D01*
X123500905Y-83346686D01*
X123520176Y-83279529D01*
X123572696Y-83233449D01*
X123641792Y-83223079D01*
X123644737Y-83223519D01*
G37*
%TD.AperFunction*%
%TD*%
M02*
